<?xml version="1.0" encoding="utf-8"?>
<!-- Generator: Adobe Illustrator 24.3.0, SVG Export Plug-In . SVG Version: 6.00 Build 0)  -->
<svg version="1.1" id="Calque_1" xmlns="http://www.w3.org/2000/svg" xmlns:xlink="http://www.w3.org/1999/xlink" x="0px" y="0px"
	 viewBox="0 0 1190.6 436" style="enable-background:new 0 0 1190.6 436;" xml:space="preserve">
<style type="text/css">
	.st0{fill:#FFFFFF;}
	.st1{fill:#FFED00;}
</style>
<g>
	<g>
		<g>
			<g>
				<g>
					<path class="st0" d="M98.7,28.5c0,0-90.9,118.8-86.9,228.5s60.2,118.3,99.7,28.5l8.8-18.7l-6.4-26.3c0,0-36.5,88.8-52.5,76.7
						C39.2,300.3,10,198.2,145.6,22.4C145.6,22.4,130.2,19.9,98.7,28.5z"/>
					<path class="st0" d="M164.3,296.2c-7.7,18-47.3,50.6-60.9,8.2s23.1-115.4,23.1-115.4s23.4-6.6,26.7-1.1c0,0-18.3,33-24.4,73.9
						c-6.2,40.8,8.5,36.1,14.5,25.7c6-10.4,25.5-81.6,34.7-102.1c0,0,21.5-8.4,28.9-3.5c0,0-16.5,38.6-22.7,64.9
						c-6.3,26.3-7.2,56.1,11.1,22.1l6.3-11.7l5,22.2C206.5,279.2,178.6,331.2,164.3,296.2z"/>
					<path class="st0" d="M393.7,258.1c0,0-28.6,47.8-42.3,14.2c-8,16.6-53.6,37.5-60.8,5.1c-8.9-40.5,24.9-107.8,24.9-107.8
						s23.4-5.2,26.6,0.1c0,0-18.7,30.3-25.6,68.6c-6.8,38.2,7.8,34.4,14,24.9c6.2-9.5,26.7-75.8,36.2-94.7c0,0,21.6-7,28.9-2
						c0,0-17,35.6-23.7,60.2s-8.1,52.6,10.7,21.3c0,0,27.7-50.4,31.6-70.6c0,0-12.5-27.6,1.2-52.9s49.5-7.8,24.8,45.8
						c0,0,8.8,23.3,16,34.9c0,0,2.6,5.9-3.3,15.1c-6,9.2-28.3,55.8-11.3,46.9s19.7-17.7,19.7-17.7s9.9-0.4,12.5,2.9
						c0,0-31.3,49.4-53.1,31.3c-21.7-18.1,15.5-76.3,15.5-76.3l-11.5-11.7C424.6,195.5,405.3,238.9,393.7,258.1z"/>
					<path class="st0" d="M196,275.9c0,0-2.9-40,23.7-75.5s61.2-20.3,66.1-15c4.9,5.3,23,42.6-62.6,86.1l-7.9,2l-3.8-16.8
						c0,0,31-12.9,52.6-36.7c21.7-23.8-13.3-24.4-31.6,7.1s-10.4,57.8,1.5,57.1c11.9-0.7,36.8-11.6,55.5-49.7l5.7-9.1l3.5,24.7
						c0,0-16.9,40.4-54.8,53.1c-38,12.7-47.5-22.7-47.5-22.7L196,275.9z"/>
				</g>
			</g>
			<g>
				<path class="st0" d="M506.4,275.6V162.3H581V182h-52.5v26.6h44.7v19.7h-44.7v27.5H581v19.7H506.4z"/>
				<path class="st0" d="M659.3,275.6l-22-39.5l-21.8,39.5h-25.3l35.2-58.1l-32.9-55.2h25.1l19.7,36.6l19.9-36.6h25l-32.9,55.2
					l35.3,58.1H659.3z"/>
				<path class="st0" d="M741.8,182v93.5h-22.1V182h-29.6v-19.7h81.3V182H741.8z"/>
				<path class="st0" d="M789.4,275.6V162.3H864V182h-52.5v26.6h44.7v19.7h-44.7v27.5H864v19.7H789.4z"/>
				<path class="st0" d="M945.8,275.6l-22.1-45.2h-15.9v45.2h-22.1V162.3H930c23.1,0,36.8,15.8,36.8,34.7c0,15.9-9.7,25.8-20.7,29.8
					l25.3,48.8H945.8z M928.6,182h-20.8V212h20.8c9.7,0,16.1-6.2,16.1-15C944.7,188.3,938.3,182,928.6,182z"/>
				<path class="st0" d="M1056.7,275.6l-44.9-69.5v69.5h-22.1V162.3h19.7l44.9,69.4v-69.4h22.1v113.3H1056.7z"/>
			</g>
			<path class="st0" d="M1177.4,258.1l2.2-2.2h-54.7v-27.5h44.7v-19.7h-44.7V182h52.5v-19.7h-74.6v113.3h52.2
				C1164.8,269.1,1172.1,263.1,1177.4,258.1z"/>
			<path class="st0" d="M1184.5,251.3c-7.5,8.8-16.5,16-25.8,22.7c-9.3,6.7-19.2,12.5-29.4,17.9c-20.3,10.7-41.9,18.9-63.9,25.4
				c-44,13-89.9,19.2-135.8,20.7c-45.8,1.6-91.6,0.2-137.3-1.9c-45.7-2.1-91.3-5-137-7.4c-45.6-2.5-91.3-4.5-136.9-5.7
				c-22.8-0.5-45.6-0.8-68.4-0.9c-22.8,0-45.6,0.5-68.3,1.2c-45.5,1.5-91,5.6-135.9,13.1c-22.4,3.7-44.7,8.6-66.6,14.7
				c-22,6-43.5,13.7-64.4,22.7l-0.4-0.9c40.9-20.7,85.3-34.1,130.3-43c22.5-4.6,45.2-7.9,68-10.5c22.8-2.6,45.7-4.4,68.6-5.6
				c91.7-4.8,183.3,0.5,274.5,6.5c45.6,3.1,91.2,6.3,136.8,8.9c45.6,2.5,91.2,4.4,136.8,3.3c22.8-0.6,45.5-2.2,68.1-5.2
				c22.6-3,45-7.3,66.9-13.3c21.9-6.1,43.4-13.9,63.8-24.1c10.2-5.1,20.1-10.8,29.5-17.2c9.3-6.5,18.4-13.5,26-22L1184.5,251.3z"/>
		</g>
	</g>
	<g>
		<path class="st1" d="M190.1,405.7c-8.2,0-13.2-5.9-13.2-15.4c0-9.5,5.1-15.4,13.2-15.4c4.1,0,6.7,1.1,9.9,4.6l-2.2,2
			c-2.6-2.9-4.6-3.8-7.7-3.8c-3.4,0-6.2,1.4-8,4c-1.5,2.2-2.1,4.6-2.1,8.6c0,4.1,0.6,6.4,2.1,8.6c1.8,2.6,4.6,4,8,4
			c3.2,0,5.2-0.9,7.7-3.8l2.2,2C196.8,404.7,194.3,405.7,190.1,405.7z"/>
		<path class="st1" d="M229.7,402.4c-2.1,2.1-5,3.3-8.4,3.3c-3.4,0-6.2-1.2-8.4-3.3c-3.2-3.2-3.7-7.8-3.7-12.1
			c0-4.3,0.6-8.9,3.7-12.1c2.1-2.1,5-3.3,8.4-3.3c3.4,0,6.2,1.2,8.4,3.3c3.2,3.2,3.7,7.8,3.7,12.1
			C233.5,394.6,232.9,399.3,229.7,402.4z M227.6,380.3c-1.6-1.6-3.8-2.6-6.2-2.6c-2.4,0-4.6,0.9-6.2,2.6c-2.5,2.5-2.7,6.5-2.7,10
			c0,3.5,0.2,7.5,2.7,10c1.6,1.6,3.8,2.6,6.2,2.6c2.4,0,4.6-0.9,6.2-2.6c2.5-2.5,2.7-6.5,2.7-10
			C230.3,386.8,230.1,382.8,227.6,380.3z"/>
		<path class="st1" d="M286.3,405.4v-18.6c0-5.8-2.9-9-8.3-9c-5.2,0-8.5,3.3-8.5,8.4v19.2h-3.2v-18.6c0-5.8-2.9-9-8.3-9
			c-5.4,0-8.5,3.3-8.5,9v18.6h-3.2v-30.1h3.2v3.6c2.2-2.6,5.3-3.9,8.9-3.9c4.4,0,7.9,1.9,9.7,5.5c2.2-3.6,5.8-5.5,10.2-5.5
			c3.3,0,6,1.1,7.9,2.9c2,1.9,3.1,4.8,3.1,8.4v19.2H286.3z"/>
		<path class="st1" d="M343.6,405.4v-18.6c0-5.8-2.9-9-8.3-9c-5.2,0-8.5,3.3-8.5,8.4v19.2h-3.2v-18.6c0-5.8-2.9-9-8.3-9
			s-8.5,3.3-8.5,9v18.6h-3.2v-30.1h3.2v3.6c2.2-2.6,5.3-3.9,8.9-3.9c4.4,0,7.9,1.9,9.7,5.5c2.2-3.6,5.8-5.5,10.2-5.5
			c3.3,0,6,1.1,7.9,2.9c2,1.9,3.1,4.8,3.1,8.4v19.2H343.6z"/>
		<path class="st1" d="M380.6,405.4v-3.6c-2.2,2.6-5.2,3.9-8.9,3.9c-3.4,0-6-1-8-2.9c-2-1.9-3.1-4.8-3.1-8.4v-19.2h3.2V394
			c0,5.8,2.9,9,8.3,9s8.5-3.3,8.5-9v-18.6h3.2v30.1H380.6z"/>
		<path class="st1" d="M418.4,405.4v-18.6c0-5.8-2.9-9-8.3-9s-8.5,3.3-8.5,9v18.6h-3.2v-30.1h3.2v3.6c2.2-2.6,5.2-3.9,8.9-3.9
			c3.4,0,6,1,8,2.9c2,1.9,3.1,4.8,3.1,8.4v19.2H418.4z"/>
		<path class="st1" d="M435.5,364.9V361h3.9v3.9H435.5z M435.9,405.4v-30.1h3.2v30.1H435.9z"/>
		<path class="st1" d="M465.2,405.7c-8.2,0-13.2-5.9-13.2-15.4c0-9.5,5.1-15.4,13.2-15.4c4.1,0,6.7,1.1,9.9,4.6l-2.2,2
			c-2.6-2.9-4.6-3.8-7.7-3.8c-3.4,0-6.2,1.4-8,4c-1.5,2.2-2.1,4.6-2.1,8.6c0,4.1,0.6,6.4,2.1,8.6c1.8,2.6,4.6,4,8,4
			c3.2,0,5.2-0.9,7.7-3.8l2.2,2C471.9,404.7,469.3,405.7,465.2,405.7z"/>
		<path class="st1" d="M503.7,405.4v-3c-2.6,2.6-4.9,3.4-9.2,3.4c-4.4,0-6.9-0.8-8.9-2.7c-1.4-1.4-2.2-3.6-2.2-5.9
			c0-5.5,3.9-8.7,10.5-8.7h9.7v-3.4c0-4.8-2.4-7.4-8.5-7.4c-4.2,0-6.4,1.1-8.3,3.8l-2.3-2c2.6-3.6,5.7-4.6,10.6-4.6
			c7.9,0,11.7,3.6,11.7,9.9v20.6H503.7z M503.7,391h-9.4c-5.2,0-7.7,2.1-7.7,6s2.4,5.9,7.9,5.9c2.7,0,5.4-0.2,7.5-2.3
			c1.1-1.1,1.7-2.9,1.7-5.7V391z"/>
		<path class="st1" d="M529.3,405.4c-4.7,0-7.2-3.3-7.2-7.9v-19.8H518v-2.4h4.1v-9.6h3.2v9.6h6.8v2.4h-6.8v19.9c0,3.1,1.4,5,4.6,5
			h2.2v2.8H529.3z"/>
		<path class="st1" d="M543.8,364.9V361h3.9v3.9H543.8z M544.2,405.4v-30.1h3.2v30.1H544.2z"/>
		<path class="st1" d="M580.7,402.4c-2.1,2.1-5,3.3-8.4,3.3c-3.4,0-6.2-1.2-8.4-3.3c-3.2-3.2-3.7-7.8-3.7-12.1
			c0-4.3,0.6-8.9,3.7-12.1c2.1-2.1,5-3.3,8.4-3.3c3.4,0,6.2,1.2,8.4,3.3c3.2,3.2,3.7,7.8,3.7,12.1
			C584.4,394.6,583.9,399.3,580.7,402.4z M578.6,380.3c-1.6-1.6-3.8-2.6-6.2-2.6c-2.4,0-4.6,0.9-6.2,2.6c-2.5,2.5-2.7,6.5-2.7,10
			c0,3.5,0.2,7.5,2.7,10c1.6,1.6,3.8,2.6,6.2,2.6c2.4,0,4.6-0.9,6.2-2.6c2.5-2.5,2.7-6.5,2.7-10
			C581.3,386.8,581.1,382.8,578.6,380.3z"/>
		<path class="st1" d="M617.3,405.4v-18.6c0-5.8-2.9-9-8.3-9s-8.5,3.3-8.5,9v18.6h-3.2v-30.1h3.2v3.6c2.2-2.6,5.2-3.9,8.9-3.9
			c3.4,0,6,1,8,2.9c2,1.9,3.1,4.8,3.1,8.4v19.2H617.3z"/>
		<path class="st1" d="M684.2,405.4l-4.3-5.2c-1.7,1.7-6.3,5.6-13.7,5.6c-8.2,0-13.8-5.1-13.8-12.7c0-7,4.9-10.3,10.2-13.8
			c-2.4-2.8-4.9-6-4.9-9.9c0-5,4-8.9,9-8.9c5.1,0,9,3.9,9,8.9c0,3.6-2.3,6.1-5.1,8c0,0-2.2,1.6-3.3,2.2l12.7,15.4
			c1.9-3,2.6-5.4,2.6-11h3.3c0,5.6-1.1,10.1-3.9,13.5l6.4,7.7H684.2z M664.5,381.5c-4.2,2.9-8.7,5.6-8.7,11.3
			c0,5.9,4.2,9.9,10.4,9.9c3.6,0,7.4-0.9,11.9-4.9L664.5,381.5z M666.7,363.6c-3.2,0-5.7,2.4-5.7,5.7c0,2.2,0.9,4,4.4,8.2
			c0.8-0.6,2.6-1.7,2.6-1.7c2.3-1.6,4.5-3.3,4.5-6.2C672.5,366.1,670,363.6,666.7,363.6z"/>
		<path class="st1" d="M748.7,405.4h-3.2l-8.5-25.1l-8.5,25.1h-3.2l-9.6-30.1h3.5l7.7,26.3l8.6-26.3h3.1l8.6,26.3l7.7-26.3h3.5
			L748.7,405.4z"/>
		<path class="st1" d="M768.9,391c0,7.6,3.4,11.8,9.8,11.8c3.6,0,5.7-1.1,8.3-3.6l2.4,1.9c-3.1,3.1-5.9,4.6-10.9,4.6
			c-8.3,0-12.8-5.4-12.8-15.4c0-9.7,4.5-15.4,12-15.4c7.5,0,12,5.5,12,14.7v1.4H768.9z M785.5,382.8c-1.3-3.1-4.4-5.1-7.8-5.1
			c-3.4,0-6.5,1.9-7.8,5.1c-0.7,1.9-0.9,2.8-1.1,5.7h17.7C786.5,385.6,786.3,384.7,785.5,382.8z"/>
		<path class="st1" d="M822.1,403.1c-1.6,1.6-4.2,2.6-7.4,2.6c-3.4,0-6.3-0.8-8.9-4.2v3.9h-3.2V361h3.2v18.2
			c2.6-3.5,5.6-4.2,8.9-4.2c3.1,0,5.8,1.1,7.4,2.6c3.1,3.1,3.9,8,3.9,12.8C825.9,395.1,825.1,400.1,822.1,403.1z M814.3,377.7
			c-7.4,0-8.5,6.4-8.5,12.6c0,6.2,1.1,12.6,8.5,12.6c7.4,0,8.5-6.4,8.5-12.6C822.8,384.1,821.6,377.7,814.3,377.7z"/>
		<path class="st1" d="M875,405.4v-3c-2.6,2.6-4.9,3.4-9.2,3.4c-4.4,0-6.9-0.8-8.9-2.7c-1.4-1.4-2.2-3.6-2.2-5.9
			c0-5.5,3.9-8.7,10.5-8.7h9.7v-3.4c0-4.8-2.4-7.4-8.5-7.4c-4.2,0-6.4,1.1-8.3,3.8l-2.3-2c2.6-3.6,5.7-4.6,10.6-4.6
			c7.9,0,11.7,3.6,11.7,9.9v20.6H875z M875,391h-9.4c-5.2,0-7.7,2.1-7.7,6s2.4,5.9,7.9,5.9c2.7,0,5.4-0.2,7.5-2.3
			c1.1-1.1,1.7-2.9,1.7-5.7V391z"/>
		<path class="st1" d="M901.9,420.1c-4.5,0-6.7-1.2-9.9-4l2.1-2.1c2.4,2.1,4,3.3,7.8,3.3c6.3,0,9.1-4.5,9.1-10.4v-5.4
			c-2.6,3.5-5.5,4.2-8.9,4.2c-3.1,0-5.8-1.1-7.4-2.6c-3.1-3.1-3.9-8-3.9-12.8c0-4.7,0.8-9.7,3.9-12.8c1.6-1.6,4.2-2.6,7.4-2.6
			c3.4,0,6.3,0.7,8.9,4.2v-3.9h3.2v31.7C914.1,414.6,909.7,420.1,901.9,420.1z M902.5,377.7c-7.4,0-8.5,6.4-8.5,12.6
			c0,6.2,1.1,12.6,8.5,12.6c7.4,0,8.5-6.4,8.5-12.6C911,384.1,909.8,377.7,902.5,377.7z"/>
		<path class="st1" d="M930.2,391c0,7.6,3.4,11.8,9.8,11.8c3.6,0,5.7-1.1,8.3-3.6l2.4,1.9c-3.1,3.1-5.9,4.6-10.9,4.6
			c-8.3,0-12.8-5.4-12.8-15.4c0-9.7,4.5-15.4,12-15.4c7.5,0,12,5.5,12,14.7v1.4H930.2z M946.9,382.8c-1.3-3.1-4.4-5.1-7.8-5.1
			c-3.4,0-6.5,1.9-7.8,5.1c-0.7,1.9-0.9,2.8-1.1,5.7H948C947.8,385.6,947.6,384.7,946.9,382.8z"/>
		<path class="st1" d="M983.9,405.4v-18.6c0-5.8-2.9-9-8.3-9s-8.5,3.3-8.5,9v18.6H964v-30.1h3.2v3.6c2.2-2.6,5.2-3.9,8.9-3.9
			c3.4,0,6,1,8,2.9c2,1.9,3.1,4.8,3.1,8.4v19.2H983.9z"/>
		<path class="st1" d="M1012.9,405.7c-8.2,0-13.2-5.9-13.2-15.4c0-9.5,5.1-15.4,13.2-15.4c4.1,0,6.7,1.1,9.9,4.6l-2.2,2
			c-2.6-2.9-4.6-3.8-7.7-3.8c-3.4,0-6.2,1.4-8,4c-1.5,2.2-2.1,4.6-2.1,8.6c0,4.1,0.6,6.4,2.1,8.6c1.8,2.6,4.6,4,8,4
			c3.2,0,5.2-0.9,7.7-3.8l2.2,2C1019.6,404.7,1017,405.7,1012.9,405.7z"/>
		<path class="st1" d="M1040.6,413.5c-0.6,1.6-1.2,2.7-2.1,3.5c-1.5,1.4-3.7,1.9-5.7,1.9h-1.5v-2.8h1.2c3.4,0,4.4-1.1,5.5-4.1
			l2.4-6.7l-11-30.1h3.5l9,26.3l9-26.3h3.5L1040.6,413.5z"/>
	</g>
	<path class="st1" d="M79.8,350.5c0,0-8.8,13.8-29.9,12.7c-21.1-1.1-33.5-20.3-33.5-20.3s-9,7.8-3,19.2S60.4,384.7,79.8,350.5z"/>
</g>
</svg>
