<?xml version="1.0" encoding="utf-8"?>
<!-- Generator: Adobe Illustrator 25.0.0, SVG Export Plug-In . SVG Version: 6.00 Build 0)  -->
<svg version="1.1" baseProfile="tiny" id="Calque_1"
	 xmlns="http://www.w3.org/2000/svg" xmlns:xlink="http://www.w3.org/1999/xlink" x="0px" y="0px" viewBox="0 0 55.67 51.76"
	 overflow="visible" xml:space="preserve">
<g id="Calque_1_1_">
</g>
<g>
	<path fill="#221E20" d="M34.84,47.7c-0.06-0.22-0.1-0.44-0.13-0.65c-2.41,1.27-5.14,2-8.05,2c-3.36,0-6.48-0.98-9.14-2.63
		l-1.19-0.01c2.92,2.06,6.48,3.29,10.32,3.29C29.61,49.69,32.39,48.97,34.84,47.7z"/>
	<path fill="#221E20" d="M10.05,26.9v-1.95c-0.78,1.9-1.23,3.96-1.31,6.11h0.64C9.44,29.63,9.66,28.23,10.05,26.9z"/>
	<path fill="#221E20" d="M43.94,30.87l0.63-0.19c-0.14-2.41-0.75-4.69-1.75-6.75l-0.01,1.56C43.45,27.18,43.84,28.99,43.94,30.87z"
		/>
	<path fill="#221E20" d="M23.2,14.12c-2.7,0.53-5.18,1.68-7.3,3.28h1.07c1.32-0.9,2.78-1.61,4.32-2.12L23.2,14.12z"/>
</g>
<g>
	<path fill="#FF3E51" d="M39.65,38.08H13.63c-1.2,0-2.18-0.98-2.18-2.18V21.34c0-1.2,0.98-2.18,2.18-2.18h26.02
		c1.2,0,2.18,0.98,2.18,2.18v14.57C41.83,37.11,40.85,38.08,39.65,38.08z M13.63,19.55c-0.99,0-1.79,0.8-1.79,1.79v14.57
		c0,0.99,0.8,1.79,1.79,1.79h26.02c0.99,0,1.79-0.8,1.79-1.79V21.34c0-0.99-0.8-1.79-1.79-1.79H13.63z"/>
	<path fill="#FF3E51" d="M41.63,21.54H11.64c-0.11,0-0.19-0.09-0.19-0.19s0.09-0.19,0.19-0.19h29.99c0.11,0,0.19,0.09,0.19,0.19
		S41.74,21.54,41.63,21.54z"/>
	<g>
		<path fill="#FF3E51" d="M14.78,22.64h-1.7c-0.11,0-0.19-0.09-0.19-0.19s0.09-0.19,0.19-0.19h1.7c0.11,0,0.19,0.09,0.19,0.19
			S14.88,22.64,14.78,22.64z"/>
		<path fill="#FF3E51" d="M14.78,23.31h-1.7c-0.11,0-0.19-0.09-0.19-0.19s0.09-0.19,0.19-0.19h1.7c0.11,0,0.19,0.09,0.19,0.19
			S14.88,23.31,14.78,23.31z"/>
		<path fill="#FF3E51" d="M14.78,23.98h-1.7c-0.11,0-0.19-0.09-0.19-0.19s0.09-0.19,0.19-0.19h1.7c0.11,0,0.19,0.09,0.19,0.19
			S14.88,23.98,14.78,23.98z"/>
	</g>
	<g>
		<path fill="#FF3E51" d="M38.83,20.36c0,0.09-0.07,0.17-0.17,0.17c-0.1,0-0.17-0.08-0.17-0.17c0-0.09,0.07-0.17,0.17-0.17
			C38.75,20.19,38.83,20.27,38.83,20.36z"/>
		<path fill="#FF3E51" d="M39.74,20.36c0,0.09-0.07,0.17-0.17,0.17c-0.1,0-0.17-0.08-0.17-0.17c0-0.09,0.07-0.17,0.17-0.17
			C39.66,20.19,39.74,20.27,39.74,20.36z"/>
		<path fill="#FF3E51" d="M40.65,20.36c0,0.09-0.07,0.17-0.17,0.17c-0.1,0-0.17-0.08-0.17-0.17c0-0.09,0.07-0.17,0.17-0.17
			C40.58,20.19,40.65,20.27,40.65,20.36z"/>
	</g>
	<path fill="#FF3E51" d="M36.94,20.55H13.07c-0.11,0-0.19-0.09-0.19-0.19s0.09-0.19,0.19-0.19h23.87c0.11,0,0.19,0.09,0.19,0.19
		S37.05,20.55,36.94,20.55z"/>
	<path fill="#FF3E51" d="M33.68,40.7H20.81c-0.11,0-0.19-0.09-0.19-0.19c0-0.11,0.09-0.19,0.19-0.19h12.87
		c0.11,0,0.19,0.09,0.19,0.19C33.87,40.62,33.79,40.7,33.68,40.7z"/>
	<g>
		<path fill="#FF3E51" d="M22.13,40.28c-0.01,0-0.03,0-0.04,0c-0.1-0.02-0.17-0.13-0.14-0.23l0.51-2.2c0.02-0.1,0.13-0.17,0.23-0.14
			c0.1,0.02,0.17,0.13,0.14,0.23l-0.51,2.2C22.3,40.22,22.22,40.28,22.13,40.28z"/>
		<path fill="#FF3E51" d="M31.3,40.7c-0.08,0-0.15-0.05-0.18-0.13L30.23,38c-0.03-0.1,0.02-0.21,0.12-0.24
			c0.1-0.03,0.21,0.02,0.24,0.12l0.89,2.58c0.03,0.1-0.02,0.21-0.12,0.24C31.34,40.7,31.32,40.7,31.3,40.7z"/>
	</g>
	<g>
		<polygon fill="#FFFFFF" points="41.18,42.83 43.68,40.1 43.68,32.08 36.71,32.08 36.71,43.95 		"/>
		<path fill="#FF3E51" d="M44.56,48.33H37.8c-0.71,0-1.28-0.58-1.28-1.28V33.15c0-0.71,0.58-1.28,1.28-1.28h6.76
			c0.71,0,1.28,0.58,1.28,1.28v13.89C45.84,47.75,45.27,48.33,44.56,48.33z M37.8,32.25c-0.5,0-0.9,0.4-0.9,0.9v13.89
			c0,0.5,0.4,0.9,0.9,0.9h6.76c0.5,0,0.9-0.4,0.9-0.9V33.15c0-0.5-0.4-0.9-0.9-0.9H37.8z"/>
		<path fill="#FF3E51" d="M44.21,45.89h-6.05c-0.32,0-0.58-0.26-0.58-0.58V33.49c0-0.32,0.26-0.58,0.58-0.58h6.05
			c0.32,0,0.58,0.26,0.58,0.58v11.82C44.79,45.63,44.53,45.89,44.21,45.89z M38.15,33.29c-0.11,0-0.2,0.09-0.2,0.2v11.82
			c0,0.11,0.09,0.2,0.2,0.2h6.05c0.11,0,0.2-0.09,0.2-0.2V33.49c0-0.11-0.09-0.2-0.2-0.2H38.15z"/>
		<path fill="#FF3E51" d="M41.34,47.71c-0.42,0-0.76-0.34-0.76-0.76c0-0.42,0.34-0.76,0.76-0.76c0.42,0,0.76,0.34,0.76,0.76
			C42.1,47.37,41.76,47.71,41.34,47.71z M41.34,46.57c-0.21,0-0.38,0.17-0.38,0.38c0,0.21,0.17,0.38,0.38,0.38s0.38-0.17,0.38-0.38
			C41.71,46.74,41.54,46.57,41.34,46.57z"/>
	</g>
	<g>
		<polygon fill="#FFFFFF" points="10.72,32.53 24.73,32.53 24.73,38.36 24.44,43.4 9.88,39.37 		"/>
		<path fill="#FF3E51" d="M23.64,45.06H8.62c-0.71,0-1.28-0.58-1.28-1.28V33.62c0-0.71,0.58-1.28,1.28-1.28h15.02
			c0.71,0,1.28,0.58,1.28,1.28v10.16C24.92,44.49,24.35,45.06,23.64,45.06z M8.62,32.72c-0.5,0-0.9,0.4-0.9,0.9v10.16
			c0,0.5,0.4,0.9,0.9,0.9h15.02c0.5,0,0.9-0.4,0.9-0.9V33.62c0-0.5-0.4-0.9-0.9-0.9H8.62z"/>
		<path fill="#FF3E51" d="M23.15,43.26H9.11c-0.33,0-0.6-0.27-0.6-0.6v-8.59c0-0.33,0.27-0.6,0.6-0.6h14.03c0.33,0,0.6,0.27,0.6,0.6
			v8.59C23.75,42.99,23.48,43.26,23.15,43.26z M9.11,33.85c-0.12,0-0.22,0.1-0.22,0.22v8.59c0,0.12,0.1,0.22,0.22,0.22h14.03
			c0.12,0,0.22-0.1,0.22-0.22v-8.59c0-0.12-0.1-0.22-0.22-0.22H9.11z"/>
		<path fill="#FF3E51" d="M17.21,44.13h-2.16c-0.11,0-0.19-0.09-0.19-0.19c0-0.11,0.09-0.19,0.19-0.19h2.16
			c0.11,0,0.19,0.09,0.19,0.19C17.4,44.04,17.32,44.13,17.21,44.13z"/>
	</g>
	<g>
		<path fill="#FFFFFF" d="M23.5,15.6l-4.81,1.8c0,0,1.58,2.32,1.22,3.21c-0.36,0.88,0.14,1.23,0.02,1.56
			c-0.08,0.21,0.08,0.43,0.31,0.42l10.01-0.73c0,0,9.17-4.99,11.71-4.37c0,0,1.74,1.62,2.97,1.73l-0.38-2.84L33.57,15.5L23.5,15.6z"
			/>
		<g>
			<path fill="#FF3E51" d="M24.11,25.99c-0.49,0-1.05-0.24-1.62-0.71c-0.77-0.63-1.5-1.61-2.05-2.76c-1.17-2.45-1.15-4.82,0.05-5.4
				l5.18-3l0.19,0.33l-5.2,3.01c-0.98,0.47-0.92,2.71,0.12,4.89c0.53,1.1,1.22,2.03,1.95,2.63c0.68,0.55,1.33,0.75,1.78,0.54l5.29-3
				l0.19,0.33l-5.31,3.01C24.5,25.95,24.31,25.99,24.11,25.99z"/>
			<path fill="#FF3E51" d="M29.81,22.14c-0.43,0-0.93-0.21-1.44-0.63c-0.68-0.56-1.33-1.42-1.81-2.43
				c-1.04-2.16-1.01-4.26,0.06-4.77c0.07-0.04,7.98-4.51,9.21-7.61l0.36,0.14c-0.54,1.36-2.29,3.09-5.2,5.14
				c-2.15,1.52-4.17,2.66-4.19,2.67c-0.86,0.41-0.8,2.36,0.11,4.27c0.46,0.96,1.07,1.78,1.71,2.3c0.59,0.48,1.14,0.65,1.53,0.47
				c0.3-0.19,6.54-4.08,12.02-4.25l0.01,0.38c-5.48,0.17-11.77,4.16-11.83,4.2l-0.02,0.01C30.16,22.1,29.99,22.14,29.81,22.14z"/>
			<path fill="#FF3E51" d="M29.48,22.95c-0.44,0-0.96-0.28-1.52-0.82c-0.69-0.67-1.38-1.66-1.92-2.81c-0.55-1.14-0.9-2.3-0.98-3.26
				c-0.09-1.01,0.13-1.7,0.61-1.94c0.11-0.08,0.62-0.39,1.29,0.04l-0.21,0.32c-0.51-0.33-0.86-0.05-0.86-0.05l-0.04,0.02
				c-0.34,0.16-0.49,0.73-0.41,1.57c0.08,0.91,0.42,2.02,0.94,3.12c0.53,1.1,1.18,2.06,1.84,2.69c0.61,0.58,1.15,0.82,1.48,0.66
				l0.05-0.02l0.05,0.01c0,0,0.3,0.03,0.52-0.17c0.17-0.15,0.25-0.41,0.25-0.75l0.38,0c0,0.46-0.13,0.82-0.38,1.04
				c-0.28,0.25-0.62,0.27-0.76,0.26C29.71,22.93,29.6,22.95,29.48,22.95z"/>
			<path fill="#FF3E51" d="M21.52,24.25c-0.1,0-1.11-0.03-1.77-1.1c-0.67-1.1-0.06-2.55-0.04-2.61l0.35,0.15
				c-0.01,0.01-0.56,1.34,0.01,2.26c0.56,0.91,1.41,0.92,1.44,0.92L21.52,24.25C21.53,24.25,21.53,24.25,21.52,24.25z"/>
			<path fill="#FF3E51" d="M33.07,30.34l-5.4-4.46c-0.09-0.05-0.2,0-0.21,0c-0.37,0.2-0.83,0.21-1.21,0.01l-0.93-0.48l0.18-0.34
				l0.93,0.48c0.27,0.14,0.59,0.14,0.86-0.01c0.12-0.06,0.37-0.12,0.6,0.02l0.02,0.02l5.41,4.47L33.07,30.34z"/>
			<path fill="#FF3E51" d="M34.39,28.3c-0.14-0.26-0.3-0.3-0.34-0.31c-0.23,0.04-0.46-0.03-0.63-0.18l-2.82-2.57
				c-0.13-0.12-0.21-0.27-0.25-0.44l-0.03-0.16c-0.04-0.18-0.16-0.33-0.32-0.42l-1.24-0.62l0.17-0.34l1.24,0.62
				c0.27,0.14,0.46,0.38,0.52,0.68l0.03,0.16c0.02,0.09,0.07,0.17,0.13,0.23l2.82,2.57c0.09,0.08,0.2,0.11,0.32,0.08l0.03,0
				c0.04,0,0.43-0.01,0.7,0.51L34.39,28.3z"/>
			<path fill="#FF3E51" d="M33.74,30.58c-0.26,0-0.49-0.08-0.67-0.25l0.26-0.29c0.18,0.16,0.4,0.17,0.55,0.14
				c0.29-0.04,0.53-0.21,0.59-0.32l0.02-0.03l0.6-0.68l0.29,0.25l-0.59,0.67c-0.15,0.23-0.5,0.43-0.85,0.49
				C33.87,30.58,33.81,30.58,33.74,30.58z"/>
			<path fill="#FF3E51" d="M35.73,27.82c-0.12,0-0.38-0.08-1.1-0.74l-2.82-2.57c-0.13-0.12-0.21-0.27-0.25-0.44l-0.03-0.16
				c-0.04-0.18-0.16-0.33-0.32-0.42l-1.24-0.62l0.17-0.34l1.24,0.62c0.27,0.14,0.46,0.38,0.52,0.68l0.03,0.16
				c0.02,0.09,0.07,0.17,0.13,0.23l2.82,2.57c0.36,0.32,0.74,0.61,0.85,0.64c0,0-0.01,0-0.03,0l0.08,0.37
				C35.77,27.82,35.75,27.82,35.73,27.82z"/>
			<path fill="#FF3E51" d="M20.62,18.59c-0.06,0-0.13-0.03-0.16-0.09c-0.05-0.09-0.03-0.21,0.06-0.26l2.54-1.54
				c0.09-0.06,0.21-0.03,0.26,0.06c0.05,0.09,0.03,0.21-0.06,0.26l-2.54,1.54C20.69,18.58,20.66,18.59,20.62,18.59z"/>
			<path fill="#FF3E51" d="M23.97,16.57c-0.06,0-0.13-0.03-0.16-0.09c-0.05-0.09-0.03-0.21,0.06-0.26l0.47-0.29
				c0.09-0.06,0.21-0.03,0.26,0.06c0.05,0.09,0.03,0.21-0.06,0.26l-0.47,0.29C24.04,16.56,24.01,16.57,23.97,16.57z"/>
			<path fill="#FF3E51" d="M45.74,19.03c-0.77,0-1.75-0.51-2.83-1.5c-1.39-1.27-2.83-3.18-4.04-5.39c-1.21-2.2-2.06-4.44-2.38-6.3
				c-0.34-1.92-0.07-3.23,0.76-3.69c0.83-0.45,2.08,0.02,3.52,1.34c1.39,1.27,2.83,3.18,4.04,5.39s2.06,4.44,2.38,6.3
				c0.34,1.92,0.07,3.23-0.76,3.69C46.22,18.97,45.99,19.03,45.74,19.03z M37.93,2.37c-0.19,0-0.36,0.04-0.51,0.12
				c-0.66,0.36-0.87,1.56-0.56,3.28c0.32,1.82,1.15,4.01,2.34,6.18c1.19,2.17,2.6,4.05,3.96,5.29c1.29,1.18,2.42,1.65,3.08,1.28
				c0.66-0.36,0.87-1.56,0.56-3.28c-0.32-1.82-1.15-4.01-2.34-6.18c-1.19-2.17-2.6-4.05-3.96-5.29C39.49,2.85,38.59,2.37,37.93,2.37
				z"/>
			<path fill="#FF3E51" d="M45.63,18.5c-0.77,0-1.73-0.8-2.46-1.55c-1.19-1.22-2.46-3.01-3.58-5.05c-1.12-2.03-1.95-4.06-2.34-5.72
				c-0.29-1.23-0.47-2.78,0.35-3.23c0.82-0.45,2.04,0.53,2.92,1.44c1.19,1.22,2.46,3.01,3.58,5.05c1.12,2.03,1.95,4.06,2.34,5.72
				c0.29,1.23,0.47,2.78-0.35,3.23C45.94,18.46,45.79,18.5,45.63,18.5z M38.05,3.22c-0.1,0-0.19,0.02-0.27,0.06
				c-0.46,0.25-0.52,1.3-0.16,2.81c0.39,1.63,1.21,3.62,2.31,5.63c1.1,2,2.35,3.77,3.51,4.96c1.08,1.11,2,1.62,2.46,1.37
				c0.46-0.25,0.52-1.3,0.16-2.81c-0.39-1.63-1.21-3.62-2.31-5.63c-1.1-2-2.35-3.76-3.51-4.96C39.34,3.73,38.55,3.22,38.05,3.22z"/>
			<path fill="#FF3E51" d="M42.62,13.01c-0.54,0-1.27-0.88-1.78-1.81c-0.31-0.56-0.53-1.12-0.62-1.58
				c-0.14-0.69,0.04-0.95,0.21-1.04c0.54-0.3,1.42,0.7,2,1.75c0.58,1.05,0.95,2.32,0.41,2.62C42.77,12.99,42.7,13.01,42.62,13.01z
				 M40.65,8.91c-0.01,0-0.03,0-0.04,0.01c-0.03,0.02-0.11,0.18-0.02,0.63c0.09,0.43,0.29,0.95,0.58,1.47
				c0.67,1.22,1.34,1.68,1.47,1.6c0.14-0.08,0.11-0.88-0.56-2.1l0,0C41.47,9.38,40.85,8.91,40.65,8.91z"/>
			<path fill="#FF3E51" d="M44.94,19.41c-0.01,0-0.03,0-0.04,0c-1.9-0.15-4.71-2.96-6.84-6.84c-1.22-2.22-2.05-4.47-2.34-6.36
				c-0.3-1.95,0.01-3.29,0.89-3.77l0.01-0.01l0.64-0.29l0.16,0.35l-0.63,0.29c-0.71,0.39-0.96,1.62-0.69,3.37
				c0.29,1.84,1.1,4.06,2.3,6.23c2.04,3.71,4.78,6.5,6.53,6.64c0.21,0.01,0.97-0.32,1.31-0.5l0.18,0.34
				C46.41,18.86,45.39,19.41,44.94,19.41z"/>
			
				<rect x="38.65" y="8.91" transform="matrix(0.9317 -0.3633 0.3633 0.9317 -0.5991 15.0155)" fill="#FF3E51" width="1.94" height="0.38"/>
			
				<rect x="40.95" y="13.17" transform="matrix(0.8125 -0.583 0.583 0.8125 0.0738 26.9561)" fill="#FF3E51" width="1.98" height="0.38"/>
			<path fill="#FF3E51" d="M21.81,25.65l-0.27-0.28c0.34-0.32,0.3-0.76,0.3-0.78l0.38-0.04C22.22,24.59,22.28,25.2,21.81,25.65z"/>
			<path fill="#FF3E51" d="M18.3,28.21c-1.29,0-2.22-0.58-2.8-1.09c-0.19-0.17-0.3-0.4-0.3-0.65c-0.01-0.25,0.09-0.48,0.26-0.66
				c0.31-0.31,0.8-0.35,1.16-0.1c0.68,0.49,1.97,1.25,2.91,0.9c0.8-0.3,1.24-0.78,1.47-1.13c0.1-0.15,0.26-0.26,0.44-0.28
				c0.18-0.03,0.36,0.02,0.5,0.14h0c0.25,0.21,0.31,0.57,0.13,0.85c-0.44,0.66-1.46,1.8-3.26,2C18.63,28.2,18.46,28.21,18.3,28.21z
				 M16.1,25.93c-0.13,0-0.26,0.05-0.36,0.15c-0.1,0.1-0.16,0.24-0.15,0.38c0,0.14,0.07,0.28,0.17,0.37c0.59,0.53,1.59,1.13,3,0.97
				c1.65-0.19,2.58-1.23,2.99-1.83c0.07-0.11,0.05-0.25-0.05-0.34c-0.06-0.05-0.13-0.07-0.2-0.05c-0.07,0.01-0.13,0.05-0.17,0.11
				c-0.26,0.4-0.76,0.95-1.66,1.28c-1.1,0.41-2.52-0.42-3.26-0.95C16.31,25.96,16.2,25.93,16.1,25.93z"/>
			<g>
				<path fill="#FF3E51" d="M35.46,29.44c-0.28,0-0.58-0.08-0.9-0.23l0.16-0.35c0.5,0.23,0.92,0.25,1.26,0.05
					c0.86-0.52,0.99-2.28,1-2.42c-0.09-1.44-1.08-1.95-1.12-1.97l0.17-0.34c0.05,0.02,1.24,0.62,1.33,2.3l0,0.01l0,0.01
					c0,0.09-0.11,2.1-1.18,2.74C35.95,29.38,35.71,29.44,35.46,29.44z"/>
				<g>
					<g>
						<path fill="#FFFFFF" d="M30.77,21.66c0,0,2.56-1.17,2.52,1.04"/>
						<path fill="#FF3E51" d="M33.48,22.7l-0.38-0.01c0.01-0.49-0.12-0.83-0.38-1c-0.52-0.34-1.52-0.01-1.87,0.14l-0.16-0.35
							c0.06-0.03,1.43-0.64,2.24-0.11C33.3,21.62,33.49,22.07,33.48,22.7z"/>
					</g>
					<g>
						<path fill="#FFFFFF" d="M35.31,26.67l-2.35,1.37c-0.71,0.6-1.78-0.08-2.15-0.93c-0.02-0.05-0.01-0.03-0.03-0.08l1.79-2.91
							l-1.49-0.09l0.04-0.94"/>
						<path fill="#FF3E51" d="M32.34,28.46c-0.1,0-0.2-0.01-0.3-0.04c-0.57-0.13-1.14-0.63-1.41-1.24
							c-0.01-0.03-0.02-0.05-0.03-0.08L30.56,27l1.67-2.71l-1.35-0.08l0.05-1.13l0.38,0.02l-0.03,0.76l1.62,0.1l-1.91,3.1
							c0.22,0.49,0.69,0.9,1.13,1.01c0.27,0.06,0.51,0.01,0.71-0.16l0.03-0.02l2.35-1.37l0.19,0.33l-2.34,1.36
							C32.85,28.37,32.61,28.46,32.34,28.46z"/>
					</g>
					<g>
						<path fill="#FFFFFF" d="M30.76,22.96l0.17,1.03c-0.04,0.28-0.15,0.55-0.33,0.78l-0.46,0.77c-0.28,0.35-0.21,0.88,0.11,1.18
							l0,0c0.47,0.44,1.2,0.43,1.65-0.03l0.46-0.55c0.38-0.39,0.61-0.89,0.67-1.43l0.23-2.4l0.49,0.33c0.57,0.38,0.9,1.03,0.89,1.72
							L34.6,26.1c-0.01,0.44-0.22,0.84-0.57,1.11l-1.11,0.83c-0.43,0.32-0.4,0.98,0.05,1.26h0c0.45,0.28,1.03,0.28,1.48,0
							c0.18-0.11,0.41-0.25,0.7-0.41c1.2-0.66,1.14-2.08,1.14-2.08s0.48-2.89-1.79-3.39"/>
						<path fill="#FF3E51" d="M33.71,29.7c-0.29,0-0.58-0.08-0.84-0.24c-0.27-0.17-0.44-0.46-0.45-0.77
							c-0.01-0.32,0.13-0.62,0.38-0.81l1.11-0.83c0.3-0.23,0.48-0.58,0.49-0.96l0.03-1.75c0.01-0.62-0.29-1.2-0.81-1.55l-0.22-0.15
							l-0.2,2.08c-0.06,0.58-0.31,1.13-0.71,1.54l-0.46,0.56c-0.52,0.53-1.38,0.55-1.92,0.04c-0.4-0.38-0.46-1.01-0.14-1.43
							l0.47-0.78c0.15-0.19,0.25-0.42,0.28-0.66l-0.17-1l0.38-0.06l0.18,1.06l0,0.03c-0.04,0.31-0.16,0.61-0.36,0.86l-0.47,0.78
							c-0.21,0.26-0.17,0.68,0.09,0.92c0.39,0.37,1,0.36,1.38-0.02L32.22,26c0.35-0.36,0.57-0.82,0.61-1.32l0.26-2.72l0.76,0.51
							c0.29,0.2,0.53,0.46,0.7,0.76l0-0.01c2.31,0.52,1.97,3.32,1.94,3.59c0,0.19-0.01,1.56-1.24,2.24c-0.26,0.15-0.5,0.28-0.69,0.4
							C34.3,29.62,34.01,29.7,33.71,29.7z M34.74,23.68c0.06,0.22,0.1,0.44,0.09,0.67l-0.03,1.75c-0.01,0.5-0.25,0.96-0.65,1.26
							l-1.11,0.83c-0.15,0.12-0.24,0.29-0.23,0.48c0.01,0.19,0.11,0.36,0.27,0.46c0.4,0.24,0.88,0.24,1.28,0
							c0.2-0.13,0.44-0.27,0.71-0.41c1.08-0.6,1.04-1.85,1.04-1.91l0-0.02l0-0.02c0-0.01,0.11-0.7-0.04-1.45
							C35.88,24.48,35.44,23.92,34.74,23.68z"/>
					</g>
				</g>
			</g>
			<path fill="#FF3E51" d="M30.2,35.79c-0.25,0-0.51-0.03-0.76-0.08c-2.01-0.42-1.91-2.17-1.91-2.19l0-0.02l1.25-6.67
				c0.02-0.1,0.12-0.17,0.22-0.15c0.1,0.02,0.17,0.12,0.15,0.22l-1.25,6.66c-0.01,0.14-0.01,1.44,1.61,1.78
				c0.59,0.12,1.2,0.08,1.8-0.12c0.72-0.24,1.26-0.86,1.41-1.62l0.31-1.59l0.34-1.69c0.02-0.1,0.12-0.17,0.23-0.15
				c0.1,0.02,0.17,0.12,0.15,0.23l-0.34,1.69l-0.31,1.59c-0.17,0.89-0.81,1.62-1.66,1.91C31.04,35.72,30.62,35.79,30.2,35.79z"/>
		</g>
		<path fill="#FF3E51" d="M41.63,10.96c-0.07,0-0.13-0.03-0.17-0.09c-0.05-0.09-0.02-0.21,0.07-0.26l9.99-5.94
			c0.09-0.05,0.21-0.02,0.26,0.07c0.05,0.09,0.02,0.21-0.07,0.26l-9.99,5.94C41.7,10.95,41.67,10.96,41.63,10.96z"/>
		<path fill="#FF3E51" d="M51.91,13.42l-6.24-4.97c-0.08-0.07-0.1-0.19-0.03-0.27c0.07-0.08,0.19-0.1,0.27-0.03l5.51,4.39
			l-0.84-7.18c-0.01-0.11,0.06-0.2,0.17-0.21c0.11-0.01,0.2,0.06,0.21,0.17L51.91,13.42z"/>
		<g>
			<path fill="#FF3E51" d="M31.98,19.29c-0.09,0-0.17-0.06-0.19-0.16l-0.46-2.48c-0.02-0.1,0.05-0.2,0.15-0.22
				c0.1-0.02,0.2,0.05,0.22,0.15l0.46,2.48c0.02,0.1-0.05,0.2-0.15,0.22C32,19.29,31.99,19.29,31.98,19.29z"/>
			<path fill="#FF3E51" d="M33.14,18.13c-0.02,0-0.04,0-0.06-0.01c-0.1-0.03-0.16-0.14-0.12-0.24l0.33-0.99l-1.03-0.12
				c-0.11-0.01-0.18-0.11-0.17-0.21c0.01-0.11,0.11-0.18,0.21-0.17l1.27,0.15c0.06,0.01,0.11,0.04,0.14,0.09
				c0.03,0.05,0.04,0.11,0.02,0.16l-0.4,1.21C33.29,18.07,33.22,18.13,33.14,18.13z"/>
			<path fill="#FF3E51" d="M31.28,19.31c-0.01,0-0.02,0-0.02,0l-1.27-0.15c-0.06-0.01-0.11-0.04-0.14-0.09
				c-0.03-0.05-0.04-0.11-0.02-0.16l0.4-1.21c0.03-0.1,0.14-0.15,0.24-0.12c0.1,0.03,0.16,0.14,0.12,0.24l-0.33,0.99l1.03,0.12
				c0.11,0.01,0.18,0.11,0.17,0.21C31.46,19.23,31.37,19.31,31.28,19.31z"/>
		</g>
		<path fill="#FF3E51" d="M52.19,5.31c-0.14,0-0.29-0.04-0.41-0.11c-0.19-0.11-0.33-0.29-0.39-0.51c-0.06-0.21-0.03-0.44,0.08-0.63
			c0.11-0.19,0.29-0.33,0.51-0.39c0.44-0.12,0.9,0.14,1.02,0.59l0,0c0.06,0.21,0.03,0.44-0.08,0.63c-0.11,0.19-0.29,0.33-0.51,0.39
			C52.34,5.3,52.26,5.31,52.19,5.31z M52.19,4.03c-0.04,0-0.08,0.01-0.12,0.02c-0.12,0.03-0.21,0.11-0.27,0.21
			c-0.06,0.1-0.08,0.23-0.04,0.34c0.03,0.12,0.11,0.21,0.21,0.27c0.1,0.06,0.23,0.08,0.34,0.04c0.12-0.03,0.21-0.11,0.27-0.21
			c0.06-0.1,0.08-0.23,0.04-0.34l0,0C52.57,4.16,52.39,4.03,52.19,4.03z"/>
	</g>
</g>
<path fill="#FF3E51" d="M27.69,33.66c-0.03,0-0.05-0.01-0.08-0.02l-1.09-0.49c-0.1-0.04-0.14-0.16-0.1-0.25
	c0.04-0.1,0.16-0.14,0.25-0.1l1.09,0.49c0.1,0.04,0.14,0.16,0.1,0.25C27.83,33.61,27.76,33.66,27.69,33.66z"/>
<path fill="#FF3E51" d="M34.59,35.16c-0.02,0-0.04,0-0.07-0.01l-1.89-0.69c-0.1-0.04-0.15-0.15-0.11-0.25
	c0.04-0.1,0.15-0.15,0.25-0.11l1.89,0.69c0.1,0.04,0.15,0.15,0.11,0.25C34.74,35.11,34.67,35.16,34.59,35.16z"/>
</svg>
