<?xml version="1.0" encoding="utf-8"?>
<!-- Generator: Adobe Illustrator 25.0.0, SVG Export Plug-In . SVG Version: 6.00 Build 0)  -->
<svg version="1.1" baseProfile="tiny" xmlns="http://www.w3.org/2000/svg" xmlns:xlink="http://www.w3.org/1999/xlink" x="0px"
	 y="0px" viewBox="0 0 55.67 51.76" overflow="visible" xml:space="preserve">
<g id="Calque_1">
</g>
<g id="Calque_2">
	<g>
		<g>
			<g>
				<path fill="#221E20" d="M8.99,31.33c0.27-0.26,0.54-0.5,0.8-0.72c0.28-6.31,3.94-11.74,9.23-14.51v-0.85
					C13.1,18.19,9.01,24.28,8.99,31.33z"/>
				<path fill="#221E20" d="M32.95,48.37l-0.15-0.76c-1.81,0.65-3.76,1.02-5.79,1.02c-4.62,0-8.81-1.84-11.91-4.8l-0.63,0.46
					c3.25,3.15,7.67,5.11,12.54,5.11C29.1,49.4,31.09,49.02,32.95,48.37z"/>
				<path fill="#221E20" d="M35.74,15.63v0.9c5.09,3,8.52,8.53,8.52,14.85c0,1.7-0.26,3.35-0.72,4.9l0.67,0.46
					c0.53-1.69,0.81-3.49,0.81-5.36C45.03,24.61,41.28,18.71,35.74,15.63z"/>
			</g>
		</g>
		<g>
			<g>
				<path fill="#FFFFFF" d="M13.43,25.39V37.5l11.78,3.67c1.62,0.51,3.37,0.49,4.98-0.04l9.76-3.23V24.58c0-0.63-0.59-1.09-1.2-0.93
					l-8.45,2.23c-1.6,0.42-3.27,0.45-4.88,0.09l-9.93-2.23C14.44,23.51,13.43,24.31,13.43,25.39z"/>
				<path fill="#FF3E51" d="M27.64,41.74c-0.83,0-1.67-0.13-2.48-0.38l-11.78-3.67c-0.08-0.02-0.13-0.1-0.13-0.18V25.39
					c0-0.57,0.26-1.11,0.71-1.47c0.45-0.36,1.03-0.49,1.59-0.37l9.93,2.23c1.57,0.35,3.23,0.32,4.79-0.09l8.45-2.23
					c0.35-0.09,0.71-0.02,0.99,0.2c0.28,0.22,0.45,0.55,0.45,0.91v13.33c0,0.08-0.05,0.16-0.13,0.18l-9.76,3.23
					C29.4,41.6,28.52,41.74,27.64,41.74z M13.63,37.36l11.65,3.63c1.59,0.5,3.28,0.48,4.86-0.04l9.63-3.18V24.58
					c0-0.24-0.11-0.46-0.3-0.61c-0.19-0.15-0.43-0.19-0.66-0.13l-8.45,2.23c-1.62,0.43-3.34,0.46-4.97,0.09l-9.93-2.23
					c-0.45-0.1-0.91,0.01-1.26,0.29c-0.36,0.29-0.56,0.71-0.56,1.17V37.36z"/>
			</g>
			<g>
				<polyline fill="#FFFFFF" points="39.13,23.61 27.82,21.52 14.84,23.73 				"/>
				<path fill="#FF3E51" d="M14.87,23.92l-0.06-0.38l12.98-2.21c0.02,0,0.04,0,0.07,0l11.31,2.09l-0.07,0.38l-11.28-2.09
					L14.87,23.92z"/>
			</g>
			<path fill-rule="evenodd" fill="#FF3E51" d="M34.26,27.31c-1.93,0.25-3.49,2.47-3.49,4.95c0,2.48,1.56,4.01,3.49,3.42
				c1.93-0.59,3.49-2.81,3.49-4.95C37.75,28.59,36.19,27.06,34.26,27.31z M34.26,27.61c0.6-0.08,1.15,0.03,1.63,0.29l-2.96,3.08
				l-0.63-2.29C32.85,28.11,33.53,27.71,34.26,27.61z M31.02,32.2c0-1.23,0.42-2.41,1.08-3.26l1.13,4.07l-2.04,0.5
				C31.08,33.12,31.02,32.68,31.02,32.2z M34.26,35.37c-1.33,0.4-2.46-0.26-2.97-1.57l3.66-0.92l-0.63,2.47
				C34.3,35.36,34.28,35.36,34.26,35.37z M34.58,35.25l1.13-4.37l1.65,0.99C36.99,33.35,35.9,34.71,34.58,35.25z M34.47,29.71
				l1.65-1.68c0.84,0.53,1.38,1.53,1.38,2.75c0,0.26-0.03,0.53-0.07,0.79L34.47,29.71z"/>
			<path fill-rule="evenodd" fill="#FF3E51" d="M37.24,25.28v1.06c0,0.19,0.19,0.33,0.37,0.27l1.54-0.5c0.12-0.04,0.2-0.15,0.2-0.27
				v-0.98c0-0.19-0.18-0.32-0.36-0.27l-1.54,0.41C37.32,25.04,37.24,25.15,37.24,25.28z"/>
			
				<ellipse transform="matrix(0.076 -0.9971 0.9971 0.076 8.8691 63.6787)" fill-rule="evenodd" fill="#FF3E51" cx="38.79" cy="27.05" rx="0.39" ry="0.32"/>
			<g>
				<g>
					<path fill="#FFFFFF" d="M17.14,33.57c0.78,0.9,2.05,1.12,3.07,0.63c1.28-0.15,2.02-1.12,2.02-2.45c0-1.92-1.75-3.27-3.45-2.45
						c-1.21,0.14-2.16,1.12-2.27,2.33"/>
					<path fill="#FF3E51" d="M19.09,34.65c-0.78,0-1.55-0.33-2.1-0.95l0.29-0.25c0.71,0.81,1.88,1.05,2.84,0.58
						c0.02-0.01,0.04-0.02,0.06-0.02c1.14-0.13,1.85-1,1.85-2.26c0-0.91-0.44-1.74-1.14-2.18c-0.62-0.39-1.36-0.42-2.04-0.09
						c-0.02,0.01-0.04,0.02-0.06,0.02c-1.12,0.13-2,1.04-2.1,2.16l-0.38-0.03c0.12-1.29,1.13-2.34,2.41-2.5
						c0.79-0.37,1.66-0.33,2.38,0.12c0.83,0.52,1.32,1.46,1.32,2.51c0,1.46-0.83,2.46-2.16,2.64
						C19.89,34.56,19.49,34.65,19.09,34.65z"/>
				</g>
				<g>
					<path fill="#FFFFFF" d="M18.79,29.32c2.1,0.16,3.25,2.54,2.1,4.29c0,0-0.28,0.43-0.68,0.59"/>
					<path fill="#FF3E51" d="M20.28,34.38l-0.14-0.36c0.28-0.11,0.52-0.41,0.59-0.51c0.51-0.76,0.57-1.72,0.16-2.55
						c-0.41-0.83-1.2-1.37-2.11-1.44l0.03-0.38c1.05,0.08,1.96,0.7,2.43,1.66c0.47,0.96,0.4,2.05-0.18,2.93
						C21.04,33.74,20.73,34.21,20.28,34.38z"/>
				</g>
				<g>
					<path fill="#FFFFFF" d="M14.35,34.28l1.57-0.45l3.03-0.87c0.45-0.16,0.7-0.58,0.67-1.09c-0.07-0.73-0.86-1.19-1.5-0.86
						l-2.66,0.83l-1.57,0.46"/>
					<path fill="#FF3E51" d="M14.41,34.47L14.3,34.1l1.57-0.45l3.03-0.87c0.35-0.13,0.55-0.46,0.53-0.89
						c-0.03-0.28-0.2-0.54-0.46-0.68c-0.25-0.14-0.53-0.14-0.77-0.02c-0.01,0-0.02,0.01-0.03,0.01l-2.66,0.83l-1.58,0.46l-0.11-0.37
						l1.57-0.46l2.64-0.83c0.35-0.17,0.76-0.16,1.11,0.03c0.37,0.2,0.61,0.57,0.65,0.99c0.04,0.61-0.26,1.1-0.79,1.28L14.41,34.47z"
						/>
				</g>
				<g>
					<path fill="#FFFFFF" d="M13.13,43.39l1.02-0.84c0.25-0.21,0.39-0.52,0.39-0.84l-0.08-8.27c-0.01-0.6-0.32-1.15-0.82-1.47h0
						c-0.54-0.34-0.84-0.44-1.25-0.39l-1.14,0.31"/>
					<path fill="#FF3E51" d="M13.26,43.53l-0.24-0.3l1.02-0.84c0.21-0.17,0.32-0.42,0.32-0.69l-0.08-8.27
						c0-0.54-0.28-1.03-0.73-1.31c-0.52-0.32-0.77-0.41-1.11-0.36l-1.12,0.31l-0.1-0.37l1.14-0.31c0.01,0,0.02,0,0.03-0.01
						c0.5-0.07,0.85,0.09,1.38,0.42c0.56,0.36,0.91,0.97,0.91,1.63l0.08,8.27c0.01,0.38-0.16,0.75-0.46,0.99L13.26,43.53z"/>
				</g>
				<g>
					<path fill="#FFFFFF" d="M10.78,43.06c0.45,0.56,1.16,0.85,1.78,0.66c0,0,0.81-0.29,1.06-0.99c0.16-0.42,0.12,0.13-0.19-9.36
						c-0.01-0.21-0.06-0.41-0.13-0.6c-0.32-0.71-1.11-0.93-1.11-0.93c-1.09-0.27-2.09,0.56-2.05,1.64L10.38,41"/>
					<path fill="#FF3E51" d="M12.17,43.97c-0.56,0-1.14-0.29-1.54-0.79l0.3-0.24c0.41,0.52,1.05,0.75,1.57,0.6l0,0
						c0,0,0.72-0.27,0.93-0.87l0.02-0.06c0.09-0.22,0.08-0.3-0.05-4.21c-0.04-1.25-0.1-2.88-0.17-5.02
						c-0.01-0.18-0.05-0.36-0.12-0.52c-0.28-0.62-0.97-0.82-0.98-0.83c-0.45-0.11-0.92-0.01-1.28,0.28
						c-0.35,0.29-0.55,0.71-0.53,1.16L10.57,41l-0.38,0.01l-0.25-7.52c-0.02-0.57,0.23-1.11,0.67-1.47c0.45-0.37,1.04-0.5,1.62-0.36
						c0.04,0.01,0.88,0.26,1.23,1.04c0.09,0.22,0.14,0.44,0.15,0.67c0.07,2.14,0.13,3.77,0.17,5.02c0.14,4.07,0.14,4.07,0.02,4.36
						L13.8,42.8c-0.28,0.78-1.14,1.1-1.17,1.11C12.47,43.95,12.32,43.97,12.17,43.97z"/>
				</g>
				<g>
					<path fill="#FFFFFF" d="M9.48,40.24c-1.28,0.2-6.96,1.01-7.17,1.07c-1.16,0.35-1.82,1.57-1.47,2.73
						c0.35,1.16,1.57,1.82,2.74,1.47l5.9-2.12l1.72-0.52c0.45-0.14,0.32-0.1,0.61-0.18c0.65-0.2,1.09-0.85,0.98-1.56
						c-0.12-0.75-0.83-1.28-1.6-1.16C10.59,40.07,9.7,40.21,9.48,40.24"/>
					<path fill="#FF3E51" d="M2.95,45.8c-1.03,0-1.98-0.67-2.29-1.7C0.29,42.85,1,41.51,2.26,41.13c0.13-0.04,1.64-0.26,4.12-0.62
						c1.31-0.19,2.55-0.37,3.07-0.45h0l1.7-0.27c0.87-0.14,1.68,0.46,1.82,1.32c0.12,0.78-0.35,1.54-1.11,1.77l-2.33,0.7L3.65,45.7
						C3.42,45.77,3.18,45.8,2.95,45.8z M11.4,40.15c-0.06,0-0.13,0-0.19,0.01l-1.7,0.27l0,0c-0.52,0.08-1.76,0.26-3.07,0.46
						c-1.74,0.26-3.92,0.57-4.07,0.61c-1.05,0.32-1.65,1.44-1.34,2.5c0.32,1.06,1.44,1.66,2.5,1.34l5.89-2.12l2.33-0.71
						c0.57-0.17,0.94-0.75,0.84-1.34C12.5,40.57,11.99,40.15,11.4,40.15z"/>
				</g>
				<g>
					<path fill="#FFFFFF" d="M2.01,41.42c2.25-0.82,4.47,2.74,1.57,4.09"/>
					<path fill="#FF3E51" d="M3.67,45.69L3.5,45.34c1.32-0.62,1.44-1.68,1.12-2.47c-0.49-1.19-1.68-1.59-2.54-1.27l-0.13-0.36
						c1.03-0.37,2.44,0.08,3.03,1.49C5.58,44.18,4.65,45.23,3.67,45.69z"/>
				</g>
			</g>
			<g>
				<path fill="#FFFFFF" d="M38.14,35.71c0,0,6.9,1.86,7.76,6.38c0.1,0.53-0.16,1.07-0.64,1.33l-9.31,5.02
					c-0.41,0.22-0.92-0.07-0.94-0.54c-0.07-2.07-0.83-6.69-5.94-9.07l0,0v-0.11c0-0.3,0.2-0.57,0.5-0.65l8.77-2.41
					c0.13-0.04,0.27,0.06,0.27,0.2l0,0"/>
				<path fill="#FF3E51" d="M35.65,48.71c-0.14,0-0.28-0.04-0.41-0.11c-0.25-0.14-0.4-0.4-0.41-0.69c-0.06-1.89-0.76-6.54-5.83-8.91
					c-0.07-0.03-0.11-0.1-0.11-0.17v-0.11c0-0.39,0.26-0.73,0.64-0.84l8.77-2.41c0.12-0.03,0.25-0.01,0.35,0.07
					c0.06,0.04,0.1,0.1,0.13,0.17c0.66,0.22,1.81,0.65,3.02,1.33c2.45,1.38,3.93,3.11,4.29,5.02c0.12,0.62-0.18,1.24-0.73,1.54
					l-9.31,5.02C35.92,48.67,35.78,48.71,35.65,48.71z M29.27,38.71c5.16,2.47,5.87,7.24,5.94,9.19c0.01,0.16,0.09,0.29,0.22,0.37
					c0.13,0.08,0.3,0.08,0.43,0.01l9.31-5.02c0.41-0.22,0.62-0.67,0.54-1.13c-0.79-4.15-6.95-6.04-7.57-6.22l-8.51,2.34
					C29.42,38.31,29.27,38.49,29.27,38.71z"/>
			</g>
			<path fill="#FF3E51" d="M36.86,44.72c-0.09,0-0.19-0.02-0.28-0.06c-0.18-0.08-0.32-0.24-0.37-0.43c-1.17-4.1-5.77-6.22-5.81-6.24
				c-0.1-0.04-0.14-0.16-0.1-0.25c0.04-0.1,0.16-0.14,0.25-0.1c0.2,0.09,4.81,2.21,6.03,6.49c0.02,0.08,0.08,0.15,0.16,0.19
				c0.08,0.04,0.17,0.03,0.25,0l6.64-3.26c0.07-0.04,0.12-0.1,0.15-0.18c0.02-0.08,0.01-0.16-0.03-0.23
				c-0.53-0.85-2.26-2.96-6.86-4.34c-0.1-0.03-0.16-0.14-0.13-0.24s0.14-0.16,0.24-0.13c1.58,0.47,5.42,1.86,7.08,4.51
				c0.1,0.16,0.13,0.35,0.08,0.54c-0.05,0.18-0.18,0.33-0.35,0.41l-6.64,3.26C37.07,44.7,36.97,44.72,36.86,44.72z"/>
			<g>
				<g>
					<g>
						<path fill="#FFFFFF" d="M25.16,17.78v6.04c0,0.37,0.25,0.69,0.61,0.78l1.16,0.29c0.39,0.1,0.81,0.09,1.2-0.02l2.03-0.57
							c0.34-0.1,0.58-0.41,0.58-0.76v-5.76"/>
						<path fill="#FF3E51" d="M27.5,25.15c-0.21,0-0.41-0.02-0.61-0.08l-1.16-0.29c-0.45-0.11-0.76-0.51-0.76-0.97v-6.04h0.38v6.04
							c0,0.28,0.19,0.53,0.47,0.6l1.16,0.29c0.36,0.09,0.74,0.08,1.1-0.02l2.03-0.57c0.26-0.07,0.44-0.31,0.44-0.58v-5.76h0.38v5.76
							c0,0.44-0.3,0.83-0.72,0.95l-2.03,0.57C27.96,25.12,27.73,25.15,27.5,25.15z"/>
					</g>
					<path fill="#FFFFFF" stroke="#FF3E51" stroke-width="3" stroke-linejoin="round" stroke-miterlimit="1" d="M27.5,25.21"/>
					<path fill="#FFFFFF" stroke="#FF3E51" stroke-width="3" stroke-linejoin="round" stroke-miterlimit="1" d="M27.5,20.45"/>
				</g>
				<g>
					<g>
						<g>
							<path fill="#FFFFFF" d="M20.84,11.18v6.19c0,0.49,0.34,0.92,0.82,1.03l3.45,0.79c0.17,0.04,0.35,0.03,0.52-0.01l7.68-2.15
								c0.46-0.13,0.77-0.54,0.77-1.02v-5.35c0-0.56-0.44-1.03-1.01-1.05l-5.45-0.25c-0.06,0-0.13,0-0.19,0.01l-5.67,0.77
								C21.22,10.2,20.84,10.65,20.84,11.18z"/>
							<path fill="#FF3E51" d="M25.34,19.4c-0.09,0-0.19-0.01-0.28-0.03l-3.45-0.79c-0.57-0.13-0.97-0.63-0.97-1.22v-6.19
								c0-0.62,0.46-1.15,1.08-1.24l5.67-0.77c0.07-0.01,0.15-0.01,0.22-0.01l5.45,0.25c0.67,0.03,1.19,0.58,1.19,1.25V16
								c0,0.56-0.37,1.05-0.91,1.2l-7.68,2.15C25.56,19.38,25.45,19.4,25.34,19.4z M27.56,9.54c-0.04,0-0.08,0-0.12,0.01l-5.67,0.77
								c-0.43,0.06-0.75,0.43-0.75,0.85v6.19c0,0.41,0.28,0.75,0.67,0.84l3.45,0.79c0.14,0.03,0.29,0.03,0.42-0.01l7.68-2.15
								c0.37-0.1,0.63-0.45,0.63-0.83v-5.35c0-0.46-0.36-0.84-0.82-0.86L27.6,9.54C27.58,9.54,27.57,9.54,27.56,9.54z"/>
						</g>
						<g>
							<path fill="#FFFFFF" d="M25.36,19.24v-7.45c0-0.52,0.38-0.96,0.9-1.04l7.25-1.03"/>
							<path fill="#FF3E51" d="M25.55,19.24h-0.38v-7.45c0-0.62,0.45-1.14,1.06-1.23l7.25-1.03l0.05,0.38l-7.25,1.03
								c-0.42,0.06-0.73,0.42-0.73,0.85V19.24z"/>
						</g>
					</g>
				</g>
				<g>
					<path fill="#FF3E51" d="M26.91,17.22C26.91,17.22,26.9,17.22,26.91,17.22c-0.11,0-0.19-0.09-0.19-0.19L26.77,13
						c0-0.11,0.09-0.19,0.19-0.19c0.11,0,0.19,0.09,0.19,0.19l-0.05,4.03C27.1,17.14,27.01,17.22,26.91,17.22z"/>
					<path fill="#FF3E51" d="M28.12,16.88C28.11,16.88,28.11,16.88,28.12,16.88c-0.11,0-0.19-0.09-0.19-0.19l0.05-3.92
						c0-0.11,0.09-0.19,0.19-0.19c0,0,0,0,0,0c0.11,0,0.19,0.09,0.19,0.19l-0.05,3.92C28.31,16.8,28.22,16.88,28.12,16.88z"/>
					<path fill="#FF3E51" d="M29.3,16.58C29.3,16.58,29.3,16.58,29.3,16.58c-0.11,0-0.19-0.09-0.19-0.19l0.05-3.84
						c0-0.11,0.09-0.19,0.19-0.19c0.11,0,0.19,0.09,0.19,0.19l-0.05,3.84C29.49,16.5,29.41,16.58,29.3,16.58z"/>
					<path fill="#FF3E51" d="M30.51,16.24C30.51,16.24,30.51,16.24,30.51,16.24c-0.11,0-0.19-0.09-0.19-0.19l0.05-3.74
						c0-0.11,0.09-0.19,0.19-0.19c0.11,0,0.19,0.09,0.19,0.19l-0.05,3.74C30.7,16.16,30.62,16.24,30.51,16.24z"/>
					<path fill="#FF3E51" d="M31.64,15.91C31.64,15.91,31.64,15.91,31.64,15.91c-0.11,0-0.19-0.09-0.19-0.19l0.05-3.63
						c0-0.11,0.09-0.19,0.19-0.19c0.11,0,0.19,0.09,0.19,0.19l-0.05,3.63C31.83,15.83,31.75,15.91,31.64,15.91z"/>
					<path fill="#FF3E51" d="M32.74,15.59C32.74,15.59,32.74,15.59,32.74,15.59c-0.11,0-0.19-0.09-0.19-0.19l0.05-3.52
						c0-0.11,0.09-0.19,0.19-0.19c0.11,0,0.19,0.09,0.19,0.19l-0.05,3.52C32.93,15.51,32.85,15.59,32.74,15.59z"/>
				</g>
				<g>
					<line fill="#FFFFFF" x1="27.5" y1="18.83" x2="27.5" y2="23.62"/>
					<path fill="#FF3E51" d="M27.5,23.81c-0.11,0-0.19-0.09-0.19-0.19v-4.79c0-0.11,0.09-0.19,0.19-0.19s0.19,0.09,0.19,0.19v4.79
						C27.7,23.73,27.61,23.81,27.5,23.81z"/>
				</g>
			</g>
			<path fill="#FF3E51" d="M29.67,39.62c-0.16,0-0.31-0.05-0.44-0.14c-0.21-0.15-0.34-0.39-0.34-0.65h0.38
				c0,0.14,0.06,0.26,0.18,0.33c0.11,0.08,0.25,0.09,0.37,0.04l0.14-0.06l0.14,0.36l-0.14,0.06C29.86,39.6,29.77,39.62,29.67,39.62z
				"/>
		</g>
	</g>
</g>
</svg>
