<?xml version="1.0" encoding="utf-8"?>
<!-- Generator: Adobe Illustrator 25.0.0, SVG Export Plug-In . SVG Version: 6.00 Build 0)  -->
<svg version="1.1" baseProfile="tiny" xmlns="http://www.w3.org/2000/svg" xmlns:xlink="http://www.w3.org/1999/xlink" x="0px"
	 y="0px" viewBox="0 0 55.67 51.76" overflow="visible" xml:space="preserve">
<g id="Calque_1">
</g>
<g id="Calque_2">
	<g>
		<g>
			<g>
				<path fill="#FF4438" d="M31.5,13.33c-0.06,0-0.13-0.02-0.18-0.05l-0.47-0.25c-0.01,0-0.01,0-0.02,0l-0.47,0.25
					c-0.13,0.07-0.29,0.06-0.42-0.03c-0.12-0.09-0.18-0.24-0.16-0.39l0.09-0.52c0-0.01,0-0.01-0.01-0.02l-0.38-0.37
					c-0.11-0.11-0.15-0.26-0.1-0.4c0.05-0.14,0.17-0.25,0.32-0.27l0.52-0.08c0.01,0,0.01,0,0.01-0.01l0.23-0.47
					c0.07-0.14,0.2-0.22,0.35-0.22c0,0,0,0,0,0c0.15,0,0.29,0.08,0.35,0.22v0l0.23,0.47c0,0.01,0.01,0.01,0.01,0.01l0.52,0.08
					c0.15,0.02,0.27,0.12,0.32,0.27c0.05,0.14,0.01,0.3-0.1,0.4l-0.38,0.37c0,0-0.01,0.01-0.01,0.02l0.09,0.52
					c0.03,0.15-0.03,0.3-0.16,0.39C31.66,13.3,31.58,13.33,31.5,13.33z M30.84,12.66c0.06,0,0.13,0.02,0.18,0.05l0.47,0.25
					c0,0,0.01,0.01,0.02,0c0.01-0.01,0.01-0.01,0.01-0.02l-0.09-0.52c-0.02-0.13,0.02-0.26,0.11-0.35l0.38-0.37
					c0,0,0.01-0.01,0-0.02c0-0.01-0.01-0.01-0.01-0.01l-0.52-0.08c-0.13-0.02-0.24-0.1-0.3-0.22l-0.23-0.47c0-0.01-0.03-0.01-0.03,0
					l-0.23,0.47c-0.06,0.12-0.17,0.2-0.3,0.22l-0.52,0.08c0,0-0.01,0-0.01,0.01c0,0.01,0,0.02,0,0.02l0.38,0.37
					c0.09,0.09,0.14,0.22,0.11,0.35l-0.09,0.52c0,0,0,0.01,0.01,0.02c0.01,0.01,0.02,0,0.02,0l0.47-0.25
					C30.71,12.67,30.78,12.66,30.84,12.66z"/>
				<path fill="#FF4438" d="M27.97,14.59c-0.06,0-0.13-0.02-0.18-0.05l-0.47-0.25c-0.01,0-0.01,0-0.02,0l-0.47,0.25
					c-0.13,0.07-0.29,0.06-0.42-0.03c-0.12-0.09-0.18-0.24-0.16-0.39l0.09-0.52c0-0.01,0-0.01-0.01-0.02l-0.38-0.37
					c-0.11-0.11-0.15-0.26-0.1-0.4c0.05-0.14,0.17-0.25,0.32-0.27l0.52-0.08c0.01,0,0.01,0,0.01-0.01l0.23-0.47
					c0.07-0.14,0.2-0.22,0.35-0.22s0.29,0.08,0.35,0.22v0l0.23,0.47c0,0.01,0.01,0.01,0.01,0.01l0.52,0.08
					c0.15,0.02,0.27,0.12,0.32,0.27c0.05,0.14,0.01,0.3-0.1,0.4l-0.38,0.37c0,0-0.01,0.01-0.01,0.02l0.09,0.52
					c0.03,0.15-0.03,0.3-0.16,0.39C28.13,14.57,28.05,14.59,27.97,14.59z M27.31,13.92c0.06,0,0.13,0.02,0.18,0.05l0.47,0.25
					c0,0,0.01,0.01,0.02,0c0.01-0.01,0.01-0.01,0.01-0.02l-0.09-0.52c-0.02-0.13,0.02-0.26,0.11-0.35l0.38-0.37
					c0,0,0.01-0.01,0-0.02c0-0.01-0.01-0.01-0.01-0.01l-0.52-0.08c-0.13-0.02-0.24-0.1-0.3-0.22l-0.23-0.47c0-0.01-0.03-0.01-0.03,0
					l-0.23,0.47c-0.06,0.12-0.17,0.2-0.3,0.22l-0.52,0.08c0,0-0.01,0-0.01,0.01c0,0.01,0,0.02,0,0.02l0.38,0.37
					c0.09,0.09,0.14,0.22,0.11,0.35l-0.09,0.52c0,0,0,0.01,0.01,0.02c0.01,0.01,0.02,0,0.02,0l0.47-0.25
					C27.18,13.94,27.24,13.92,27.31,13.92z"/>
				<path fill="#FF4438" d="M33.71,14.59c-0.08,0-0.16-0.03-0.23-0.08c-0.12-0.09-0.18-0.24-0.16-0.39l0.09-0.52
					c0-0.01,0-0.01-0.01-0.02l-0.38-0.37c-0.11-0.11-0.15-0.26-0.1-0.4c0.05-0.14,0.17-0.25,0.32-0.27l0.52-0.08
					c0.01,0,0.01,0,0.01-0.01l0.23-0.47c0.07-0.14,0.2-0.22,0.35-0.22c0,0,0,0,0,0c0.15,0,0.29,0.08,0.35,0.22l0.23,0.47
					c0,0.01,0.01,0.01,0.01,0.01l0.52,0.08c0.15,0.02,0.27,0.12,0.32,0.27c0.05,0.14,0.01,0.3-0.1,0.4l-0.38,0.37
					c0,0-0.01,0.01-0.01,0.02l0.09,0.52c0.03,0.15-0.03,0.3-0.16,0.39c-0.12,0.09-0.28,0.1-0.42,0.03l-0.47-0.25
					c-0.01,0-0.01,0-0.02,0l-0.47,0.25C33.84,14.58,33.77,14.59,33.71,14.59z M34.37,12.15c-0.01,0-0.01,0.01-0.02,0.01l-0.23,0.47
					c-0.06,0.12-0.17,0.2-0.3,0.22l-0.52,0.08c0,0-0.01,0-0.01,0.01c0,0.01,0,0.02,0,0.02l0.38,0.37c0.09,0.09,0.14,0.22,0.11,0.35
					l-0.09,0.52c0,0,0,0.01,0.01,0.02c0.01,0.01,0.02,0,0.02,0l0.47-0.25c0.12-0.06,0.25-0.06,0.37,0l0.47,0.25
					c0,0,0.01,0.01,0.02,0c0.01-0.01,0.01-0.01,0.01-0.02l-0.09-0.52c-0.02-0.13,0.02-0.26,0.11-0.35l0.38-0.37
					c0,0,0.01-0.01,0-0.02c0-0.01-0.01-0.01-0.01-0.01l-0.52-0.08c-0.13-0.02-0.24-0.1-0.3-0.22l-0.23-0.47
					C34.39,12.15,34.38,12.15,34.37,12.15L34.37,12.15z"/>
				<path fill="#FF4438" d="M23.62,16.37c-0.08,0-0.16-0.03-0.23-0.08c-0.12-0.09-0.18-0.24-0.16-0.39l0.09-0.52
					c0-0.01,0-0.01-0.01-0.02L22.93,15c-0.11-0.11-0.15-0.26-0.1-0.4c0.05-0.14,0.17-0.25,0.32-0.27l0.52-0.08
					c0.01,0,0.01,0,0.01-0.01l0.23-0.47c0.07-0.14,0.2-0.22,0.35-0.22c0,0,0,0,0,0c0.15,0,0.29,0.08,0.35,0.22v0l0.23,0.47
					c0,0.01,0.01,0.01,0.01,0.01l0.52,0.08c0.15,0.02,0.27,0.12,0.32,0.27c0.05,0.14,0.01,0.3-0.1,0.4l-0.38,0.37
					c0,0-0.01,0.01-0.01,0.02l0.09,0.52c0.03,0.15-0.03,0.3-0.16,0.39c-0.12,0.09-0.28,0.1-0.42,0.03l-0.47-0.25
					c-0.01,0-0.01,0-0.02,0l-0.47,0.25C23.74,16.35,23.68,16.37,23.62,16.37z M24.28,13.92c-0.01,0-0.01,0.01-0.02,0.01l-0.23,0.47
					c-0.06,0.12-0.17,0.2-0.3,0.22l-0.52,0.08c0,0-0.01,0-0.01,0.01c0,0.01,0,0.02,0,0.02l0.38,0.37c0.09,0.09,0.14,0.22,0.11,0.35
					l-0.09,0.52c0,0,0,0.01,0.01,0.02c0.01,0.01,0.02,0,0.02,0l0.47-0.25c0.12-0.06,0.25-0.06,0.37,0l0.47,0.25
					c0,0,0.01,0.01,0.02,0c0.01-0.01,0.01-0.01,0.01-0.02l-0.09-0.52c-0.02-0.13,0.02-0.26,0.11-0.35l0.38-0.37
					c0,0,0.01-0.01,0-0.02c0-0.01-0.01-0.01-0.01-0.01l-0.52-0.08c-0.13-0.02-0.24-0.1-0.3-0.22l-0.23-0.47
					C24.29,13.93,24.29,13.92,24.28,13.92z"/>
				<path fill="#FF4438" d="M36.77,16.37c-0.08,0-0.16-0.03-0.23-0.08c-0.12-0.09-0.18-0.24-0.16-0.39l0.09-0.52
					c0-0.01,0-0.01-0.01-0.02L36.08,15c-0.11-0.11-0.15-0.26-0.1-0.4c0.05-0.14,0.17-0.25,0.32-0.27l0.52-0.08
					c0.01,0,0.01,0,0.01-0.01l0.23-0.47c0.07-0.14,0.2-0.22,0.35-0.22c0,0,0,0,0,0c0.15,0,0.29,0.08,0.35,0.22l0.23,0.47
					c0,0.01,0.01,0.01,0.01,0.01l0.52,0.08c0.15,0.02,0.27,0.12,0.32,0.27c0.05,0.14,0.01,0.3-0.1,0.4l-0.38,0.37
					c0,0-0.01,0.01-0.01,0.02l0.09,0.52c0.03,0.15-0.03,0.3-0.16,0.39c-0.12,0.09-0.28,0.1-0.42,0.03l-0.47-0.25
					c-0.01,0-0.01,0-0.02,0l-0.47,0.25C36.89,16.35,36.83,16.37,36.77,16.37z M37.43,15.7c0.06,0,0.13,0.02,0.18,0.05l0.47,0.25
					c0,0,0.01,0.01,0.02,0c0.01-0.01,0.01-0.01,0.01-0.02l-0.09-0.52c-0.02-0.13,0.02-0.26,0.11-0.35l0.38-0.37
					c0,0,0.01-0.01,0-0.02c0-0.01-0.01-0.01-0.01-0.01l-0.52-0.08c-0.13-0.02-0.24-0.1-0.3-0.22l-0.23-0.47c0,0,0-0.01-0.02-0.01
					l0,0c-0.01,0-0.01,0.01-0.02,0.01l-0.23,0.47c-0.06,0.12-0.17,0.2-0.3,0.22l-0.52,0.08c0,0-0.01,0-0.01,0.01
					c0,0.01,0,0.02,0,0.02l0.38,0.37c0.09,0.09,0.14,0.22,0.11,0.35l-0.09,0.52c0,0,0,0.01,0.01,0.02c0.01,0.01,0.02,0,0.02,0
					l0.47-0.25C37.3,15.71,37.36,15.7,37.43,15.7z"/>
			</g>
			<path fill="#FF4438" d="M38.01,48.22H23.63c-0.87,0-1.58-0.71-1.58-1.58V19.04c0-0.87,0.71-1.58,1.58-1.58h14.38
				c0.87,0,1.58,0.71,1.58,1.58v27.59C39.6,47.51,38.89,48.22,38.01,48.22z M23.63,17.83c-0.67,0-1.21,0.54-1.21,1.21v27.59
				c0,0.67,0.54,1.21,1.21,1.21h14.38c0.67,0,1.21-0.54,1.21-1.21V19.04c0-0.67-0.54-1.21-1.21-1.21H23.63z"/>
			<path fill="#FF4438" d="M34.39,48.03h-0.38v-7.02c0-0.71-0.58-1.29-1.29-1.29h-4.24c-0.71,0-1.29,0.58-1.29,1.29v7.02h-0.38
				v-7.02c0-0.92,0.75-1.67,1.67-1.67h4.24c0.92,0,1.67,0.75,1.67,1.67V48.03z"/>
			<rect x="27" y="41.47" fill="#FF4438" width="7.19" height="0.38"/>
			<rect x="30.59" y="41.66" fill="#FF4438" width="0.38" height="6.37"/>
			<g>
				<g>
					<g>
						<path fill="#FF4438" d="M36.56,26.59H24.78c-0.24,0-0.43-0.19-0.43-0.43v-3.18c0-0.24,0.19-0.43,0.43-0.43h11.79
							c0.24,0,0.43,0.19,0.43,0.43v3.18C36.99,26.4,36.8,26.59,36.56,26.59z M24.78,22.81c-0.1,0-0.18,0.08-0.18,0.18v3.18
							c0,0.1,0.08,0.18,0.18,0.18h11.79c0.1,0,0.18-0.08,0.18-0.18v-3.18c0-0.1-0.08-0.18-0.18-0.18H24.78z"/>
					</g>
					<g>
						<path fill="#FF4438" d="M35.14,25.29h-3.98c-0.3,0-0.55-0.25-0.55-0.55v-0.85c0-0.3,0.25-0.55,0.55-0.55h3.98
							c0.3,0,0.55,0.25,0.55,0.55v0.85C35.69,25.04,35.44,25.29,35.14,25.29z M31.16,23.59c-0.16,0-0.3,0.13-0.3,0.3v0.85
							c0,0.16,0.13,0.3,0.3,0.3h3.98c0.16,0,0.3-0.13,0.3-0.3v-0.85c0-0.16-0.13-0.3-0.3-0.3H31.16z"/>
					</g>
					<g>
						<rect x="33.21" y="25.68" fill="#FF4438" width="0.26" height="0.26"/>
					</g>
					<g>
						<rect x="33.74" y="25.68" fill="#FF4438" width="0.26" height="0.26"/>
					</g>
					<g>
						<rect x="34.26" y="25.68" fill="#FF4438" width="0.26" height="0.26"/>
					</g>
					<g>
						<rect x="34.78" y="25.68" fill="#FF4438" width="0.26" height="0.26"/>
					</g>
					<g>
						<circle fill="#FF4438" cx="29.95" cy="23.73" r="0.13"/>
					</g>
				</g>
				<g>
					<rect x="31.26" y="23.99" fill="#FF4438" width="0.26" height="0.26"/>
				</g>
				<g>
					<rect x="31.78" y="23.99" fill="#FF4438" width="0.26" height="0.26"/>
				</g>
				<g>
					<rect x="32.04" y="23.99" fill="#FF4438" width="0.26" height="0.26"/>
				</g>
				<g>
					<rect x="32.56" y="23.99" fill="#FF4438" width="0.26" height="0.26"/>
				</g>
				<g>
					<rect x="33.08" y="23.99" fill="#FF4438" width="0.52" height="0.26"/>
				</g>
				<g>
					<rect x="33.87" y="23.99" fill="#FF4438" width="0.26" height="0.26"/>
				</g>
				<g>
					<rect x="34.39" y="23.99" fill="#FF4438" width="0.26" height="0.26"/>
				</g>
			</g>
			<g>
				<g>
					<g>
						<path fill="#FF4438" d="M36.56,31.78H24.78c-0.24,0-0.43-0.19-0.43-0.43v-3.18c0-0.24,0.19-0.43,0.43-0.43h11.79
							c0.24,0,0.43,0.19,0.43,0.43v3.18C36.99,31.59,36.8,31.78,36.56,31.78z M24.78,28c-0.1,0-0.18,0.08-0.18,0.18v3.18
							c0,0.1,0.08,0.18,0.18,0.18h11.79c0.1,0,0.18-0.08,0.18-0.18v-3.18c0-0.1-0.08-0.18-0.18-0.18H24.78z"/>
					</g>
					<g>
						<path fill="#FF4438" d="M35.14,30.47h-3.98c-0.3,0-0.55-0.25-0.55-0.55v-0.85c0-0.3,0.25-0.55,0.55-0.55h3.98
							c0.3,0,0.55,0.25,0.55,0.55v0.85C35.69,30.23,35.44,30.47,35.14,30.47z M31.16,28.78c-0.16,0-0.3,0.13-0.3,0.3v0.85
							c0,0.16,0.13,0.3,0.3,0.3h3.98c0.16,0,0.3-0.13,0.3-0.3v-0.85c0-0.16-0.13-0.3-0.3-0.3H31.16z"/>
					</g>
					<g>
						<rect x="33.21" y="30.87" fill="#FF4438" width="0.26" height="0.26"/>
					</g>
					<g>
						<rect x="33.74" y="30.87" fill="#FF4438" width="0.26" height="0.26"/>
					</g>
					<g>
						<rect x="34.26" y="30.87" fill="#FF4438" width="0.26" height="0.26"/>
					</g>
					<g>
						<rect x="34.78" y="30.87" fill="#FF4438" width="0.26" height="0.26"/>
					</g>
					<g>
						<circle fill="#FF4438" cx="29.95" cy="28.91" r="0.13"/>
					</g>
				</g>
				<g>
					<rect x="31.26" y="29.17" fill="#FF4438" width="0.26" height="0.26"/>
				</g>
				<g>
					<rect x="31.78" y="29.17" fill="#FF4438" width="0.26" height="0.26"/>
				</g>
				<g>
					<rect x="32.04" y="29.17" fill="#FF4438" width="0.26" height="0.26"/>
				</g>
				<g>
					<rect x="32.56" y="29.17" fill="#FF4438" width="0.26" height="0.26"/>
				</g>
				<g>
					<rect x="33.08" y="29.17" fill="#FF4438" width="0.52" height="0.26"/>
				</g>
				<g>
					<rect x="33.87" y="29.17" fill="#FF4438" width="0.26" height="0.26"/>
				</g>
				<g>
					<rect x="34.39" y="29.17" fill="#FF4438" width="0.26" height="0.26"/>
				</g>
			</g>
			<g>
				<g>
					<g>
						<path fill="#FF4438" d="M36.56,36.97H24.78c-0.24,0-0.43-0.19-0.43-0.43v-3.18c0-0.24,0.19-0.43,0.43-0.43h11.79
							c0.24,0,0.43,0.19,0.43,0.43v3.18C36.99,36.77,36.8,36.97,36.56,36.97z M24.78,33.18c-0.1,0-0.18,0.08-0.18,0.18v3.18
							c0,0.1,0.08,0.18,0.18,0.18h11.79c0.1,0,0.18-0.08,0.18-0.18v-3.18c0-0.1-0.08-0.18-0.18-0.18H24.78z"/>
					</g>
					<g>
						<path fill="#FF4438" d="M35.14,35.66h-3.98c-0.3,0-0.55-0.25-0.55-0.55v-0.85c0-0.3,0.25-0.55,0.55-0.55h3.98
							c0.3,0,0.55,0.25,0.55,0.55v0.85C35.69,35.41,35.44,35.66,35.14,35.66z M31.16,33.97c-0.16,0-0.3,0.13-0.3,0.3v0.85
							c0,0.16,0.13,0.3,0.3,0.3h3.98c0.16,0,0.3-0.13,0.3-0.3v-0.85c0-0.16-0.13-0.3-0.3-0.3H31.16z"/>
					</g>
					<g>
						<rect x="33.21" y="36.06" fill="#FF4438" width="0.26" height="0.26"/>
					</g>
					<g>
						<rect x="33.74" y="36.06" fill="#FF4438" width="0.26" height="0.26"/>
					</g>
					<g>
						<rect x="34.26" y="36.06" fill="#FF4438" width="0.26" height="0.26"/>
					</g>
					<g>
						<rect x="34.78" y="36.06" fill="#FF4438" width="0.26" height="0.26"/>
					</g>
					<g>
						<circle fill="#FF4438" cx="29.95" cy="34.1" r="0.13"/>
					</g>
				</g>
				<g>
					<rect x="31.26" y="34.36" fill="#FF4438" width="0.26" height="0.26"/>
				</g>
				<g>
					<rect x="31.78" y="34.36" fill="#FF4438" width="0.26" height="0.26"/>
				</g>
				<g>
					<rect x="32.04" y="34.36" fill="#FF4438" width="0.26" height="0.26"/>
				</g>
				<g>
					<rect x="32.56" y="34.36" fill="#FF4438" width="0.26" height="0.26"/>
				</g>
				<g>
					<rect x="33.08" y="34.36" fill="#FF4438" width="0.52" height="0.26"/>
				</g>
				<g>
					<rect x="33.87" y="34.36" fill="#FF4438" width="0.26" height="0.26"/>
				</g>
				<g>
					<rect x="34.39" y="34.36" fill="#FF4438" width="0.26" height="0.26"/>
				</g>
			</g>
			<g>
				<circle fill="#FFFFFF" cx="30.9" cy="17.59" r="3.48"/>
				<path fill="#FF4438" d="M30.9,21.26c-2.02,0-3.67-1.65-3.67-3.67c0-2.02,1.65-3.67,3.67-3.67s3.67,1.65,3.67,3.67
					C34.57,19.61,32.93,21.26,30.9,21.26z M30.9,14.3c-1.82,0-3.29,1.48-3.29,3.29s1.48,3.29,3.29,3.29c1.82,0,3.29-1.48,3.29-3.29
					S32.72,14.3,30.9,14.3z"/>
			</g>
			<g>
				<path fill="#FF4438" d="M32.17,19.72c-0.17,0-0.31-0.06-0.43-0.18c-0.12-0.12-0.18-0.27-0.18-0.43v-0.97h-1.42v0.97
					c0,0.17-0.06,0.32-0.18,0.43c-0.12,0.12-0.26,0.18-0.43,0.18c-0.17,0-0.32-0.06-0.43-0.18c-0.12-0.12-0.18-0.27-0.18-0.43v-3.16
					c0-0.17,0.06-0.31,0.18-0.43c0.12-0.12,0.27-0.18,0.43-0.18c0.17,0,0.32,0.06,0.43,0.18c0.12,0.12,0.18,0.26,0.18,0.43v0.97
					h1.42v-0.97c0-0.17,0.06-0.31,0.18-0.43c0.12-0.12,0.26-0.18,0.43-0.18c0.17,0,0.32,0.06,0.43,0.18
					c0.12,0.12,0.18,0.27,0.18,0.43v3.16c0,0.17-0.06,0.32-0.18,0.43C32.49,19.66,32.34,19.72,32.17,19.72z M29.77,17.76h2.17v1.35
					c0,0.07,0.02,0.12,0.07,0.17c0.05,0.05,0.1,0.07,0.16,0.07c0.07,0,0.12-0.02,0.17-0.07c0.05-0.05,0.07-0.1,0.07-0.17v-3.16
					c0-0.07-0.02-0.12-0.07-0.16c-0.05-0.05-0.1-0.07-0.17-0.07c-0.07,0-0.12,0.02-0.16,0.07c-0.05,0.05-0.07,0.1-0.07,0.17v1.35
					h-2.17v-1.35c0-0.07-0.02-0.12-0.07-0.16c-0.05-0.05-0.1-0.07-0.16-0.07c-0.07,0-0.12,0.02-0.17,0.07
					c-0.05,0.05-0.07,0.1-0.07,0.17v3.16c0,0.07,0.02,0.12,0.07,0.17c0.05,0.05,0.1,0.07,0.17,0.07c0.07,0,0.12-0.02,0.16-0.07
					c0.05-0.05,0.07-0.1,0.07-0.17V17.76z"/>
			</g>
		</g>
		<g>
			<path fill="#FFFFFF" d="M19.48,29.02c0,0,3.69,0,4.47,2.77l0.78,0.38l0.91,0.45l2,4.01l-0.43,1.34l-1.08,0.81l4.65,9.24L27,48.86
				l-6.09-10.34L19.48,29.02z"/>
			<g>
				<path fill="#FFFFFF" d="M20.64,29.02c0,0-2.96,0.31-3.84,1.93l-1.98-0.74l-1.5,0.61l-3.51,8.95l11.11-0.08L20.64,29.02z"/>
				<g>
					<g>
						<path fill="#FF4438" d="M20.12,35.91c-1.5-0.04-2.78-0.89-3.35-2.05c0.43-0.31,0.6-0.89,0.37-1.39
							c-0.13-0.28-0.35-0.49-0.64-0.6c-0.59-0.22-1.25,0.07-1.47,0.66c-0.31,0.82,0.38,1.68,1.26,1.53
							c0.69,1.44,2.29,2.42,4.08,2.37l0.33,0.68c0.06,0.13,0.22,0.18,0.35,0.12l3.16-1.56c0.13-0.06,0.18-0.22,0.12-0.35l-0.65-1.32
							c-0.03-0.06-0.08-0.11-0.15-0.13c-0.06-0.02-0.14-0.02-0.2,0.01l-3.16,1.56C19.92,35.56,20.08,35.82,20.12,35.91z
							 M20.64,35.78l2.7-1.33l0.42,0.85l-2.7,1.33l-0.13-0.27c0.23-0.04,0.46-0.09,0.69-0.16c0.14-0.04,0.21-0.19,0.17-0.33
							c-0.04-0.14-0.19-0.21-0.33-0.17c-0.25,0.08-0.51,0.14-0.77,0.17L20.64,35.78z M16.57,33.34c-0.03-0.12-0.06-0.23-0.08-0.35
							c-0.02-0.14-0.16-0.24-0.3-0.21c-0.14,0.02-0.24,0.16-0.21,0.3c0.03,0.16,0.07,0.33,0.12,0.48c-0.44,0-0.73-0.44-0.58-0.84v0
							c0.19-0.51,0.92-0.55,1.15-0.04C16.77,32.9,16.73,33.16,16.57,33.34z"/>
						<path fill="#FFFFFF" d="M20.94,37.29c-0.03,0-0.07-0.01-0.1-0.02c-0.08-0.03-0.14-0.08-0.18-0.15l-0.32-0.65
							c-1.73,0.04-3.36-0.9-4.08-2.36c-0.41,0.06-0.81-0.1-1.08-0.42c-0.28-0.33-0.35-0.77-0.2-1.18c0.11-0.3,0.33-0.53,0.62-0.66
							c0.29-0.13,0.61-0.14,0.91-0.03c0.3,0.11,0.53,0.33,0.66,0.62c0.22,0.5,0.08,1.09-0.35,1.42c0.58,1.15,1.83,1.92,3.21,1.99
							c-0.04-0.08-0.08-0.19-0.04-0.3c0.02-0.07,0.08-0.13,0.15-0.16l3.16-1.56c0.07-0.04,0.16-0.04,0.23-0.02
							c0.08,0.03,0.14,0.08,0.18,0.15l0.65,1.32c0.07,0.15,0.01,0.33-0.14,0.41l-3.16,1.56C21.03,37.28,20.99,37.29,20.94,37.29z
							 M20.4,36.37l0.35,0.7c0.03,0.05,0.07,0.09,0.12,0.11c0.05,0.02,0.11,0.01,0.16-0.01l3.16-1.56c0.1-0.05,0.15-0.18,0.1-0.28
							l-0.65-1.32c-0.03-0.05-0.07-0.09-0.12-0.11c-0.05-0.02-0.11-0.01-0.16,0.01l-3.16,1.56c-0.06,0.03-0.09,0.06-0.11,0.11
							c-0.03,0.09,0.03,0.21,0.06,0.28l0.04,0.09l-0.08,0c-1.46-0.04-2.79-0.85-3.39-2.08l-0.02-0.04l0.03-0.02
							c0.42-0.3,0.57-0.86,0.36-1.33c-0.12-0.27-0.34-0.47-0.61-0.57c-0.27-0.1-0.57-0.09-0.84,0.03c-0.27,0.12-0.47,0.34-0.57,0.61
							c-0.14,0.37-0.07,0.78,0.18,1.08c0.25,0.31,0.64,0.45,1.03,0.38L16.32,34l0.02,0.03c0.7,1.45,2.33,2.4,4.04,2.34L20.4,36.37z
							 M21.04,36.7l-0.18-0.37l0.06-0.01c0.23-0.04,0.46-0.09,0.68-0.16c0.11-0.04,0.17-0.16,0.14-0.27
							c-0.02-0.05-0.05-0.1-0.1-0.12c-0.05-0.03-0.11-0.03-0.16-0.01c-0.25,0.08-0.51,0.14-0.78,0.17l-0.03,0l-0.08-0.17l2.78-1.38
							l0.46,0.94L21.04,36.7z M21,36.41l0.08,0.17l2.61-1.29l-0.38-0.77l-2.61,1.29l0.01,0.03c0.25-0.03,0.5-0.08,0.73-0.16
							c0.08-0.03,0.16-0.02,0.23,0.02c0.07,0.04,0.13,0.1,0.15,0.18c0.05,0.16-0.04,0.33-0.2,0.38C21.42,36.32,21.21,36.37,21,36.41
							z M16.16,33.6l-0.06,0c-0.22,0-0.42-0.11-0.55-0.29c-0.12-0.18-0.15-0.41-0.07-0.62c0.1-0.26,0.33-0.42,0.61-0.43
							c0.27-0.01,0.52,0.14,0.63,0.39c0.11,0.24,0.07,0.52-0.11,0.72l-0.06,0.06l-0.02-0.08c-0.04-0.12-0.06-0.24-0.08-0.36
							c-0.01-0.06-0.04-0.1-0.09-0.14c-0.05-0.03-0.1-0.05-0.16-0.04c-0.06,0.01-0.1,0.04-0.14,0.09c-0.03,0.05-0.05,0.1-0.04,0.16
							c0.03,0.16,0.07,0.32,0.11,0.48L16.16,33.6z M16.1,32.36c-0.01,0-0.01,0-0.02,0c-0.24,0.01-0.44,0.15-0.52,0.37
							c-0.07,0.18-0.04,0.37,0.06,0.53c0.1,0.14,0.24,0.23,0.4,0.25c-0.04-0.14-0.07-0.28-0.1-0.42c-0.01-0.08,0-0.16,0.05-0.23
							c0.05-0.07,0.12-0.11,0.2-0.12c0.08-0.01,0.16,0.01,0.23,0.05s0.11,0.12,0.12,0.2c0.01,0.08,0.03,0.17,0.06,0.26
							c0.1-0.16,0.12-0.36,0.04-0.54C16.53,32.49,16.33,32.36,16.1,32.36z"/>
					</g>
					<g>
						<path fill="#FF4438" d="M8.92,41.4c-0.39,1.04,0.13,2.2,1.17,2.6l3.19,1.21c1.04,0.39,2.2-0.13,2.6-1.17l2.18-5.75
							c0.05-0.13-0.02-0.28-0.15-0.33c-0.13-0.05-0.28,0.02-0.33,0.15l-2.18,5.75c-0.29,0.77-1.16,1.16-1.93,0.87l-3.19-1.21
							c-0.77-0.29-1.16-1.16-0.87-1.93l3.81-10.08c0.29-0.77,1.16-1.16,1.93-0.87l3.19,1.21c0.49,0.19,0.85,0.62,0.94,1.14
							c0.03,0.14,0.16,0.23,0.3,0.21c0.14-0.03,0.23-0.16,0.21-0.3c-0.12-0.69-0.61-1.28-1.27-1.53l-1.44-0.55
							c0.7-0.91,1.83-1.44,3.05-1.44c1.64,0,3.06,0.95,3.56,2.37c-0.03,0.01-0.06,0.02-0.08,0.04l-5.27,2.6
							c-0.13,0.06-0.18,0.22-0.12,0.35c0.06,0.13,0.22,0.18,0.35,0.12l5.27-2.6c0.58-0.28,1.27-0.05,1.56,0.53l1.87,3.78
							c0.28,0.57,0.05,1.27-0.53,1.56c-0.79,0.39-4.48,2.21-5.27,2.6c-0.58,0.28-1.27,0.05-1.56-0.53l-1.87-3.78
							c-0.06-0.13-0.22-0.18-0.35-0.12c-0.13,0.06-0.18,0.22-0.12,0.35l1.87,3.78c0.41,0.83,1.42,1.17,2.25,0.76l0.6-0.3l1.16,2.34
							c0.1,0.2,0.27,0.35,0.49,0.43l1.44,0.49c0.17,0.06,0.27,0.25,0.21,0.42l-0.39,1.15c-0.15,0.44,0.09,0.92,0.53,1.07
							C25.9,46.81,26,47,25.94,47.17l-0.18,0.52c-0.15,0.44,0.09,0.92,0.53,1.07c2.44,0.83,1.63,0.89,4.06-0.31
							c0.42-0.21,0.59-0.71,0.38-1.13l-4.23-8.55l0.45-0.22c0.83-0.41,1.17-1.42,0.76-2.25l-1.87-3.78
							c-0.32-0.64-0.98-0.99-1.67-0.93c0-0.01,0-0.01,0-0.02c-0.56-1.64-2.19-2.74-4.06-2.74c-1.44,0-2.76,0.66-3.55,1.77
							l-1.25-0.47c-1.04-0.39-2.2,0.13-2.6,1.17L8.92,41.4z M26.05,39.01l4.23,8.55c0.08,0.16,0.01,0.36-0.15,0.44l-0.51,0.25
							l-3.38-6.84c-0.06-0.13-0.22-0.18-0.35-0.12c-0.13,0.06-0.18,0.22-0.12,0.35l3.38,6.84c-1.09,0.54-0.51,0.54-2.69-0.2
							c-0.17-0.06-0.27-0.25-0.21-0.42l0.18-0.52c0.15-0.44-0.09-0.92-0.53-1.07c-0.17-0.06-0.27-0.25-0.21-0.42l0.39-1.15
							c0.15-0.44-0.09-0.92-0.53-1.07l-1.44-0.49c-0.08-0.03-0.15-0.09-0.19-0.17l-1.16-2.34L26.05,39.01z"/>
						<path fill="#FFFFFF" d="M28.25,49.43c-0.27,0-0.56-0.1-1.08-0.29c-0.24-0.09-0.53-0.19-0.89-0.31
							c-0.23-0.08-0.41-0.24-0.51-0.45c-0.11-0.21-0.12-0.46-0.05-0.68l0.18-0.52c0.02-0.07,0.02-0.15-0.01-0.22
							c-0.03-0.07-0.09-0.12-0.16-0.14c-0.47-0.16-0.72-0.67-0.56-1.13l0.39-1.15c0.02-0.07,0.02-0.15-0.01-0.22
							c-0.03-0.07-0.09-0.12-0.16-0.14l-1.44-0.49c-0.23-0.08-0.41-0.24-0.51-0.45l-1.13-2.3l-0.56,0.28
							c-0.85,0.42-1.89,0.07-2.31-0.78l-1.87-3.78c-0.04-0.07-0.04-0.16-0.02-0.23c0.03-0.08,0.08-0.14,0.15-0.18
							c0.15-0.07,0.33-0.01,0.41,0.14l1.87,3.78c0.13,0.27,0.36,0.47,0.64,0.56c0.28,0.1,0.58,0.07,0.85-0.06l5.27-2.6
							c0.55-0.27,0.78-0.94,0.51-1.49l-1.87-3.78c-0.13-0.27-0.36-0.47-0.64-0.56c-0.28-0.1-0.58-0.08-0.85,0.06l-5.27,2.6
							c-0.15,0.07-0.33,0.01-0.41-0.14c-0.04-0.07-0.04-0.16-0.02-0.23c0.03-0.08,0.08-0.14,0.15-0.18l5.27-2.6
							c0.01-0.01,0.03-0.01,0.04-0.02c-0.5-1.37-1.9-2.29-3.5-2.29c-1.18,0-2.28,0.51-2.98,1.37l1.38,0.52
							c0.67,0.26,1.17,0.86,1.3,1.57c0.03,0.17-0.08,0.32-0.25,0.35c-0.17,0.03-0.32-0.08-0.35-0.25c-0.09-0.5-0.44-0.92-0.91-1.1
							l-3.19-1.21c-0.36-0.14-0.76-0.12-1.11,0.03c-0.35,0.16-0.62,0.45-0.76,0.81L9.45,41.59c-0.14,0.36-0.13,0.76,0.03,1.11
							c0.16,0.35,0.45,0.62,0.81,0.76l3.19,1.21c0.75,0.28,1.59-0.1,1.87-0.84l2.18-5.75c0.03-0.08,0.09-0.14,0.16-0.17
							c0.07-0.03,0.16-0.04,0.23-0.01c0.08,0.03,0.14,0.09,0.17,0.16c0.03,0.07,0.04,0.16,0.01,0.23l-2.18,5.75
							c-0.19,0.51-0.58,0.92-1.08,1.15c-0.5,0.23-1.06,0.24-1.58,0.05l-3.19-1.21c-0.51-0.19-0.92-0.58-1.15-1.08
							c-0.23-0.5-0.24-1.06-0.05-1.58l3.81-10.08c0.19-0.51,0.58-0.92,1.08-1.15c0.5-0.23,1.06-0.24,1.58-0.05l1.21,0.46
							c0.8-1.1,2.13-1.76,3.57-1.76c1.88,0,3.52,1.11,4.09,2.75c0.71-0.05,1.36,0.32,1.67,0.96l1.87,3.78
							c0.42,0.85,0.07,1.89-0.78,2.31l-0.41,0.2l4.2,8.5c0.22,0.44,0.04,0.98-0.41,1.2c-0.36,0.18-0.65,0.33-0.88,0.45
							C28.87,49.28,28.57,49.43,28.25,49.43z M22.32,40.8l1.18,2.38c0.09,0.19,0.26,0.33,0.46,0.4l1.44,0.49
							c0.1,0.03,0.17,0.1,0.22,0.19c0.04,0.09,0.05,0.19,0.02,0.29l-0.39,1.15c-0.14,0.42,0.08,0.87,0.5,1.01
							c0.2,0.07,0.3,0.28,0.24,0.48l-0.18,0.52c-0.07,0.2-0.05,0.42,0.04,0.61c0.09,0.19,0.26,0.33,0.46,0.4
							c0.36,0.12,0.66,0.23,0.89,0.32c1.12,0.41,1.12,0.41,2.25-0.18c0.23-0.12,0.53-0.27,0.88-0.45c0.4-0.2,0.56-0.68,0.36-1.07
							l-4.25-8.59l0.49-0.24c0.81-0.4,1.14-1.38,0.74-2.19l-1.87-3.78c-0.3-0.61-0.94-0.97-1.62-0.9l-0.04,0l-0.01-0.04l0.04-0.03
							l-0.04,0.02c-0.55-1.62-2.17-2.7-4.01-2.7c-1.42,0-2.74,0.65-3.52,1.75l-0.02,0.03l-1.28-0.48c-0.49-0.19-1.03-0.17-1.5,0.05
							c-0.48,0.22-0.84,0.61-1.03,1.1L8.97,41.41c-0.19,0.49-0.17,1.03,0.05,1.5s0.61,0.84,1.1,1.03l3.19,1.21
							c0.49,0.19,1.03,0.17,1.51-0.05c0.48-0.22,0.84-0.61,1.03-1.1l2.18-5.75c0.02-0.05,0.02-0.11-0.01-0.16
							c-0.02-0.05-0.07-0.09-0.12-0.11c-0.05-0.02-0.11-0.02-0.16,0c-0.05,0.02-0.09,0.07-0.11,0.12l-2.18,5.75
							c-0.3,0.8-1.19,1.2-1.99,0.9l-3.19-1.21c-0.39-0.15-0.69-0.43-0.86-0.81c-0.17-0.38-0.18-0.8-0.04-1.18l3.81-10.08
							c0.15-0.38,0.43-0.69,0.81-0.86c0.38-0.17,0.8-0.18,1.18-0.04l3.19,1.21c0.51,0.19,0.88,0.64,0.97,1.17
							c0.02,0.11,0.13,0.19,0.25,0.17c0.11-0.02,0.19-0.13,0.17-0.24c-0.12-0.68-0.6-1.25-1.24-1.5L17,30.83l0.04-0.05
							c0.71-0.91,1.86-1.46,3.09-1.46c1.65,0,3.1,0.96,3.6,2.4l0.01,0.04l-0.07,0.03c-0.02,0.01-0.04,0.02-0.05,0.02l-5.27,2.6
							c-0.05,0.03-0.09,0.07-0.11,0.12c-0.02,0.05-0.01,0.11,0.01,0.16c0.05,0.1,0.18,0.15,0.28,0.1l5.27-2.6
							c0.29-0.14,0.62-0.17,0.92-0.06c0.31,0.1,0.55,0.32,0.7,0.61l1.87,3.78c0.3,0.6,0.05,1.32-0.55,1.62l-5.27,2.6
							c-0.29,0.14-0.62,0.17-0.92,0.06c-0.31-0.1-0.55-0.32-0.7-0.61L18,36.42c-0.05-0.1-0.18-0.15-0.28-0.1
							c-0.05,0.03-0.09,0.07-0.11,0.12c-0.02,0.05-0.01,0.11,0.01,0.16l1.87,3.78c0.4,0.81,1.38,1.14,2.19,0.74L22.32,40.8z
							 M28.27,48.91c-0.19,0-0.42-0.08-0.9-0.26c-0.24-0.09-0.54-0.19-0.93-0.33c-0.1-0.03-0.17-0.1-0.22-0.19
							c-0.04-0.09-0.05-0.19-0.02-0.29l0.18-0.52c0.07-0.2,0.05-0.42-0.04-0.61c-0.09-0.19-0.26-0.33-0.46-0.4
							c-0.1-0.03-0.17-0.1-0.22-0.19c-0.04-0.09-0.05-0.19-0.02-0.29l0.39-1.15c0.14-0.42-0.08-0.87-0.5-1.01l-1.44-0.49
							c-0.1-0.03-0.17-0.1-0.22-0.19l-1.18-2.38l3.37-1.67l4.25,8.59c0.04,0.09,0.05,0.19,0.02,0.29c-0.03,0.1-0.1,0.17-0.19,0.22
							l-0.56,0.27l-3.4-6.88c-0.05-0.1-0.18-0.15-0.28-0.1c-0.1,0.05-0.15,0.18-0.1,0.28l3.4,6.88l-0.04,0.02
							c-0.15,0.08-0.27,0.14-0.37,0.19C28.56,48.84,28.44,48.91,28.27,48.91z M22.82,40.65l1.13,2.3c0.03,0.07,0.09,0.12,0.16,0.14
							l1.44,0.49c0.47,0.16,0.72,0.67,0.56,1.13l-0.39,1.15c-0.02,0.07-0.02,0.15,0.01,0.22c0.03,0.07,0.09,0.12,0.16,0.14
							c0.23,0.08,0.41,0.24,0.52,0.45c0.11,0.21,0.12,0.46,0.05,0.68l-0.18,0.52c-0.02,0.07-0.02,0.15,0.01,0.22
							c0.03,0.07,0.09,0.12,0.16,0.14c0.39,0.13,0.69,0.24,0.93,0.33c0.89,0.32,0.89,0.32,1.35,0.07c0.09-0.05,0.2-0.11,0.33-0.17
							l-3.36-6.79c-0.07-0.15-0.01-0.33,0.14-0.41c0.15-0.07,0.33-0.01,0.41,0.14l3.36,6.79l0.47-0.23
							c0.07-0.03,0.12-0.09,0.14-0.16c0.02-0.07,0.02-0.15-0.01-0.22l-4.2-8.5L22.82,40.65z"/>
					</g>
				</g>
			</g>
		</g>
		<g>
			<g>
				<path fill="#FF4438" d="M14.11,39.46l0.44-1.15c0.01-0.04,0-0.08-0.04-0.1l0,0c-0.04-0.01-0.08,0-0.1,0.04l-0.44,1.15
					c-0.14,0.37-0.56,0.55-0.94,0.41c-0.37-0.14-0.56-0.56-0.42-0.93c0.02-0.05,0.04-0.09,0.07-0.14l0.01-0.06l-0.03-0.04
					c-0.28-0.18-0.4-0.53-0.28-0.83c0.01-0.04,0.03-0.08,0.06-0.12c0.02-0.04,0.07-0.05,0.11-0.03c0.05,0.03,0.1,0.06,0.15,0.09
					c0.04,0.02,0.09,0,0.1-0.04l0,0c0.01-0.04,0-0.08-0.04-0.09c-0.1-0.05-0.19-0.11-0.27-0.18c0,0-0.01-0.01-0.01-0.01
					c-0.02-0.02-0.03-0.03-0.04-0.05c-0.01-0.01-0.02-0.02-0.02-0.03c0,0-0.01-0.01-0.01-0.01c-0.08-0.1-0.14-0.21-0.18-0.33
					c-0.06-0.19-0.06-0.41,0.01-0.61c0,0,0-0.01,0-0.01c0.22-0.5,0.8-0.76,1.3-0.57c0.02,0.01,0.04,0.01,0.05,0.02
					c0.02,0.01,0.03,0.01,0.07,0.03l0.05-0.01l0.04-0.02c0.17-0.27,0.53-0.37,0.89-0.23c0.38,0.15,0.59,0.58,0.45,0.94l-0.44,1.15
					c-0.01,0.04,0,0.08,0.04,0.1l0,0c0.04,0.01,0.08,0,0.1-0.04l0.44-1.15c0.17-0.44-0.07-0.96-0.53-1.14
					c-0.4-0.16-0.82-0.06-1.03,0.24c0,0-0.01,0-0.01-0.01c-0.01,0-0.03-0.01-0.05-0.02c-0.56-0.22-1.22,0.07-1.48,0.63l0,0
					c0,0.01-0.01,0.02-0.01,0.03c0,0.01-0.01,0.02-0.01,0.03c-0.08,0.21-0.07,0.47,0.01,0.7c0,0,0,0,0,0.01
					c0.01,0.02,0.02,0.04,0.03,0.07c0.03,0.06,0.06,0.12,0.09,0.18c0,0.01,0.01,0.01,0.01,0.02c0.01,0.02,0.02,0.03,0.03,0.05
					c0.01,0.02,0.03,0.04,0.04,0.06c0,0.01,0.01,0.01,0.01,0.02c0.01,0.01,0.01,0.01,0.02,0.02c0.02,0.02,0.02,0.06,0.01,0.09
					c-0.04,0.07-0.08,0.15-0.1,0.2c-0.13,0.33-0.03,0.71,0.24,0.94c0.02,0.02,0.03,0.06,0.02,0.09c-0.01,0.02-0.02,0.03-0.02,0.05
					c-0.17,0.45,0.05,0.95,0.51,1.12C13.43,40.13,13.94,39.91,14.11,39.46z"/>
				<path fill="#FF4438" d="M13.3,40.06c-0.11,0-0.22-0.02-0.33-0.06c-0.23-0.09-0.41-0.26-0.51-0.48c-0.1-0.22-0.11-0.47-0.02-0.7
					c0.01-0.02,0.01-0.04,0.02-0.05c0-0.01,0-0.02-0.01-0.03c-0.28-0.25-0.38-0.64-0.25-0.99c0.02-0.05,0.05-0.13,0.1-0.2
					c0.01-0.01,0-0.02,0-0.03l-0.03-0.03c-0.02-0.03-0.04-0.04-0.05-0.06c-0.01-0.02-0.02-0.03-0.03-0.05l-0.01-0.02
					c-0.04-0.06-0.07-0.12-0.1-0.19c-0.01-0.02-0.02-0.05-0.03-0.07c-0.09-0.26-0.1-0.53-0.01-0.74c0-0.01,0.01-0.02,0.01-0.02
					l0.01-0.02c0-0.01,0-0.02,0.01-0.02l0.02-0.04l0.01,0c0.28-0.56,0.95-0.83,1.52-0.61l0.03,0.01c0.24-0.29,0.66-0.38,1.07-0.23
					c0.48,0.19,0.74,0.73,0.56,1.2l-0.44,1.15c-0.02,0.06-0.1,0.09-0.16,0.07c-0.06-0.02-0.09-0.1-0.07-0.16l0.44-1.15
					c0.13-0.34-0.06-0.74-0.42-0.88c-0.33-0.13-0.67-0.04-0.83,0.21l-0.01,0.01l-0.05,0.02l-0.08,0.02l-0.01,0
					c-0.04-0.01-0.05-0.02-0.07-0.03l-0.05-0.02c-0.47-0.18-1.03,0.06-1.24,0.54c-0.07,0.2-0.07,0.4-0.01,0.59
					c0.04,0.12,0.1,0.23,0.17,0.32l-0.03,0.04l0.04-0.03l0.02,0.02c0.02,0.02,0.03,0.03,0.04,0.05l0.01,0.01
					c0.08,0.07,0.16,0.13,0.26,0.17c0.06,0.03,0.08,0.09,0.06,0.15c-0.01,0.03-0.04,0.06-0.07,0.07c-0.03,0.01-0.07,0.01-0.1,0
					c-0.05-0.03-0.11-0.06-0.16-0.09c-0.01-0.01-0.02-0.01-0.02,0c0,0-0.01,0-0.02,0.01c-0.02,0.04-0.04,0.08-0.05,0.12
					c-0.11,0.28,0,0.61,0.26,0.78l0.01,0.01l0.04,0.06l-0.02,0.1c-0.03,0.04-0.05,0.08-0.07,0.13c-0.13,0.34,0.04,0.73,0.39,0.87
					c0.17,0.07,0.35,0.06,0.52-0.01c0.17-0.07,0.29-0.2,0.36-0.37l0.44-1.15c0.02-0.06,0.1-0.09,0.16-0.07
					c0.03,0.01,0.05,0.03,0.07,0.06s0.01,0.06,0,0.09l-0.44,1.15C14.02,39.84,13.67,40.06,13.3,40.06z M12.35,37.42l0.01,0.02
					c0.03,0.04,0.04,0.1,0.01,0.14c-0.04,0.07-0.07,0.15-0.09,0.19c-0.12,0.31-0.03,0.66,0.22,0.88c0.04,0.03,0.05,0.09,0.03,0.14
					c-0.01,0.02-0.01,0.03-0.02,0.05c-0.08,0.2-0.07,0.43,0.02,0.63c0.09,0.2,0.25,0.36,0.46,0.44c0.43,0.16,0.91-0.04,1.07-0.47h0
					l0.44-1.15c0-0.01,0-0.01,0-0.02c0-0.01-0.01-0.01-0.02-0.01c-0.01-0.01-0.03,0-0.04,0.02l-0.44,1.15
					c-0.07,0.19-0.22,0.34-0.41,0.42c-0.19,0.08-0.4,0.09-0.59,0.01c-0.4-0.15-0.6-0.6-0.45-0.99c0.02-0.05,0.04-0.09,0.07-0.14
					l0-0.03l-0.01-0.02c-0.29-0.19-0.42-0.56-0.29-0.88c0.01-0.04,0.04-0.08,0.06-0.13c0.02-0.03,0.04-0.05,0.08-0.06
					c0.03-0.01,0.07,0,0.1,0.02c0.05,0.03,0.1,0.06,0.15,0.08c0.01,0,0.02,0,0.02,0c0,0,0.01-0.01,0.02-0.02
					c0.01-0.01,0-0.03-0.01-0.03c-0.1-0.05-0.2-0.11-0.28-0.19l-0.01-0.01c-0.02-0.02-0.04-0.04-0.05-0.05
					c-0.01-0.01-0.02-0.02-0.02-0.03l-0.01-0.01c-0.08-0.1-0.14-0.22-0.19-0.35c-0.07-0.21-0.06-0.43,0.01-0.64l0-0.01
					c0.23-0.53,0.84-0.79,1.36-0.59l0.05,0.02c0.02,0.01,0.03,0.01,0.06,0.02l0.05-0.02c0.18-0.28,0.56-0.38,0.94-0.24
					c0.41,0.16,0.62,0.62,0.47,1l-0.44,1.15c0,0.01,0,0.01,0,0.02c0,0.01,0.01,0.01,0.02,0.01c0.01,0,0.01,0,0.02,0
					c0.01,0,0.01-0.01,0.01-0.02l0.44-1.15c0.16-0.41-0.07-0.91-0.51-1.07c-0.38-0.15-0.77-0.06-0.98,0.22l-0.02,0.03l-0.1-0.04
					c-0.54-0.21-1.17,0.06-1.42,0.6l-0.02,0.05c0,0.01-0.01,0.01-0.01,0.02c-0.07,0.19-0.07,0.44,0.01,0.67
					c0.01,0.03,0.02,0.05,0.03,0.07c0.02,0.06,0.05,0.11,0.09,0.17l0.01,0.02c0.01,0.02,0.02,0.03,0.03,0.05
					c0.01,0.02,0.03,0.04,0.04,0.05l-0.02,0.05L12.35,37.42z"/>
			</g>
			<g>
				<path fill="#FF4438" d="M15.52,38.11l-0.03,0.07c-0.01,0.04-0.06,0.06-0.1,0.04l-1.05-0.41c-0.04-0.01-0.06-0.06-0.04-0.1
					l0.14-0.35c0.01-0.04,0-0.08-0.04-0.1l0,0c-0.04-0.01-0.08,0-0.1,0.04l-0.38,0.98c-0.01,0.04,0,0.08,0.04,0.1l0,0
					c0.04,0.01,0.08,0,0.1-0.04L14.19,38c0.01-0.04,0.06-0.06,0.1-0.04l1.05,0.41c0.04,0.01,0.06,0.06,0.04,0.1l-0.03,0.07
					c-0.01,0.04,0,0.08,0.04,0.1l0.07,0.03c0.04,0.01,0.06,0.06,0.04,0.1l-0.16,0.42c-0.01,0.04,0,0.08,0.04,0.1l0,0
					c0.04,0.01,0.08,0,0.1-0.04l0.16-0.42c0.01-0.04,0.06-0.06,0.1-0.04l0.07,0.03c0.04,0.01,0.08,0,0.1-0.04l0.16-0.42
					c0.01-0.04,0-0.08-0.04-0.1l-0.07-0.03c-0.04-0.01-0.06-0.06-0.04-0.1l0.16-0.42c0.01-0.04,0-0.08-0.04-0.1l0,0
					c-0.04-0.01-0.08,0-0.1,0.04l-0.16,0.42c-0.01,0.04-0.06,0.06-0.1,0.04l-0.07-0.03C15.58,38.05,15.53,38.07,15.52,38.11z
					 M15.88,38.41l-0.05,0.14c-0.01,0.04-0.06,0.06-0.1,0.04l-0.14-0.05c-0.04-0.01-0.06-0.06-0.04-0.1l0.05-0.14
					c0.01-0.04,0.06-0.06,0.1-0.04l0.14,0.05C15.88,38.33,15.9,38.37,15.88,38.41z"/>
				<path fill="#FF4438" d="M15.42,39.32c-0.01,0-0.03,0-0.04-0.01c-0.06-0.02-0.09-0.1-0.07-0.16l0.16-0.42c0-0.01,0-0.01,0-0.02
					c0-0.01-0.01-0.01-0.02-0.01l-0.07-0.03c-0.06-0.02-0.09-0.1-0.07-0.16l0.03-0.07c0.01-0.01,0-0.03-0.02-0.04L14.27,38
					c-0.01,0-0.01,0-0.02,0c-0.01,0-0.01,0.01-0.01,0.02l-0.14,0.35c-0.01,0.03-0.03,0.05-0.06,0.07c-0.03,0.01-0.06,0.01-0.09,0
					c-0.03-0.01-0.05-0.03-0.07-0.06c-0.01-0.03-0.01-0.06,0-0.09l0.38-0.98c0.02-0.06,0.09-0.09,0.16-0.07
					c0.06,0.02,0.09,0.1,0.07,0.16l-0.14,0.35c-0.01,0.01,0,0.03,0.02,0.04l1.05,0.41c0.01,0,0.01,0,0.02,0
					c0.01,0,0.01-0.01,0.01-0.02l0.03-0.07c0.01-0.03,0.03-0.05,0.06-0.07c0.03-0.01,0.06-0.01,0.09,0l0.07,0.03
					c0.01,0,0.01,0,0.02,0c0.01,0,0.01-0.01,0.01-0.02l0.16-0.42c0.01-0.03,0.03-0.05,0.06-0.07c0.03-0.01,0.06-0.01,0.09,0
					c0.03,0.01,0.05,0.03,0.07,0.06c0.01,0.03,0.01,0.06,0,0.09l-0.16,0.42c0,0.01,0,0.01,0,0.02c0,0.01,0.01,0.01,0.02,0.01
					l0.07,0.03c0.06,0.02,0.09,0.1,0.07,0.16l-0.16,0.42c-0.01,0.03-0.03,0.05-0.06,0.07c-0.03,0.01-0.06,0.01-0.09,0l-0.07-0.03
					c-0.01,0-0.01,0-0.02,0c-0.01,0-0.01,0.01-0.01,0.02l-0.16,0.42c-0.01,0.03-0.03,0.05-0.06,0.07
					C15.45,39.32,15.44,39.32,15.42,39.32z M14.26,37.91c0.01,0,0.03,0,0.04,0.01l1.05,0.41c0.06,0.02,0.09,0.1,0.07,0.16
					l-0.03,0.07c-0.01,0.01,0,0.03,0.02,0.04l0.07,0.03c0.03,0.01,0.05,0.03,0.07,0.06c0.01,0.03,0.01,0.06,0,0.09l-0.16,0.42
					c-0.01,0.01,0,0.03,0.02,0.04c0.01,0,0.01,0,0.02,0c0.01,0,0.01-0.01,0.01-0.02l0.16-0.42c0.01-0.03,0.03-0.05,0.06-0.07
					c0.03-0.01,0.06-0.01,0.09,0l0.07,0.03c0.01,0,0.01,0,0.02,0c0.01,0,0.01-0.01,0.01-0.02l0.16-0.42c0.01-0.01,0-0.03-0.02-0.04
					l-0.07-0.03c-0.06-0.02-0.09-0.1-0.07-0.16l0.16-0.42c0-0.01,0-0.01,0-0.02c0-0.01-0.01-0.01-0.02-0.01
					c-0.01-0.01-0.03,0-0.04,0.02l-0.16,0.42c-0.01,0.03-0.03,0.05-0.06,0.07c-0.03,0.01-0.06,0.01-0.09,0l-0.07-0.03
					c-0.01,0-0.01,0-0.02,0c-0.01,0-0.01,0.01-0.01,0.02l-0.03,0.07c-0.01,0.03-0.03,0.05-0.06,0.07c-0.03,0.01-0.06,0.01-0.09,0
					l-1.05-0.41c-0.06-0.02-0.09-0.1-0.07-0.16l0.14-0.35c0.01-0.01,0-0.03-0.02-0.04c-0.01-0.01-0.03,0-0.04,0.02l-0.38,0.98
					c0,0.01,0,0.01,0,0.02c0,0.01,0.01,0.01,0.02,0.01c0.01,0.01,0.03,0,0.04-0.02l0.14-0.35c0.01-0.03,0.03-0.05,0.06-0.07
					C14.22,37.91,14.24,37.91,14.26,37.91z M15.76,38.65c-0.01,0-0.03,0-0.04-0.01l-0.14-0.05c-0.06-0.02-0.09-0.1-0.07-0.16
					l0.05-0.14c0.01-0.03,0.03-0.05,0.06-0.07c0.03-0.01,0.06-0.01,0.09,0l0.14,0.05c0.03,0.01,0.05,0.03,0.07,0.06
					c0.01,0.03,0.01,0.06,0,0.09l-0.05,0.14c-0.01,0.03-0.03,0.05-0.06,0.07C15.79,38.64,15.78,38.65,15.76,38.65z M15.67,38.3
					c-0.01,0-0.02,0.01-0.03,0.02l-0.05,0.14c0,0.01,0,0.01,0,0.02c0,0.01,0.01,0.01,0.02,0.01l0.14,0.05c0.01,0,0.01,0,0.02,0
					c0.01,0,0.01-0.01,0.01-0.02l0.05-0.14c0-0.01,0-0.01,0-0.02c0-0.01-0.01-0.01-0.02-0.01l-0.14-0.05
					C15.68,38.3,15.68,38.3,15.67,38.3z"/>
			</g>
			<g>
				<path fill="#FF4438" d="M15.83,40.01L15.83,40.01c0.01-0.04,0-0.08-0.04-0.1l-0.42-0.16c-0.04-0.01-0.08,0-0.1,0.04l0,0
					c-0.01,0.04,0,0.08,0.04,0.1l0.42,0.16C15.77,40.06,15.82,40.04,15.83,40.01z"/>
				<path fill="#FF4438" d="M15.76,40.1c-0.01,0-0.03,0-0.04-0.01l-0.42-0.16c-0.03-0.01-0.05-0.03-0.07-0.06
					c-0.01-0.03-0.01-0.06,0-0.09c0.01-0.03,0.03-0.05,0.06-0.07c0.03-0.01,0.06-0.01,0.09,0l0.42,0.16
					c0.03,0.01,0.05,0.03,0.07,0.06c0.01,0.03,0.01,0.06,0,0.09c-0.01,0.03-0.03,0.05-0.06,0.07C15.8,40.1,15.78,40.1,15.76,40.1z
					 M15.34,39.79c0,0-0.01,0-0.01,0c-0.01,0-0.01,0.01-0.01,0.02c0,0.01,0,0.01,0,0.02c0,0.01,0.01,0.01,0.02,0.01L15.75,40
					c0.01,0,0.01,0,0.02,0c0.01,0,0.01-0.01,0.01-0.02h0c0-0.01,0-0.01,0-0.02c0-0.01-0.01-0.01-0.02-0.01l-0.42-0.16
					C15.35,39.79,15.35,39.79,15.34,39.79z"/>
			</g>
			<g>
				<path fill="#FF4438" d="M15.08,40.28c-0.03,0.08,0.01,0.16,0.09,0.19l0.28,0.11c0.08,0.03,0.16-0.01,0.19-0.09l0.05-0.14
					c0.03-0.08-0.01-0.16-0.09-0.19l-0.28-0.11c-0.08-0.03-0.16,0.01-0.19,0.09L15.08,40.28z M15.56,40.3l-0.05,0.14l-0.28-0.11
					l0.05-0.14L15.56,40.3z"/>
				<path fill="#FF4438" d="M15.5,40.64c-0.02,0-0.05,0-0.07-0.01l-0.28-0.11c-0.05-0.02-0.09-0.06-0.11-0.1
					c-0.02-0.05-0.02-0.1,0-0.15l0.05-0.14c0.04-0.1,0.15-0.15,0.26-0.11l0.28,0.11c0.1,0.04,0.15,0.15,0.11,0.26l-0.05,0.14
					c-0.02,0.05-0.06,0.09-0.1,0.11C15.56,40.63,15.53,40.64,15.5,40.64z M15.13,40.3c-0.01,0.03-0.01,0.05,0,0.08
					c0.01,0.03,0.03,0.04,0.06,0.05l0.28,0.11c0.03,0.01,0.05,0.01,0.08,0c0.03-0.01,0.04-0.03,0.05-0.06l0.05-0.14
					c0.02-0.05-0.01-0.11-0.06-0.13l-0.28-0.11c-0.05-0.02-0.11,0.01-0.13,0.06L15.13,40.3z M15.53,40.5l-0.37-0.14l0.09-0.23
					l0.37,0.14L15.53,40.5z M15.28,40.31l0.19,0.07l0.02-0.05l-0.19-0.07L15.28,40.31z"/>
			</g>
			<g>
				<path fill="#FF4438" d="M14.95,40.63L14.95,40.63c-0.01,0.04,0,0.08,0.04,0.1l0.42,0.16c0.04,0.01,0.08,0,0.1-0.04l0,0
					c0.01-0.04,0-0.08-0.04-0.1l-0.42-0.16C15.01,40.57,14.96,40.59,14.95,40.63z"/>
				<path fill="#FF4438" d="M15.44,40.94c-0.01,0-0.03,0-0.04-0.01l-0.42-0.16c-0.06-0.02-0.09-0.1-0.07-0.16h0
					c0.01-0.03,0.03-0.05,0.06-0.07c0.03-0.01,0.06-0.01,0.09,0l0.42,0.16c0.03,0.01,0.05,0.03,0.07,0.06
					c0.01,0.03,0.01,0.06,0,0.09c-0.01,0.03-0.03,0.05-0.06,0.07C15.47,40.94,15.46,40.94,15.44,40.94z M14.99,40.65
					c-0.01,0.01,0,0.03,0.02,0.04l0.42,0.16c0.01,0,0.01,0,0.02,0c0.01,0,0.01-0.01,0.01-0.02c0-0.01,0-0.01,0-0.02
					c0-0.01-0.01-0.01-0.02-0.01l-0.42-0.16c-0.01,0-0.01,0-0.02,0C15,40.64,14.99,40.64,14.99,40.65L14.99,40.65z"/>
			</g>
			<g>
				<path fill="#FF4438" d="M14.83,40.51l0.05-0.14c0.03-0.08-0.01-0.16-0.09-0.19l-0.28-0.11c-0.08-0.03-0.16,0.01-0.19,0.09
					l-0.05,0.14c-0.03,0.08,0.01,0.16,0.09,0.19l0.28,0.11C14.72,40.62,14.8,40.58,14.83,40.51z M14.41,40.34l0.05-0.14l0.28,0.11
					l-0.05,0.14L14.41,40.34z"/>
				<path fill="#FF4438" d="M14.69,40.65c-0.02,0-0.05,0-0.07-0.01l-0.28-0.11c-0.05-0.02-0.09-0.06-0.11-0.1
					c-0.02-0.05-0.02-0.1,0-0.15l0.05-0.14c0.02-0.05,0.06-0.09,0.1-0.11c0.05-0.02,0.1-0.02,0.15,0l0.28,0.11
					c0.05,0.02,0.09,0.06,0.11,0.1c0.02,0.05,0.02,0.1,0,0.15l-0.05,0.14c-0.02,0.05-0.06,0.09-0.1,0.11
					C14.75,40.64,14.72,40.65,14.69,40.65z M14.47,40.1c-0.01,0-0.03,0-0.04,0.01c-0.03,0.01-0.04,0.03-0.05,0.06l-0.05,0.14
					c-0.01,0.03-0.01,0.05,0,0.08c0.01,0.03,0.03,0.04,0.06,0.05l0.28,0.11c0.03,0.01,0.05,0.01,0.08,0
					c0.03-0.01,0.04-0.03,0.05-0.06h0l0.05-0.14c0.01-0.03,0.01-0.05,0-0.08c-0.01-0.03-0.03-0.04-0.06-0.05l-0.28-0.11
					C14.49,40.1,14.48,40.1,14.47,40.1z M14.72,40.51l-0.37-0.14l0.09-0.23l0.37,0.14L14.72,40.51z M14.47,40.32l0.19,0.07
					l0.02-0.05l-0.19-0.07L14.47,40.32z"/>
			</g>
			<g>
				<path fill="#FF4438" d="M14.46,39.8L14.46,39.8c-0.01,0.04,0,0.08,0.04,0.1l0.42,0.16c0.04,0.01,0.08,0,0.1-0.04l0,0
					c0.01-0.04,0-0.08-0.04-0.1l-0.42-0.16C14.52,39.74,14.48,39.76,14.46,39.8z"/>
				<path fill="#FF4438" d="M14.95,40.11c-0.01,0-0.03,0-0.04-0.01l-0.42-0.16c-0.06-0.02-0.09-0.1-0.07-0.16
					c0.01-0.03,0.03-0.05,0.06-0.07c0.03-0.01,0.06-0.01,0.09,0L15,39.87c0.03,0.01,0.05,0.03,0.07,0.06c0.01,0.03,0.01,0.06,0,0.09
					c-0.01,0.03-0.03,0.05-0.06,0.07C14.99,40.11,14.97,40.11,14.95,40.11z M14.53,39.8c0,0-0.01,0-0.01,0
					c-0.01,0-0.01,0.01-0.01,0.02h0c0,0.01,0,0.01,0,0.02c0,0.01,0.01,0.01,0.02,0.01l0.42,0.16c0.01,0,0.01,0,0.02,0
					c0.01,0,0.01-0.01,0.01-0.02c0-0.01,0-0.01,0-0.02c0-0.01-0.01-0.01-0.02-0.01l-0.42-0.16C14.54,39.8,14.54,39.8,14.53,39.8z"/>
			</g>
			<g>
				<path fill="#FF4438" d="M14.85,39.22c-0.08-0.03-0.16,0.01-0.19,0.09l-0.05,0.14c-0.03,0.08,0.01,0.16,0.09,0.19l0.28,0.11
					c0.08,0.03,0.16-0.01,0.19-0.09l0.05-0.14c0.03-0.08-0.01-0.16-0.09-0.19L14.85,39.22z M15.02,39.61l-0.28-0.11l0.05-0.14
					l0.28,0.11L15.02,39.61z"/>
				<path fill="#FF4438" d="M15.02,39.81c-0.02,0-0.05,0-0.07-0.01l-0.28-0.11c-0.05-0.02-0.09-0.06-0.11-0.1
					c-0.02-0.05-0.02-0.1,0-0.15l0.05-0.14c0.02-0.05,0.06-0.09,0.1-0.11c0.05-0.02,0.1-0.02,0.15,0l0.28,0.11
					c0.1,0.04,0.15,0.15,0.11,0.26l-0.05,0.14C15.17,39.76,15.1,39.81,15.02,39.81z M14.79,39.26c-0.01,0-0.03,0-0.04,0.01
					c-0.03,0.01-0.04,0.03-0.05,0.06l-0.05,0.14c-0.01,0.03-0.01,0.05,0,0.08c0.01,0.03,0.03,0.04,0.06,0.05l0.28,0.11
					c0.05,0.02,0.11-0.01,0.13-0.06l0.05-0.14c0.02-0.05-0.01-0.11-0.06-0.13l-0.28-0.11C14.82,39.26,14.8,39.26,14.79,39.26z
					 M15.05,39.67l-0.37-0.14l0.09-0.23l0.37,0.14L15.05,39.67z M14.8,39.48l0.19,0.07l0.02-0.05l-0.19-0.07L14.8,39.48z"/>
			</g>
			<g>
				<path fill="#FF4438" d="M15.94,39.72L15.94,39.72c0.01-0.04,0-0.08-0.04-0.1l-0.42-0.16c-0.04-0.01-0.08,0-0.1,0.04v0
					c-0.01,0.04,0,0.08,0.04,0.1l0.42,0.16C15.88,39.78,15.93,39.76,15.94,39.72z"/>
				<path fill="#FF4438" d="M15.87,39.82c-0.01,0-0.03,0-0.04-0.01l-0.42-0.16c-0.03-0.01-0.05-0.03-0.07-0.06
					c-0.01-0.03-0.01-0.06,0-0.09c0.01-0.03,0.03-0.05,0.06-0.07c0.03-0.01,0.06-0.01,0.09,0l0.42,0.16
					c0.03,0.01,0.05,0.03,0.07,0.06c0.01,0.03,0.01,0.06,0,0.09c-0.01,0.03-0.03,0.05-0.06,0.07
					C15.91,39.82,15.89,39.82,15.87,39.82z M15.45,39.51c0,0-0.01,0-0.01,0c-0.01,0-0.01,0.01-0.01,0.02c0,0.01,0,0.01,0,0.02
					c0,0.01,0.01,0.01,0.02,0.01l0.42,0.16c0.01,0,0.01,0,0.02,0c0.01,0,0.01-0.01,0.01-0.02c0-0.01,0-0.01,0-0.02
					c0-0.01-0.01-0.01-0.02-0.01l-0.42-0.16C15.46,39.51,15.45,39.51,15.45,39.51z"/>
			</g>
			<g>
				<path fill="#FF4438" d="M16.86,37.34L16.86,37.34c0.01-0.04,0-0.08-0.04-0.1l-0.42-0.16c-0.04-0.01-0.08,0-0.1,0.04l0,0
					c-0.01,0.04,0,0.08,0.04,0.1l0.42,0.16C16.8,37.4,16.85,37.38,16.86,37.34z"/>
				<path fill="#FF4438" d="M16.79,37.43c-0.01,0-0.03,0-0.04-0.01l-0.42-0.16c-0.03-0.01-0.05-0.03-0.07-0.06
					c-0.01-0.03-0.01-0.06,0-0.09c0.01-0.03,0.03-0.05,0.06-0.07c0.03-0.01,0.06-0.01,0.09,0l0.42,0.16
					c0.03,0.01,0.05,0.03,0.07,0.06c0.01,0.03,0.01,0.06,0,0.09c-0.01,0.03-0.03,0.05-0.06,0.07
					C16.83,37.43,16.81,37.43,16.79,37.43z M16.37,37.12c0,0-0.01,0-0.01,0c-0.01,0-0.01,0.01-0.01,0.02c0,0.01,0,0.01,0,0.02
					c0,0.01,0.01,0.01,0.02,0.01l0.42,0.16c0.01,0,0.01,0,0.02,0c0.01,0,0.01-0.01,0.01-0.02c0-0.01,0-0.01,0-0.02
					c0-0.01-0.01-0.01-0.02-0.01l-0.42-0.16C16.38,37.12,16.37,37.12,16.37,37.12z"/>
			</g>
			<g>
				<path fill="#FF4438" d="M16.8,37.07c0.08,0.03,0.16-0.01,0.19-0.09l0.05-0.14c0.03-0.08-0.01-0.16-0.09-0.19l-0.28-0.11
					c-0.08-0.03-0.16,0.01-0.19,0.09l-0.05,0.14c-0.03,0.08,0.01,0.16,0.09,0.19L16.8,37.07z M16.58,36.83l0.05-0.14l0.28,0.11
					l-0.05,0.14L16.58,36.83z"/>
				<path fill="#FF4438" d="M16.86,37.13c-0.02,0-0.05,0-0.07-0.01l-0.28-0.11c-0.05-0.02-0.09-0.06-0.11-0.1s-0.02-0.1,0-0.15
					l0.05-0.14c0.02-0.05,0.06-0.09,0.1-0.11c0.05-0.02,0.1-0.02,0.15,0l0.28,0.11c0.05,0.02,0.09,0.06,0.11,0.1
					c0.02,0.05,0.02,0.1,0,0.15l-0.05,0.14c-0.02,0.05-0.06,0.09-0.1,0.11C16.91,37.13,16.88,37.13,16.86,37.13z M16.63,36.58
					c-0.01,0-0.03,0-0.04,0.01c-0.03,0.01-0.04,0.03-0.05,0.06l-0.05,0.14c-0.01,0.03-0.01,0.05,0,0.08
					c0.01,0.03,0.03,0.04,0.06,0.05l0.28,0.11c0.03,0.01,0.05,0.01,0.08,0c0.03-0.01,0.04-0.03,0.05-0.06l0.05-0.14
					c0.01-0.03,0.01-0.05,0-0.08c-0.01-0.03-0.03-0.04-0.06-0.05l-0.28-0.11C16.66,36.58,16.64,36.58,16.63,36.58z M16.88,36.99
					l-0.37-0.14l0.09-0.23l0.37,0.14L16.88,36.99z M16.64,36.8l0.19,0.07l0.02-0.05l-0.19-0.07L16.64,36.8z"/>
			</g>
			<g>
				<path fill="#FF4438" d="M17.19,36.5L17.19,36.5c0.01-0.04,0-0.08-0.04-0.1l-0.42-0.16c-0.04-0.01-0.08,0-0.1,0.04l0,0
					c-0.01,0.04,0,0.08,0.04,0.1l0.42,0.16C17.13,36.56,17.17,36.54,17.19,36.5z"/>
				<path fill="#FF4438" d="M17.12,36.59c-0.01,0-0.03,0-0.04-0.01l-0.42-0.16c-0.03-0.01-0.05-0.03-0.07-0.06
					c-0.01-0.03-0.01-0.06,0-0.09c0.02-0.06,0.09-0.09,0.16-0.07l0.42,0.16c0.03,0.01,0.05,0.03,0.07,0.06
					c0.01,0.03,0.01,0.06,0,0.09c-0.01,0.03-0.03,0.05-0.06,0.07C17.15,36.59,17.13,36.59,17.12,36.59z M16.7,36.28
					c-0.01,0-0.02,0.01-0.03,0.02c0,0.01,0,0.01,0,0.02c0,0.01,0.01,0.01,0.02,0.01l0.42,0.16c0.01,0,0.01,0,0.02,0
					c0.01,0,0.01-0.01,0.01-0.02c0-0.01,0-0.01,0-0.02c0-0.01-0.01-0.01-0.02-0.01L16.7,36.28C16.7,36.28,16.7,36.28,16.7,36.28z"/>
			</g>
			<g>
				<path fill="#FF4438" d="M16.09,35.99c-0.08-0.03-0.16,0.01-0.19,0.09l-0.05,0.14c-0.03,0.08,0.01,0.16,0.09,0.19l0.28,0.11
					c0.08,0.03,0.16-0.01,0.19-0.09l0.05-0.14c0.03-0.08-0.01-0.16-0.09-0.19L16.09,35.99z M16.32,36.24l-0.05,0.14l-0.28-0.11
					l0.05-0.14L16.32,36.24z"/>
				<path fill="#FF4438" d="M16.26,36.58c-0.02,0-0.05,0-0.07-0.01l-0.28-0.11c-0.1-0.04-0.15-0.15-0.11-0.26l0.05-0.14
					c0.04-0.1,0.15-0.15,0.26-0.11l0.28,0.11c0.05,0.02,0.09,0.06,0.11,0.1c0.02,0.05,0.02,0.1,0,0.15l-0.05,0.14
					c-0.02,0.05-0.06,0.09-0.1,0.11C16.32,36.57,16.29,36.58,16.26,36.58z M16.04,36.03c-0.04,0-0.08,0.03-0.1,0.07l-0.05,0.14
					c-0.02,0.05,0.01,0.11,0.06,0.13l0.28,0.11c0.03,0.01,0.05,0.01,0.08,0c0.03-0.01,0.04-0.03,0.05-0.06l0.05-0.14
					c0.01-0.03,0.01-0.05,0-0.08c-0.01-0.03-0.03-0.04-0.06-0.05l-0.28-0.11C16.06,36.03,16.05,36.03,16.04,36.03z M16.29,36.44
					l-0.37-0.14l0.09-0.23l0.37,0.14L16.29,36.44z M16.04,36.25l0.19,0.07l0.02-0.05l-0.19-0.07L16.04,36.25z"/>
			</g>
			<g>
				<path fill="#FF4438" d="M15.71,36.57L15.71,36.57c-0.01,0.04,0,0.08,0.04,0.1l0.42,0.16c0.04,0.01,0.08,0,0.1-0.04l0,0
					c0.01-0.04,0-0.08-0.04-0.1l-0.42-0.16C15.77,36.51,15.72,36.53,15.71,36.57z"/>
				<path fill="#FF4438" d="M16.2,36.88c-0.01,0-0.03,0-0.04-0.01l-0.42-0.16c-0.03-0.01-0.05-0.03-0.07-0.06
					c-0.01-0.03-0.01-0.06,0-0.09c0.01-0.03,0.03-0.05,0.06-0.07c0.03-0.01,0.06-0.01,0.09,0l0.42,0.16
					c0.03,0.01,0.05,0.03,0.07,0.06c0.01,0.03,0.01,0.06,0,0.09c-0.01,0.03-0.03,0.05-0.06,0.07C16.23,36.88,16.22,36.88,16.2,36.88
					z M15.78,36.57c0,0-0.01,0-0.01,0c-0.01,0-0.01,0.01-0.01,0.02c0,0.01,0,0.01,0,0.02c0,0.01,0.01,0.01,0.02,0.01l0.42,0.16
					c0.01,0,0.01,0,0.02,0c0.01,0,0.01-0.01,0.01-0.02c0-0.01,0-0.01,0-0.02c0-0.01-0.01-0.01-0.02-0.01l-0.42-0.16
					C15.78,36.57,15.78,36.57,15.78,36.57z"/>
			</g>
			<g>
				<path fill="#FF4438" d="M15.77,36.84c-0.08-0.03-0.16,0.01-0.19,0.09l-0.05,0.14c-0.03,0.08,0.01,0.16,0.09,0.19l0.28,0.11
					c0.08,0.03,0.16-0.01,0.19-0.09l0.05-0.14c0.03-0.08-0.01-0.16-0.09-0.19L15.77,36.84z M15.99,37.08l-0.05,0.14l-0.28-0.11
					l0.05-0.14L15.99,37.08z"/>
				<path fill="#FF4438" d="M15.94,37.42c-0.02,0-0.05,0-0.07-0.01l-0.28-0.11c-0.05-0.02-0.09-0.06-0.11-0.1
					c-0.02-0.05-0.02-0.1,0-0.15l0.05-0.14c0.04-0.1,0.15-0.15,0.26-0.11l0.28,0.11c0.1,0.04,0.15,0.15,0.11,0.26l-0.05,0.14
					C16.09,37.37,16.02,37.42,15.94,37.42z M15.71,36.87c-0.04,0-0.08,0.03-0.1,0.07l-0.05,0.14c-0.02,0.05,0.01,0.11,0.06,0.13
					l0.28,0.11c0.05,0.02,0.11-0.01,0.13-0.06l0.05-0.14c0.02-0.05-0.01-0.11-0.06-0.13l-0.28-0.11
					C15.74,36.88,15.72,36.87,15.71,36.87z M15.97,37.29l-0.37-0.14l0.09-0.23l0.37,0.14L15.97,37.29z M15.72,37.09l0.19,0.07
					l0.02-0.05l-0.19-0.07L15.72,37.09z"/>
			</g>
			<g>
				<path fill="#FF4438" d="M16.75,37.62L16.75,37.62c0.01-0.04,0-0.08-0.04-0.1l-0.42-0.16c-0.04-0.01-0.08,0-0.1,0.04l0,0
					c-0.01,0.04,0,0.08,0.04,0.1l0.42,0.16C16.7,37.68,16.74,37.66,16.75,37.62z"/>
				<path fill="#FF4438" d="M16.68,37.72c-0.01,0-0.03,0-0.04-0.01l-0.42-0.16c-0.03-0.01-0.05-0.03-0.07-0.06
					c-0.01-0.03-0.01-0.06,0-0.09c0.01-0.03,0.03-0.05,0.06-0.07c0.03-0.01,0.06-0.01,0.09,0l0.42,0.16
					c0.03,0.01,0.05,0.03,0.07,0.06c0.01,0.03,0.01,0.06,0,0.09c-0.01,0.03-0.03,0.05-0.06,0.07C16.72,37.71,16.7,37.72,16.68,37.72
					z M16.26,37.4c0,0-0.01,0-0.01,0c-0.01,0-0.01,0.01-0.01,0.02c0,0.01,0,0.01,0,0.02c0,0.01,0.01,0.01,0.02,0.01l0.42,0.16
					c0.01,0,0.01,0,0.02,0c0.01,0,0.01-0.01,0.01-0.02c0-0.01,0-0.01,0-0.02c0-0.01-0.01-0.01-0.02-0.01l-0.42-0.16
					C16.27,37.4,16.27,37.4,16.26,37.4z"/>
			</g>
			<g>
				<path fill="#FF4438" d="M13.84,38.91L13.84,38.91c0.01-0.04,0-0.08-0.04-0.1l0,0c-0.04-0.01-0.08,0-0.1,0.04l0,0
					c-0.01,0.04,0,0.08,0.04,0.1l0,0C13.78,38.97,13.82,38.95,13.84,38.91z"/>
				<path fill="#FF4438" d="M13.77,39.01c-0.01,0-0.03,0-0.04-0.01c-0.03-0.01-0.05-0.03-0.07-0.06c-0.01-0.03-0.01-0.06,0-0.09
					c0.01-0.03,0.03-0.05,0.06-0.07c0.03-0.01,0.06-0.01,0.09,0c0.03,0.01,0.05,0.03,0.07,0.06c0.01,0.03,0.01,0.06,0,0.09
					c-0.01,0.03-0.03,0.05-0.06,0.07C13.8,39,13.78,39.01,13.77,39.01z M13.77,38.86c0,0-0.01,0-0.01,0c-0.01,0-0.01,0.01-0.01,0.02
					c0,0.01,0,0.01,0,0.02c0,0.01,0.01,0.01,0.02,0.01c0.01,0,0.01,0,0.02,0c0.01,0,0.01-0.01,0.01-0.02c0-0.01,0-0.01,0-0.02
					c0-0.01-0.01-0.01-0.02-0.01C13.77,38.86,13.77,38.86,13.77,38.86z"/>
			</g>
			<g>
				<path fill="#FF4438" d="M13.59,39.14L13.59,39.14c-0.01,0.04,0,0.08,0.04,0.1l0,0c0.04,0.01,0.08,0,0.1-0.04l0,0
					c0.01-0.04,0-0.08-0.04-0.1l0,0C13.65,39.08,13.6,39.1,13.59,39.14z"/>
				<path fill="#FF4438" d="M13.66,39.29c-0.01,0-0.03,0-0.04-0.01c-0.03-0.01-0.05-0.03-0.07-0.06c-0.01-0.03-0.01-0.06,0-0.09v0
					c0.02-0.06,0.1-0.09,0.16-0.07c0.03,0.01,0.05,0.03,0.07,0.06c0.01,0.03,0.01,0.06,0,0.09c-0.01,0.03-0.03,0.05-0.06,0.07
					C13.69,39.29,13.67,39.29,13.66,39.29z M13.63,39.16c0,0.01,0,0.01,0,0.02c0,0.01,0.01,0.01,0.02,0.01c0.01,0,0.01,0,0.02,0
					c0.01,0,0.01-0.01,0.01-0.02c0.01-0.01,0-0.03-0.02-0.04C13.65,39.13,13.64,39.14,13.63,39.16L13.63,39.16z"/>
			</g>
			<g>
				<path fill="#FF4438" d="M13.9,38.53L13.9,38.53c-0.04-0.01-0.08,0-0.1,0.04l0,0c-0.01,0.04,0,0.08,0.04,0.1l0,0
					c0.04,0.01,0.08,0,0.1-0.04h0C13.96,38.59,13.94,38.55,13.9,38.53z"/>
				<path fill="#FF4438" d="M13.87,38.73c-0.01,0-0.03,0-0.04-0.01c-0.03-0.01-0.05-0.03-0.07-0.06c-0.01-0.03-0.01-0.06,0-0.09
					c0.01-0.03,0.03-0.05,0.06-0.07c0.03-0.01,0.06-0.01,0.09,0c0.03,0.01,0.05,0.03,0.07,0.06c0.01,0.03,0.01,0.06,0,0.09
					c-0.01,0.03-0.03,0.05-0.06,0.07C13.91,38.72,13.89,38.73,13.87,38.73z M13.87,38.58c-0.01,0-0.02,0.01-0.03,0.02
					c0,0.01,0,0.01,0,0.02c0,0.01,0.01,0.01,0.02,0.01c0.01,0.01,0.03,0,0.04-0.02c0-0.01,0-0.01,0-0.02
					C13.9,38.59,13.89,38.58,13.87,38.58C13.88,38.58,13.88,38.58,13.87,38.58z"/>
			</g>
			<g>
				<path fill="#FF4438" d="M14.66,36.57L14.66,36.57c0.04,0.01,0.08,0,0.1-0.04l0,0c0.01-0.04,0-0.08-0.04-0.1l0,0
					c-0.04-0.01-0.08,0-0.1,0.04l0,0C14.6,36.51,14.62,36.56,14.66,36.57z"/>
				<path fill="#FF4438" d="M14.69,36.62c-0.01,0-0.03,0-0.04-0.01c-0.06-0.02-0.09-0.1-0.07-0.16c0.01-0.03,0.03-0.05,0.06-0.07
					c0.03-0.01,0.06-0.01,0.09,0c0.03,0.01,0.05,0.03,0.07,0.06c0.01,0.03,0.01,0.06,0,0.09c-0.01,0.03-0.03,0.05-0.06,0.07
					C14.72,36.62,14.7,36.62,14.69,36.62z M14.69,36.47c0,0-0.01,0-0.01,0c-0.01,0-0.01,0.01-0.01,0.02c-0.01,0.01,0,0.03,0.02,0.04
					c0.01,0.01,0.03,0,0.04-0.02c0-0.01,0-0.01,0-0.02c0-0.01-0.01-0.01-0.02-0.01C14.69,36.47,14.69,36.47,14.69,36.47z"/>
			</g>
			<g>
				<path fill="#FF4438" d="M14.55,36.85L14.55,36.85c0.04,0.01,0.08,0,0.1-0.04l0,0c0.01-0.04,0-0.08-0.04-0.1h0
					c-0.04-0.01-0.08,0-0.1,0.04l0,0C14.49,36.79,14.51,36.84,14.55,36.85z"/>
				<path fill="#FF4438" d="M14.58,36.9c-0.01,0-0.03,0-0.04-0.01l0,0c-0.03-0.01-0.05-0.03-0.07-0.06c-0.01-0.03-0.01-0.06,0-0.09
					c0.01-0.03,0.03-0.05,0.06-0.07c0.03-0.01,0.06-0.01,0.09,0c0.03,0.01,0.05,0.03,0.07,0.06c0.01,0.03,0.01,0.06,0,0.09
					c-0.01,0.03-0.03,0.05-0.06,0.07C14.61,36.9,14.6,36.9,14.58,36.9z M14.58,36.75c0,0-0.01,0-0.01,0c-0.01,0-0.01,0.01-0.01,0.02
					c0,0.01,0,0.01,0,0.02c0,0.01,0.01,0.01,0.02,0.01l0,0c0.01,0.01,0.03,0,0.04-0.02c0-0.01,0-0.01,0-0.02
					c0-0.01-0.01-0.01-0.02-0.01C14.59,36.75,14.58,36.75,14.58,36.75z"/>
			</g>
			<g>
				<path fill="#FF4438" d="M14.44,37.13L14.44,37.13c0.04,0.01,0.08,0,0.1-0.04l0,0c0.01-0.04,0-0.08-0.04-0.1l0,0
					c-0.04-0.01-0.08,0-0.1,0.04l0,0C14.39,37.07,14.4,37.12,14.44,37.13z"/>
				<path fill="#FF4438" d="M14.47,37.18c-0.01,0-0.03,0-0.04-0.01c-0.03-0.01-0.05-0.03-0.07-0.06c-0.01-0.03-0.01-0.06,0-0.09
					c0.01-0.03,0.03-0.05,0.06-0.07c0.03-0.01,0.06-0.01,0.09,0c0.06,0.02,0.09,0.1,0.07,0.16c-0.01,0.03-0.03,0.05-0.06,0.07
					C14.5,37.18,14.49,37.18,14.47,37.18z M14.47,37.03c-0.01,0-0.02,0.01-0.03,0.02c0,0.01,0,0.01,0,0.02
					c0,0.01,0.01,0.01,0.02,0.01c0.01,0,0.01,0,0.02,0c0.01,0,0.01-0.01,0.01-0.02c0.01-0.01,0-0.03-0.02-0.04
					C14.48,37.03,14.47,37.03,14.47,37.03z"/>
			</g>
		</g>
		<g>
			<path fill="#231F20" d="M41.37,23.83c1.33,2.42,2.09,5.2,2.09,8.15s-0.76,5.73-2.09,8.15v1.21c1.71-2.71,2.71-5.92,2.71-9.35
				c0-3.44-1-6.64-2.71-9.35V23.83z"/>
			<path fill="#231F20" d="M20.11,47.74c-1.19-0.48-2.3-1.08-3.34-1.8l-0.25,0.59c1.17,0.8,2.46,1.45,3.81,1.96
				C20.25,48.27,20.18,48.02,20.11,47.74z"/>
			<path fill="#231F20" d="M8.82,31.98c0,1.43,0.19,2.81,0.51,4.15l0.4-1.1c-0.18-0.99-0.29-2-0.29-3.05
				c0-7.63,5.05-14.1,11.98-16.24l-0.46-0.5C13.93,17.55,8.82,24.17,8.82,31.98z"/>
		</g>
	</g>
</g>
</svg>
