<?xml version="1.0" encoding="utf-8"?>
<!-- Generator: Adobe Illustrator 25.0.0, SVG Export Plug-In . SVG Version: 6.00 Build 0)  -->
<svg version="1.1" baseProfile="tiny" xmlns="http://www.w3.org/2000/svg" xmlns:xlink="http://www.w3.org/1999/xlink" x="0px"
	 y="0px" viewBox="0 0 55.67 51.76" overflow="visible" xml:space="preserve">
<g id="Calque_1">
</g>
<g id="Calque_2">
	<g>
		<path fill="#FF3E51" d="M32.93,41.03H9.43c-1.65,0-2.98-1.33-2.98-2.96c0,0,0,0,0,0c0-0.05,0-0.1,0-0.14c0-0.02,0-0.05,0-0.07
			V18.03c0-1.63,1.34-2.96,2.98-2.96h2.89c0.38,0,0.68,0.31,0.68,0.68v3.87h19.94c0.38,0,0.68,0.31,0.68,0.68v20.04
			C33.62,40.72,33.31,41.03,32.93,41.03z M6.83,38.07C6.83,38.07,6.83,38.07,6.83,38.07c0,1.42,1.17,2.58,2.6,2.58h23.51
			c0.16,0,0.3-0.13,0.3-0.3V20.31c0-0.16-0.13-0.3-0.3-0.3H13v15.78c0,0.38-0.31,0.68-0.68,0.68H8.45
			C7.56,36.48,6.83,37.19,6.83,38.07z M9.43,15.46c-1.43,0-2.6,1.16-2.6,2.58v18.87c0.36-0.49,0.96-0.82,1.62-0.82h3.87
			c0.16,0,0.3-0.13,0.3-0.3V15.76c0-0.16-0.13-0.3-0.3-0.3H9.43z"/>
		<path fill="#FF3E51" d="M31.89,36.93h-1.93c-0.27,0-0.48-0.22-0.48-0.48c0-0.27,0.22-0.48,0.48-0.48h0.65l-0.94-1.88h1.08v-7.11
			h-1.08l0.94-1.88h-0.65c-0.27,0-0.48-0.22-0.48-0.48s0.22-0.48,0.48-0.48h1.93c0.27,0,0.48,0.22,0.48,0.48s-0.22,0.48-0.48,0.48
			h-0.65l0.94,1.88h-1.04v7.11h1.04l-0.94,1.88h0.65c0.27,0,0.48,0.22,0.48,0.48C32.37,36.71,32.16,36.93,31.89,36.93z M29.96,36.35
			c-0.05,0-0.1,0.04-0.1,0.1s0.04,0.1,0.1,0.1h1.93c0.05,0,0.1-0.04,0.1-0.1s-0.04-0.1-0.1-0.1H29.96z M30.29,34.47l0.63,1.27
			l0.63-1.27H30.29z M30.76,26.6h0.81l-0.63-1.27l-0.63,1.27H30.76z M30.63,24.72h1.27c0.05,0,0.1-0.04,0.1-0.1s-0.04-0.1-0.1-0.1
			h-1.93c-0.05,0-0.1,0.04-0.1,0.1s0.04,0.1,0.1,0.1H30.63z"/>
		<path fill="#FF3E51" d="M24.32,39.88c-0.1,0-0.2-0.04-0.28-0.1c-0.09-0.08-0.15-0.2-0.15-0.32V39l-1.31,0.65l-0.19-0.11l0-0.11
			v-0.54h-1.53v0.86L19.37,39v0.44c0,0.21-0.15,0.4-0.35,0.43c-0.12,0.02-0.25-0.01-0.34-0.1c-0.09-0.08-0.15-0.2-0.15-0.32v-1.53
			c0-0.21,0.15-0.4,0.35-0.43c0.12-0.02,0.25,0.01,0.34,0.1c0.09,0.08,0.15,0.2,0.15,0.32v0.45l1.5-0.75v0.89h1.53v-0.67l0.18-0.12
			l0.1,0.05l1.21,0.61v-0.43c0-0.22,0.16-0.41,0.36-0.44c0.12-0.02,0.25,0.02,0.34,0.1c0.09,0.08,0.15,0.2,0.15,0.32v1.52
			c0,0.22-0.16,0.41-0.36,0.44C24.36,39.88,24.34,39.88,24.32,39.88z M24.28,38.78v0.68c0,0.02,0.01,0.03,0.01,0.03
			c0.01,0.01,0.02,0.01,0.03,0.01c0.01,0,0.03-0.03,0.03-0.06v-1.52c0-0.02-0.01-0.03-0.01-0.03c-0.01-0.01-0.02-0.01-0.03-0.01
			c-0.01,0-0.03,0.03-0.03,0.06V38.78z M18.95,37.88C18.95,37.88,18.94,37.88,18.95,37.88c-0.02,0-0.04,0.03-0.04,0.05v1.53
			c0,0.02,0.01,0.03,0.01,0.03c0.01,0.01,0.02,0.01,0.03,0.01c0.02,0,0.03-0.03,0.03-0.05v-1.53c0-0.02-0.01-0.03-0.01-0.03
			C18.97,37.88,18.96,37.88,18.95,37.88z M22.78,38.69l0,0.02v0.42l0.89-0.44l-0.89-0.44L22.78,38.69z M19.6,38.69l0.89,0.44v-0.89
			L19.6,38.69z"/>
		<g>
			<path fill="#FF3E51" d="M25.78,28.48c0-1.12-0.44-2.17-1.24-2.95c-0.8-0.79-1.85-1.21-2.97-1.19c-1.1,0.02-2.14,0.46-2.91,1.26
				c-0.78,0.8-1.19,1.85-1.18,2.95c0.02,1.06,0.43,2.06,1.16,2.82c0.41,0.43,0.65,0.98,0.68,1.57c-0.17,0.09-0.3,0.27-0.3,0.48v0.19
				c0,0.13,0.05,0.25,0.12,0.34c-0.08,0.09-0.12,0.21-0.12,0.34v0.19c0,0.13,0.05,0.25,0.12,0.34c-0.08,0.09-0.12,0.21-0.12,0.34
				v0.19c0,0.3,0.24,0.54,0.54,0.54h0.07c0,0.49,0.4,0.88,0.88,0.88h2.22c0.49,0,0.88-0.39,0.88-0.88h0.07
				c0.3,0,0.54-0.24,0.54-0.54v-0.19c0-0.13-0.05-0.25-0.12-0.34c0.08-0.09,0.12-0.21,0.12-0.34v-0.19c0-0.13-0.05-0.25-0.12-0.34
				c0.08-0.09,0.12-0.21,0.12-0.34v-0.19c0-0.21-0.12-0.39-0.29-0.48c0.03-0.59,0.28-1.15,0.7-1.59
				C25.38,30.57,25.78,29.55,25.78,28.48z M21.11,32.38h1.05l-0.06,0.49h-0.93L21.11,32.38z M21,33.26C21,33.26,21,33.26,21,33.26
				C21,33.26,21,33.26,21,33.26h1.28c0,0,0,0,0,0c0,0,0,0,0,0h1.42c0.08,0,0.15,0.07,0.15,0.15v0.19c0,0.08-0.07,0.15-0.15,0.15
				h-4.12c-0.08,0-0.15-0.07-0.15-0.15v-0.19c0-0.08,0.07-0.15,0.15-0.15H21z M23.84,34.29v0.19c0,0.08-0.07,0.15-0.15,0.15h-4.12
				c-0.08,0-0.15-0.07-0.15-0.15v-0.19c0-0.08,0.07-0.15,0.15-0.15h4.12C23.78,34.14,23.84,34.21,23.84,34.29z M22.75,36.39h-2.22
				c-0.27,0-0.49-0.22-0.49-0.49h3.21C23.24,36.17,23.02,36.39,22.75,36.39z M23.84,35.36c0,0.08-0.07,0.15-0.15,0.15h-0.26h-3.6
				h-0.26c-0.08,0-0.15-0.07-0.15-0.15v-0.19c0-0.08,0.07-0.15,0.15-0.15h4.12c0.08,0,0.15,0.07,0.15,0.15V35.36z M23.55,32.87
				h-1.06l0.5-4.05c0.01-0.11-0.06-0.21-0.17-0.22c-0.11-0.01-0.21,0.06-0.22,0.17l-0.4,3.22h-1.15l-0.4-3.22
				c-0.01-0.11-0.11-0.18-0.22-0.17c-0.11,0.01-0.18,0.11-0.17,0.22l0.5,4.05h-1.06c-0.04-0.67-0.32-1.3-0.79-1.78
				c-0.66-0.69-1.04-1.59-1.05-2.55c-0.01-1,0.36-1.95,1.07-2.67c0.7-0.72,1.64-1.13,2.64-1.14c1.01-0.01,1.97,0.37,2.69,1.08
				c0.72,0.71,1.12,1.66,1.12,2.67c0,0.97-0.37,1.89-1.04,2.59C23.88,31.57,23.6,32.21,23.55,32.87z"/>
			<path fill="#FF3E51" d="M16.52,28.48c0-0.11-0.09-0.2-0.2-0.2h-1.91c-0.11,0-0.2,0.09-0.2,0.2s0.09,0.2,0.2,0.2h1.91
				C16.43,28.68,16.52,28.59,16.52,28.48z"/>
			<path fill="#FF3E51" d="M28.86,28.28h-1.91c-0.11,0-0.2,0.09-0.2,0.2s0.09,0.2,0.2,0.2h1.91c0.11,0,0.2-0.09,0.2-0.2
				S28.97,28.28,28.86,28.28z"/>
			<path fill="#FF3E51" d="M17.74,32.1l-1.35,1.35c-0.08,0.08-0.08,0.2,0,0.28c0.04,0.04,0.09,0.06,0.14,0.06s0.1-0.02,0.14-0.06
				l1.35-1.35c0.08-0.08,0.08-0.2,0-0.28C17.94,32.02,17.82,32.02,17.74,32.1z"/>
			<path fill="#FF3E51" d="M25.39,24.92c0.05,0,0.1-0.02,0.14-0.06l1.35-1.35c0.08-0.08,0.08-0.2,0-0.28c-0.08-0.08-0.2-0.08-0.28,0
				l-1.35,1.35c-0.08,0.08-0.08,0.2,0,0.28C25.29,24.9,25.34,24.92,25.39,24.92z"/>
			<path fill="#FF3E51" d="M21.63,23.37c0.11,0,0.2-0.09,0.2-0.2v-1.91c0-0.11-0.09-0.2-0.2-0.2s-0.2,0.09-0.2,0.2v1.91
				C21.44,23.28,21.53,23.37,21.63,23.37z"/>
			<path fill="#FF3E51" d="M25.53,32.1c-0.08-0.08-0.2-0.08-0.28,0c-0.08,0.08-0.08,0.2,0,0.28l1.35,1.35
				c0.04,0.04,0.09,0.06,0.14,0.06c0.05,0,0.1-0.02,0.14-0.06c0.08-0.08,0.08-0.2,0-0.28L25.53,32.1z"/>
			<path fill="#FF3E51" d="M17.74,24.86c0.04,0.04,0.09,0.06,0.14,0.06s0.1-0.02,0.14-0.06c0.08-0.08,0.08-0.2,0-0.28l-1.35-1.35
				c-0.08-0.08-0.2-0.08-0.28,0c-0.08,0.08-0.08,0.2,0,0.28L17.74,24.86z"/>
		</g>
	</g>
	<g>
		<path fill="#FF3E51" d="M40.99,18.94L40.99,18.94c-0.24-0.08-0.5-0.01-0.66,0.19l-6.79,8.52l-0.01,0.62l7.1-8.9
			c0.04-0.05,0.1-0.08,0.16-0.08c0.02,0,0.05,0,0.07,0.01c0.08,0.03,0.14,0.11,0.14,0.2v26.29c0,0.11-0.09,0.21-0.21,0.21H19.84
			c-0.08,0-0.15-0.05-0.19-0.12c-0.03-0.07-0.02-0.16,0.02-0.22l3.76-4.71l-0.49,0l-3.56,4.47c-0.14,0.18-0.17,0.42-0.07,0.63
			c0.1,0.2,0.31,0.33,0.53,0.33H40.8c0.33,0,0.59-0.27,0.59-0.59V19.49C41.39,19.24,41.23,19.02,40.99,18.94z"/>
		<path fill="#FF3E51" d="M28.83,40.9l-0.48,0l-0.39,0.52c-0.14,0.18-0.16,0.42-0.06,0.62l0,0c0.1,0.2,0.3,0.33,0.53,0.33h8.38
			c0.33,0,0.59-0.27,0.59-0.59V30.74c0-0.25-0.16-0.48-0.4-0.56c-0.24-0.08-0.51,0-0.66,0.2l-2.85,3.75l-0.01,0.64l3.16-4.16
			c0.05-0.07,0.15-0.1,0.23-0.07c0.08,0.03,0.14,0.11,0.14,0.2v11.05c0,0.11-0.09,0.21-0.21,0.21h-8.38c-0.08,0-0.15-0.04-0.19-0.12
			c-0.04-0.07-0.03-0.15,0.02-0.22L28.83,40.9z"/>
	</g>
	<path fill="#FF3E51" d="M41.07,27.29h-2.08c-0.11,0-0.19-0.09-0.19-0.19s0.09-0.19,0.19-0.19h2.08c0.11,0,0.19,0.09,0.19,0.19
		S41.17,27.29,41.07,27.29z"/>
	<path fill="#FF3E51" d="M41.07,36.99h-2.08c-0.11,0-0.19-0.09-0.19-0.19c0-0.11,0.09-0.19,0.19-0.19h2.08
		c0.11,0,0.19,0.09,0.19,0.19C41.26,36.9,41.17,36.99,41.07,36.99z"/>
	<path fill="#FF3E51" d="M41.07,41.84h-2.08c-0.11,0-0.19-0.09-0.19-0.19s0.09-0.19,0.19-0.19h2.08c0.11,0,0.19,0.09,0.19,0.19
		S41.17,41.84,41.07,41.84z"/>
	<path fill="#FF3E51" d="M41.07,39.42h-1.04c-0.11,0-0.19-0.09-0.19-0.19s0.09-0.19,0.19-0.19h1.04c0.11,0,0.19,0.09,0.19,0.19
		S41.17,39.42,41.07,39.42z"/>
	<path fill="#FF3E51" d="M41.07,34.57h-1.04c-0.11,0-0.19-0.09-0.19-0.19c0-0.11,0.09-0.19,0.19-0.19h1.04
		c0.11,0,0.19,0.09,0.19,0.19C41.26,34.48,41.17,34.57,41.07,34.57z"/>
	<path fill="#FF3E51" d="M41.07,29.72h-1.04c-0.11,0-0.19-0.09-0.19-0.19s0.09-0.19,0.19-0.19h1.04c0.11,0,0.19,0.09,0.19,0.19
		S41.17,29.72,41.07,29.72z"/>
	<path fill="#FF3E51" d="M41.07,32.14h-2.08c-0.11,0-0.19-0.09-0.19-0.19c0-0.11,0.09-0.19,0.19-0.19h2.08
		c0.11,0,0.19,0.09,0.19,0.19C41.26,32.06,41.17,32.14,41.07,32.14z"/>
	<g>
		<path fill="#221E20" d="M15.37,18.02h1.07c2.84-2.04,6.31-3.25,10.06-3.25c4.24,0,8.12,1.54,11.13,4.07l0.43-0.47
			c-3.13-2.64-7.16-4.24-11.56-4.24C22.3,14.13,18.43,15.59,15.37,18.02z"/>
		<path fill="#221E20" d="M43.22,25.58v2.06c0.38,1.42,0.6,2.91,0.6,4.45s-0.22,3.03-0.6,4.45v2.06c0.79-2.02,1.24-4.21,1.24-6.51
			S44.01,27.6,43.22,25.58z"/>
		<path fill="#221E20" d="M33.69,47.82c-2.19,1.01-4.62,1.58-7.19,1.58c-5.63,0-10.62-2.71-13.78-6.88h-0.8
			c3.26,4.54,8.57,7.52,14.58,7.52c3.13,0,6.07-0.81,8.63-2.22H33.69z"/>
	</g>
</g>
</svg>
