<?xml version="1.0" encoding="utf-8"?>
<!-- Generator: Adobe Illustrator 25.0.0, SVG Export Plug-In . SVG Version: 6.00 Build 0)  -->
<svg version="1.1" baseProfile="tiny" xmlns="http://www.w3.org/2000/svg" xmlns:xlink="http://www.w3.org/1999/xlink" x="0px"
	 y="0px" viewBox="0 0 55.67 51.76" overflow="visible" xml:space="preserve">
<g id="Calque_1">
</g>
<g id="Calque_2">
	<g>
		<g>
			<path fill="#241F21" d="M9.16,31.79c0,7.86,5.15,14.53,12.26,16.83c-0.02-0.28-0.05-0.57-0.09-0.85
				c-6.62-2.3-11.4-8.58-11.4-15.98c0-5.65,2.79-10.64,7.06-13.72l-0.13-0.86C12.21,20.39,9.16,25.74,9.16,31.79z"/>
			<path fill="#241F21" d="M44.54,31.79c0-5.92-2.93-11.15-7.41-14.37l-0.08,0.9c4.07,3.09,6.72,7.97,6.72,13.47
				c0,6.9-4.16,12.84-10.09,15.47l-0.04,0.86C40.04,45.45,44.54,39.13,44.54,31.79z"/>
			<path fill="#FFFFFF" d="M44.69,31.79c0-6-2.99-11.31-7.54-14.54l-0.02,0.18c4.48,3.21,7.41,8.45,7.41,14.37
				c0,7.35-4.51,13.66-10.9,16.33l-0.01,0.16C40.12,45.6,44.69,39.22,44.69,31.79z"/>
			<path fill="#FFFFFF" d="M21.41,48.62c-7.1-2.3-12.26-8.97-12.26-16.83c0-6.05,3.05-11.39,7.7-14.58l-0.03-0.17
				c-4.72,3.21-7.82,8.63-7.82,14.75c0,2.84,0.69,5.52,1.87,7.91c0.76,1.34,1.58,2.56,2.41,3.66c2.13,2.5,4.94,4.4,8.14,5.43
				C21.42,48.73,21.42,48.67,21.41,48.62z"/>
			<path fill="#FFFFFF" d="M43.77,31.79c0-5.5-2.64-10.37-6.72-13.47l-0.02,0.18c3.99,3.07,6.58,7.88,6.58,13.29
				c0,6.81-4.09,12.68-9.94,15.3l-0.01,0.17C39.61,44.62,43.77,38.68,43.77,31.79z"/>
			<path fill="#FFFFFF" d="M9.93,31.79c0,7.39,4.77,13.68,11.4,15.98c-0.01-0.06-0.02-0.11-0.03-0.17
				c-6.52-2.3-11.22-8.51-11.22-15.81c0-5.57,2.74-10.5,6.93-13.55l-0.03-0.17C12.72,21.14,9.93,26.14,9.93,31.79z"/>
		</g>
		<g>
			<path fill="none" d="M21.15,39.79c0.06,0.02,1.39,0.52,2.23,1.34c0,0,0.01,0.01,0.01,0.01c0.11-0.21,0.36-0.9-0.43-1.76
				c-0.61-0.67-1.76-1.15-2.16-1.3c-0.02,0.16-0.02,0.6,0.32,1.7C21.13,39.78,21.14,39.78,21.15,39.79z"/>
			<path fill="none" d="M23.12,41.4c-0.64-0.62-1.62-1.06-1.97-1.21c-0.05,0.31-0.12,1.09,0.46,1.56l0.18,0.15
				c0.23,0.19,0.43,0.35,0.6,0.49c0.02,0.01,0.04,0.03,0.06,0.05c0.32,0.24,0.56,0.39,0.84,0.49c0.16,0.06,0.33,0.02,0.42-0.1
				c0.15-0.19,0.09-0.55-0.18-0.94C23.44,41.73,23.3,41.57,23.12,41.4z"/>
			<path fill="none" d="M22.22,36.3v-7.1c-0.1,0.04-0.21,0.07-0.33,0.07c-0.07,0-0.14-0.02-0.21-0.03l0.08,6.82
				C21.93,36.14,22.08,36.22,22.22,36.3z"/>
			<path fill="none" d="M21.36,33.64l-1.12-0.57c-0.07-0.05-0.25-0.13-0.39-0.13c-0.04,0-0.08,0.01-0.12,0.03
				c-0.13,0.07-0.16,0.29-0.17,0.47c-0.04,1.08,0.26,1.91,1.83,2.44L21.36,33.64z"/>
			<path fill="none" d="M23.04,38.92c0.09-0.25,0.17-0.68,0.02-1.14c-0.19-0.58-0.72-1.06-1.56-1.43c-0.04-0.02-0.07-0.04-0.09-0.08
				c-0.31-0.1-0.57-0.21-0.8-0.32c-0.1,0.37-0.26,1.39,0.19,1.72C21,37.74,22.24,38.2,23.04,38.92z"/>
			<path fill="none" d="M26.78,41.12c-0.24,0-0.44,0.2-0.44,0.44S26.54,42,26.78,42c0.24,0,0.44-0.2,0.44-0.44
				S27.02,41.12,26.78,41.12z"/>
			<path fill="none" d="M28.74,40.52l-4.85-0.03c0.03,0.53-0.2,0.89-0.23,0.93c0.07,0.09,0.14,0.17,0.19,0.25
				c0.26,0.39,0.33,0.7,0.32,0.93l4.68,0.08C28.69,41.85,28.67,41.13,28.74,40.52z M26.78,42.38c-0.45,0-0.81-0.37-0.81-0.82
				c0-0.45,0.37-0.82,0.81-0.82c0.45,0,0.82,0.37,0.82,0.82C27.6,42.01,27.23,42.38,26.78,42.38z"/>
			<path fill="none" d="M23.42,22.92v1.28c0.12,0,0.24-0.01,0.37-0.01v-1.27L23.42,22.92z"/>
			<path fill="none" d="M27.8,19.99c-0.2,0-0.36,0.16-0.36,0.36c0,0.2,0.16,0.36,0.36,0.36c0.2,0,0.36-0.16,0.36-0.36
				C28.17,20.15,28,19.99,27.8,19.99z"/>
			<path fill="none" d="M21.87,28.9c0.39-0.02,0.71-0.36,0.86-0.56c-0.56,0.02-1.14,0.04-1.74,0.06
				C21.29,28.74,21.58,28.91,21.87,28.9z"/>
			<path fill="none" d="M22.59,36.54c0,0.01,0,0.01,0,0.02c0.41,0.32,0.69,0.69,0.83,1.12c0.23,0.68,0.02,1.29-0.09,1.55
				c0.27,0.32,0.42,0.62,0.5,0.89l4.97,0.03c0.45-2.28,2.26-2.9,2.28-2.91c0.01,0,0.02-0.01,0.04-0.01v-3.85
				c0-0.01,0-0.35,0.12-0.78v-3.33c-0.54-0.05-1.02-0.3-1.45-0.75c-0.3,0.27-0.97,0.77-1.76,0.77c-0.01,0-0.03,0-0.04,0
				c-0.57-0.01-1.09-0.28-1.55-0.79c-0.35,0.29-1.11,0.83-1.97,0.78c-0.54-0.02-1.03-0.26-1.46-0.7c-0.1,0.13-0.25,0.3-0.45,0.43
				c0.01,0.03,0.03,0.05,0.03,0.08V36.54z M30.28,29.81c0-0.1,0.08-0.19,0.19-0.19s0.19,0.08,0.19,0.19v1.47
				c0,0.1-0.08,0.19-0.19,0.19s-0.19-0.08-0.19-0.19V29.81z M30.28,31.91c0-0.1,0.08-0.19,0.19-0.19s0.19,0.08,0.19,0.19v0.44
				c0,0.1-0.08,0.19-0.19,0.19s-0.19-0.08-0.19-0.19V31.91z M23.51,34.28c0-0.73,0.6-1.33,1.33-1.33h4.19c0.73,0,1.33,0.6,1.33,1.33
				v0.27c0,0.73-0.6,1.33-1.33,1.33h-4.19c-0.73,0-1.33-0.6-1.33-1.33V34.28z"/>
			<path fill="none" d="M26.15,19.99c-0.2,0-0.36,0.16-0.36,0.36c0,0.2,0.16,0.36,0.36,0.36c0.2,0,0.36-0.16,0.36-0.36
				C26.51,20.15,26.35,19.99,26.15,19.99z"/>
			<path fill="none" d="M32.06,31.39v-2.18c-0.14,0.04-0.29,0.06-0.44,0.07v2.54C31.73,31.66,31.88,31.51,32.06,31.39z"/>
			<path fill="none" d="M24.84,35.5h4.19c0.52,0,0.95-0.43,0.95-0.95v-0.27c0-0.52-0.43-0.95-0.95-0.95h-4.19
				c-0.52,0-0.95,0.43-0.95,0.95v0.27C23.88,35.08,24.31,35.5,24.84,35.5z M27.93,33.97c0.12-0.12,0.27-0.18,0.44-0.18
				c0.17,0,0.32,0.06,0.44,0.18c0.03,0.03,0.04,0.06,0.04,0.09c0,0.04-0.01,0.07-0.04,0.09c-0.03,0.03-0.06,0.04-0.09,0.04
				c-0.04,0-0.07-0.01-0.09-0.04c-0.07-0.07-0.16-0.11-0.26-0.11s-0.19,0.04-0.26,0.11c-0.07,0.07-0.11,0.16-0.11,0.26
				c0,0.1,0.04,0.19,0.11,0.26c0.07,0.07,0.16,0.11,0.26,0.11s0.19-0.04,0.26-0.11c0.03-0.03,0.06-0.04,0.09-0.04
				c0.04,0,0.07,0.01,0.09,0.04c0.03,0.03,0.04,0.06,0.04,0.09c0,0.04-0.01,0.07-0.04,0.09c-0.12,0.12-0.27,0.18-0.44,0.18
				c-0.17,0-0.32-0.06-0.44-0.18c-0.12-0.12-0.18-0.27-0.18-0.44C27.75,34.24,27.81,34.1,27.93,33.97z M27.28,33.92
				c0-0.04,0.01-0.07,0.04-0.09c0.03-0.03,0.06-0.04,0.09-0.04c0.04,0,0.07,0.01,0.09,0.04c0.03,0.03,0.04,0.06,0.04,0.09v0.99
				c0,0.04-0.01,0.07-0.04,0.09c-0.03,0.03-0.06,0.04-0.09,0.04c-0.04,0-0.07-0.01-0.09-0.04c-0.03-0.03-0.04-0.06-0.04-0.09V33.92z
				 M26.19,33.92c0-0.04,0.01-0.07,0.04-0.09c0.03-0.03,0.06-0.04,0.09-0.04c0.04,0,0.07,0.01,0.09,0.04
				c0.03,0.03,0.04,0.06,0.04,0.09v0.86h0.53c0.04,0,0.07,0.01,0.09,0.04c0.03,0.03,0.04,0.06,0.04,0.09c0,0.04-0.01,0.07-0.04,0.09
				c-0.03,0.03-0.06,0.04-0.09,0.04h-0.66c-0.04,0-0.07-0.01-0.09-0.04c-0.03-0.03-0.04-0.06-0.04-0.09V33.92z M25.09,33.97
				c0.12-0.12,0.27-0.18,0.44-0.18s0.32,0.06,0.44,0.18c0.03,0.03,0.04,0.06,0.04,0.09c0,0.04-0.01,0.07-0.04,0.09
				c-0.03,0.03-0.06,0.04-0.09,0.04c-0.04,0-0.07-0.01-0.09-0.04c-0.07-0.07-0.16-0.11-0.26-0.11s-0.19,0.04-0.26,0.11
				c-0.07,0.07-0.11,0.16-0.11,0.26c0,0.1,0.04,0.19,0.11,0.26c0.07,0.07,0.16,0.11,0.26,0.11s0.19-0.04,0.26-0.11
				c0.03-0.03,0.06-0.04,0.09-0.04c0.04,0,0.07,0.01,0.09,0.04c0.03,0.03,0.04,0.06,0.04,0.09c0,0.04-0.01,0.07-0.04,0.09
				c-0.12,0.12-0.27,0.18-0.44,0.18s-0.32-0.06-0.44-0.18c-0.12-0.12-0.18-0.27-0.18-0.44C24.9,34.24,24.97,34.1,25.09,33.97z"/>
			<path fill="none" d="M29.54,24.29v-1.41l-5.37,0.04v1.27C25.6,24.16,27.5,24.21,29.54,24.29z"/>
			<path fill="none" d="M29.91,24.3c0.12,0,0.25,0.01,0.37,0.01v-1.45l-0.37,0L29.91,24.3C29.91,24.3,29.91,24.3,29.91,24.3z"/>
			<path fill="none" d="M23.25,22.54l0.74-0.01c0,0,0,0,0,0s0,0,0,0l10.16-0.07c0.31,0,0.57-0.25,0.59-0.56l0.55-8.82
				c0.01-0.16-0.05-0.32-0.16-0.44c-0.11-0.12-0.26-0.19-0.42-0.19l-15.58-0.31c0,0-0.01,0-0.01,0c-0.16,0-0.3,0.06-0.41,0.17
				c-0.11,0.11-0.18,0.26-0.18,0.42l0.96,9.21c0,0.18,0.06,0.33,0.18,0.44c0.11,0.11,0.26,0.16,0.42,0.17l3.15-0.02
				c0.01,0,0.01-0.01,0.01-0.01C23.24,22.53,23.24,22.54,23.25,22.54z M26.15,21.09c-0.41,0-0.74-0.33-0.74-0.74
				c0-0.41,0.33-0.74,0.74-0.74c0.41,0,0.74,0.33,0.74,0.74C26.89,20.76,26.56,21.09,26.15,21.09z M27.8,21.09
				c-0.41,0-0.74-0.33-0.74-0.74c0-0.41,0.33-0.74,0.74-0.74c0.41,0,0.74,0.33,0.74,0.74C28.54,20.76,28.21,21.09,27.8,21.09z
				 M34.36,20.45c-0.01,0.1-0.09,0.18-0.19,0.18c0,0-0.01,0-0.01,0c-0.1-0.01-0.18-0.1-0.18-0.2L34,20.17
				c0.01-0.1,0.09-0.18,0.2-0.18c0.1,0.01,0.18,0.1,0.18,0.2L34.36,20.45z M34.43,19.34c-0.01,0.1-0.09,0.18-0.19,0.18
				c0,0-0.01,0-0.01,0c-0.1-0.01-0.18-0.1-0.18-0.2l0.06-1.02c0.01-0.1,0.09-0.19,0.2-0.18c0.1,0.01,0.18,0.1,0.18,0.2L34.43,19.34z
				 M32.75,12.95l1.13,0.02c0.25,0,0.48,0.11,0.65,0.29c0.17,0.18,0.25,0.42,0.24,0.67l-0.2,3.17c-0.01,0.1-0.09,0.18-0.19,0.18
				c0,0-0.01,0-0.01,0c-0.1-0.01-0.18-0.1-0.18-0.2l0.2-3.17c0.01-0.15-0.04-0.29-0.14-0.39c-0.1-0.11-0.23-0.17-0.38-0.17
				l-1.13-0.02c-0.1,0-0.19-0.09-0.18-0.19C32.56,13.03,32.64,12.94,32.75,12.95z M30.71,12.91C30.71,12.91,30.72,12.91,30.71,12.91
				l0.95,0.02c0.1,0,0.19,0.09,0.18,0.19c0,0.1-0.09,0.18-0.19,0.18c0,0,0,0,0,0l-0.94-0.02c-0.1,0-0.19-0.09-0.18-0.19
				C30.53,12.99,30.61,12.91,30.71,12.91z M25.49,16.04c0.08-0.06,0.2-0.04,0.26,0.04l0.57,0.78V14.4c0-0.1,0.08-0.19,0.19-0.19
				s0.19,0.08,0.19,0.19v2.5l0.52-0.81c0.06-0.09,0.18-0.11,0.26-0.06c0.09,0.06,0.11,0.17,0.06,0.26l-0.7,1.07
				c-0.07,0.1-0.18,0.16-0.3,0.17c0,0-0.01,0-0.01,0c-0.12,0-0.23-0.06-0.3-0.15l-0.78-1.08C25.38,16.22,25.4,16.1,25.49,16.04z
				 M19.51,13.06c-0.1,0-0.19-0.09-0.18-0.19c0-0.1,0.09-0.18,0.19-0.18c0,0,0,0,0,0l3.17,0.06c0.1,0,0.19,0.09,0.18,0.19
				c0,0.1-0.09,0.18-0.19,0.18c0,0,0,0,0,0L19.51,13.06z M22.28,15.11c0.02-0.1,0.12-0.17,0.22-0.15l1.41,0.28
				c0.32,0.06,0.58,0.31,0.65,0.63l0.54,2.25h3.5c0.07,0,0.13-0.04,0.15-0.11l0.53-1.64c0.02-0.05,0.01-0.1-0.02-0.14
				c-0.03-0.04-0.07-0.06-0.12-0.06h-0.78c-0.1,0-0.19-0.08-0.19-0.19s0.08-0.19,0.19-0.19h0.78c0.17,0,0.33,0.08,0.43,0.22
				c0.1,0.14,0.13,0.31,0.08,0.48l-0.53,1.64c-0.07,0.22-0.27,0.37-0.51,0.37h-3.41l0.09,0.37c0.04,0.15,0.17,0.25,0.32,0.25h3.3
				c0.1,0,0.19,0.08,0.19,0.19c0,0.1-0.08,0.19-0.19,0.19h-3.3c-0.33,0-0.61-0.22-0.68-0.54l-0.72-3c-0.04-0.18-0.18-0.31-0.36-0.35
				l-1.41-0.28C22.32,15.32,22.26,15.22,22.28,15.11z"/>
			<path fill="none" d="M22.39,24.63c-0.29,0.03-0.55,0.24-0.67,0.57c-0.44,1.14-0.44,1.14-1.09,2.81c-0.01,0.02,0,0.04,0,0.04
				c2.17-0.1,4.16-0.14,5.9-0.14c3.45,0,5.93,0.14,6.83,0.2l-1.28-2.98c-0.1-0.23-0.3-0.38-0.51-0.39
				C27.7,24.58,23.9,24.46,22.39,24.63z M22.25,25.83c-0.09,0-0.18-0.07-0.19-0.17c-0.01-0.1,0.06-0.2,0.17-0.21
				c0.28-0.03,0.55-0.06,0.82-0.08c0.1-0.01,0.19,0.07,0.2,0.17c0.01,0.1-0.07,0.19-0.17,0.2c-0.27,0.02-0.54,0.05-0.82,0.08
				C22.27,25.83,22.26,25.83,22.25,25.83z M23.39,27.6c-0.04,0.05-0.1,0.08-0.16,0.08c-0.04,0-0.07-0.01-0.11-0.03
				c-0.09-0.06-0.11-0.18-0.05-0.26c0.68-0.99,0.89-2.44,0.89-2.45c0.01-0.1,0.11-0.18,0.21-0.16c0.1,0.01,0.17,0.11,0.16,0.21
				C24.34,25.05,24.12,26.53,23.39,27.6z M31.45,25.52c0.18,0.02,0.28,0.04,0.28,0.04c0.1,0.02,0.17,0.11,0.16,0.22
				c-0.01,0.09-0.09,0.16-0.19,0.16c-0.01,0-0.02,0-0.03,0c0,0-0.1-0.02-0.27-0.04c-0.1-0.01-0.18-0.11-0.16-0.21
				S31.34,25.5,31.45,25.52z M30.06,25.36c0.31,0.02,0.52,0.05,0.71,0.08l0.26,0.03c0.1,0.01,0.18,0.11,0.17,0.21
				c-0.01,0.1-0.09,0.17-0.19,0.17c-0.01,0-0.01,0-0.02,0l-0.26-0.03c-0.19-0.02-0.38-0.05-0.69-0.07c-0.1-0.01-0.18-0.1-0.17-0.2
				C29.87,25.43,29.96,25.35,30.06,25.36z M29.87,27.34c0.02,0.1-0.05,0.2-0.16,0.21c-0.01,0-0.02,0-0.03,0
				c-0.09,0-0.17-0.07-0.19-0.16l-0.05-0.35c-0.02-0.1,0.05-0.2,0.16-0.21c0.1-0.01,0.2,0.06,0.21,0.16L29.87,27.34z M29.29,24.81
				c0.1-0.02,0.2,0.05,0.22,0.16l0.25,1.54c0.02,0.1-0.05,0.2-0.16,0.22c-0.01,0-0.02,0-0.03,0c-0.09,0-0.17-0.07-0.19-0.16
				l-0.25-1.54C29.12,24.93,29.19,24.83,29.29,24.81z M27.21,25.23c0.54,0.01,0.89,0.02,1.35,0.05c0.1,0,0.19,0.09,0.19,0.2
				c0,0.1-0.08,0.18-0.18,0.18c0,0-0.01,0-0.01,0l-0.02,0c-0.46-0.02-0.8-0.04-1.34-0.05c-0.1,0-0.19-0.09-0.19-0.19
				C27.03,25.31,27.11,25.21,27.21,25.23z M26.38,24.89c-0.01-0.1,0.07-0.19,0.17-0.2c0.11-0.01,0.19,0.07,0.2,0.17
				c0,0.05,0.09,1.16-0.15,2.54c-0.02,0.09-0.1,0.16-0.19,0.16c-0.01,0-0.02,0-0.03,0c-0.1-0.02-0.17-0.12-0.15-0.22
				C26.46,26.01,26.38,24.9,26.38,24.89z M25.4,25.24l0.2-0.01c0.1,0,0.18-0.01,0.34-0.01c0.09-0.02,0.19,0.08,0.19,0.19
				c0,0.1-0.08,0.19-0.19,0.19c-0.16,0-0.23,0-0.33,0.01l-0.2,0.01c0,0,0,0,0,0c-0.1,0-0.19-0.08-0.19-0.18
				C25.21,25.33,25.29,25.24,25.4,25.24z M25.1,25.43c0,0.1-0.08,0.19-0.18,0.19l-0.01-0.19l-0.02,0.19c-0.01,0-0.03,0-0.07,0.01
				c0,0,0,0-0.01,0c-0.1,0-0.18-0.08-0.19-0.18c0-0.1,0.08-0.19,0.18-0.2c0.03,0,0.05-0.01,0.09-0.01
				C25.02,25.25,25.1,25.33,25.1,25.43z"/>
			<path fill="none" d="M24.48,28.91c0.68,0.03,1.3-0.37,1.64-0.63c-0.89,0-1.84,0.01-2.84,0.04C23.63,28.7,24.04,28.89,24.48,28.91
				z"/>
			<path fill="none" d="M28,28.92c0.01,0,0.02,0,0.03,0c0.61,0,1.14-0.36,1.43-0.61c-0.81-0.02-1.73-0.03-2.72-0.04
				C27.12,28.7,27.54,28.91,28,28.92z"/>
			<path fill="none" d="M31.33,28.91c0.58,0.03,1.14-0.23,1.49-0.46c-0.61-0.04-1.53-0.08-2.69-0.12
				C30.49,28.69,30.89,28.88,31.33,28.91z"/>
			<path fill="#FF4538" d="M30.47,24.56c-0.1,0-0.19-0.08-0.19-0.19v-0.06c-0.12,0-0.25-0.01-0.37-0.01c0,0.1-0.08,0.18-0.19,0.18
				c-0.1,0-0.19-0.08-0.19-0.19v-0.01c-2.04-0.07-3.94-0.12-5.37-0.11v0.08c0,0.1-0.08,0.19-0.19,0.19s-0.19-0.08-0.19-0.19v-0.08
				c-0.13,0-0.25,0.01-0.37,0.01v0.15c0,0.1-0.08,0.19-0.19,0.19c-0.1,0-0.19-0.08-0.19-0.19V24.2c-0.27,0.01-0.5,0.03-0.7,0.05
				c-0.44,0.05-0.8,0.35-0.98,0.81c-0.44,1.14-0.44,1.14-1.09,2.81c-0.05,0.14-0.04,0.28,0.04,0.39c0.05,0.07,0.12,0.12,0.2,0.14
				c0.26,0.36,0.53,0.59,0.8,0.73c0.02-0.09,0.08-0.16,0.17-0.16c0.09,0.01,0.19,0.08,0.19,0.19l0,0.09
				c0.07,0.01,0.14,0.03,0.21,0.03c0.12,0,0.22-0.03,0.33-0.07v-0.1c0-0.1,0.08-0.19,0.19-0.19c0.07,0,0.12,0.05,0.16,0.11
				c0.19-0.14,0.35-0.3,0.45-0.43c0.43,0.44,0.92,0.67,1.46,0.7c0.86,0.05,1.62-0.49,1.97-0.78c0.46,0.51,0.98,0.78,1.55,0.79
				c0.01,0,0.03,0,0.04,0c0.8,0,1.46-0.5,1.76-0.77c0.42,0.45,0.91,0.69,1.45,0.75v-0.03c0-0.1,0.08-0.19,0.19-0.19
				s0.19,0.08,0.19,0.19v0.04c0.15-0.01,0.3-0.04,0.44-0.07v-0.17c0-0.1,0.08-0.19,0.19-0.19s0.19,0.08,0.19,0.19v0.04
				c0.49-0.2,0.86-0.49,0.99-0.6c0.1-0.02,0.19-0.07,0.24-0.15c0.08-0.11,0.09-0.25,0.04-0.37l-1.28-2.98
				c-0.15-0.36-0.48-0.6-0.84-0.62c-0.31-0.01-0.62-0.02-0.93-0.04v0.05C30.66,24.48,30.58,24.56,30.47,24.56z M21.87,28.9
				c-0.29,0.01-0.58-0.16-0.88-0.5c0.59-0.03,1.17-0.05,1.74-0.06C22.58,28.54,22.26,28.88,21.87,28.9z M24.48,28.91
				c-0.44-0.02-0.85-0.22-1.21-0.59c1-0.02,1.95-0.04,2.84-0.04C25.78,28.54,25.16,28.94,24.48,28.91z M28.03,28.92
				c-0.01,0-0.02,0-0.03,0c-0.45-0.01-0.87-0.23-1.26-0.64c1,0,1.91,0.02,2.72,0.04C29.17,28.56,28.63,28.92,28.03,28.92z
				 M31.33,28.91c-0.44-0.03-0.84-0.22-1.2-0.57c1.16,0.04,2.08,0.08,2.69,0.12C32.47,28.68,31.92,28.95,31.33,28.91z M32.08,25.13
				l1.28,2.98c-0.9-0.06-3.38-0.2-6.83-0.2c-1.74,0-3.74,0.04-5.9,0.14c0,0-0.01-0.02,0-0.04c0.65-1.67,0.65-1.67,1.09-2.81
				c0.13-0.33,0.38-0.54,0.67-0.57c1.51-0.16,5.31-0.04,9.19,0.11C31.78,24.75,31.98,24.9,32.08,25.13z"/>
			<path fill="#FF4538" d="M23.79,22.72c0-0.1,0.08-0.19,0.19-0.19l-0.74,0.01c0.1,0.01,0.18,0.08,0.18,0.18v0.19l0.37,0V22.72z"/>
			<path fill="#FF4538" d="M30.03,25.73c0.31,0.02,0.5,0.05,0.69,0.07l0.26,0.03c0.01,0,0.01,0,0.02,0c0.09,0,0.18-0.07,0.19-0.17
				c0.01-0.1-0.06-0.2-0.17-0.21l-0.26-0.03c-0.19-0.03-0.39-0.05-0.71-0.08c-0.1-0.01-0.19,0.07-0.2,0.17
				C29.85,25.63,29.93,25.73,30.03,25.73z"/>
			<path fill="#FF4538" d="M29.6,26.83c-0.1,0.02-0.17,0.11-0.16,0.21l0.05,0.35c0.01,0.09,0.09,0.16,0.19,0.16
				c0.01,0,0.02,0,0.03,0c0.1-0.02,0.17-0.11,0.16-0.21l-0.05-0.35C29.8,26.89,29.7,26.82,29.6,26.83z"/>
			<path fill="#FF4538" d="M29.57,26.73c0.01,0,0.02,0,0.03,0c0.1-0.02,0.17-0.11,0.16-0.22l-0.25-1.54
				c-0.02-0.1-0.12-0.17-0.22-0.16c-0.1,0.02-0.17,0.11-0.16,0.22l0.25,1.54C29.4,26.67,29.48,26.73,29.57,26.73z"/>
			<path fill="#FF4538" d="M31.4,25.89c0.18,0.02,0.27,0.04,0.27,0.04c0.01,0,0.02,0,0.03,0c0.09,0,0.17-0.07,0.19-0.16
				c0.02-0.1-0.05-0.2-0.16-0.22c0,0-0.1-0.02-0.28-0.04c-0.11-0.01-0.2,0.06-0.21,0.16S31.3,25.88,31.4,25.89z"/>
			<path fill="#FF4538" d="M23.26,25.54c-0.01-0.1-0.1-0.18-0.2-0.17c-0.27,0.02-0.55,0.05-0.82,0.08c-0.1,0.01-0.18,0.1-0.17,0.21
				c0.01,0.1,0.09,0.17,0.19,0.17c0.01,0,0.01,0,0.02,0c0.27-0.03,0.55-0.06,0.82-0.08C23.19,25.74,23.27,25.64,23.26,25.54z"/>
			<path fill="#FF4538" d="M27.21,25.6c0.53,0.01,0.88,0.02,1.34,0.05l0.02,0c0,0,0.01,0,0.01,0c0.1,0,0.17-0.08,0.18-0.18
				c0-0.1-0.08-0.19-0.19-0.2c-0.46-0.02-0.81-0.04-1.35-0.05c-0.1-0.02-0.19,0.08-0.19,0.19C27.02,25.52,27.11,25.6,27.21,25.6z"/>
			<path fill="#FF4538" d="M34.7,12.08l-15.58-0.31c-0.26-0.01-0.51,0.09-0.7,0.28c-0.19,0.18-0.29,0.43-0.29,0.71l0.96,9.21
				c0,0.26,0.1,0.5,0.29,0.69c0.18,0.18,0.43,0.28,0.68,0.28c0,0,0,0,0.01,0l2.98-0.02v-0.2c0-0.1,0.08-0.17,0.17-0.18l-3.15,0.02
				c-0.16-0.01-0.31-0.06-0.42-0.17c-0.11-0.11-0.18-0.26-0.18-0.44l-0.96-9.21c0-0.16,0.06-0.31,0.18-0.42
				c0.11-0.11,0.26-0.17,0.41-0.17c0,0,0.01,0,0.01,0l15.58,0.31c0.16,0,0.31,0.07,0.42,0.19c0.11,0.12,0.17,0.28,0.16,0.44
				l-0.55,8.82c-0.02,0.31-0.28,0.55-0.59,0.56l-10.16,0.07c0.1,0,0.19,0.08,0.19,0.19v0.19l5.37-0.04v-0.15
				c0-0.1,0.08-0.19,0.19-0.19s0.19,0.08,0.19,0.19v0.15l0.37,0v-0.14c0-0.1,0.08-0.19,0.19-0.19s0.19,0.08,0.19,0.19v0.14
				l3.48-0.02c0.51,0,0.93-0.4,0.96-0.91l0.55-8.82c0.02-0.27-0.07-0.52-0.26-0.72C35.21,12.2,34.97,12.09,34.7,12.08z"/>
			<path fill="#FF4538" d="M24.84,35.88h4.19c0.73,0,1.33-0.6,1.33-1.33v-0.27c0-0.73-0.6-1.33-1.33-1.33h-4.19
				c-0.73,0-1.33,0.6-1.33,1.33v0.27C23.51,35.28,24.1,35.88,24.84,35.88z M23.88,34.28c0-0.52,0.43-0.95,0.95-0.95h4.19
				c0.52,0,0.95,0.43,0.95,0.95v0.27c0,0.53-0.43,0.95-0.95,0.95h-4.19c-0.52,0-0.95-0.43-0.95-0.95V34.28z"/>
			<path fill="#FF4538" d="M24.81,25.26c-0.1,0-0.18,0.09-0.18,0.2c0,0.1,0.09,0.18,0.19,0.18c0,0,0,0,0.01,0
				c0.04,0,0.06,0,0.07-0.01l0.02-0.19l0.01,0.19c0.1,0,0.19-0.09,0.18-0.19c0-0.1-0.08-0.18-0.19-0.18
				C24.86,25.25,24.85,25.25,24.81,25.26z"/>
			<path fill="#FF4538" d="M25.4,25.61C25.41,25.61,25.41,25.61,25.4,25.61l0.21-0.01c0.1,0,0.17,0,0.33-0.01
				c0.1,0,0.19-0.09,0.19-0.19c0-0.1-0.1-0.21-0.19-0.19c-0.16,0-0.23,0-0.34,0.01l-0.2,0.01c-0.1,0-0.19,0.09-0.18,0.19
				C25.22,25.53,25.3,25.61,25.4,25.61z"/>
			<path fill="#FF4538" d="M26.38,27.56c0.01,0,0.02,0,0.03,0c0.09,0,0.17-0.06,0.19-0.16c0.24-1.38,0.16-2.49,0.15-2.54
				c-0.01-0.1-0.09-0.18-0.2-0.17c-0.1,0.01-0.18,0.1-0.17,0.2c0,0.01,0.08,1.12-0.15,2.44C26.21,27.44,26.28,27.54,26.38,27.56z"/>
			<path fill="#FF4538" d="M24.18,24.77c-0.1-0.02-0.2,0.06-0.21,0.16c0,0.01-0.21,1.46-0.89,2.45c-0.06,0.09-0.04,0.2,0.05,0.26
				c0.03,0.02,0.07,0.03,0.11,0.03c0.06,0,0.12-0.03,0.16-0.08c0.73-1.06,0.95-2.55,0.96-2.61C24.36,24.88,24.29,24.79,24.18,24.77z
				"/>
			<path fill="#FF4538" d="M32.24,28.85c-0.1,0-0.19,0.08-0.19,0.19v0.17v2.18c-0.18,0.12-0.32,0.27-0.44,0.43v-2.54v-0.04
				c0-0.1-0.08-0.19-0.19-0.19s-0.19,0.08-0.19,0.19v0.03v3.33c-0.12,0.43-0.12,0.77-0.12,0.78v3.85c-0.01,0-0.03,0-0.04,0.01
				c-0.03,0.01-1.84,0.63-2.28,2.91l-4.97-0.03c-0.08-0.27-0.23-0.57-0.5-0.89c0.11-0.25,0.32-0.86,0.09-1.55
				c-0.14-0.42-0.42-0.79-0.83-1.12c0-0.01,0-0.01,0-0.02v-7.43c0-0.03-0.02-0.05-0.03-0.08c-0.03-0.06-0.08-0.11-0.16-0.11
				c-0.1,0-0.19,0.08-0.19,0.19v0.1v7.1c-0.14-0.08-0.29-0.16-0.45-0.24l-0.08-6.82l0-0.09c0-0.1-0.1-0.18-0.19-0.19
				c-0.09,0-0.16,0.07-0.17,0.16c0,0.01-0.01,0.02-0.01,0.03l0.05,4.05l-0.93-0.47c-0.05-0.03-0.51-0.31-0.87-0.11
				c-0.23,0.12-0.36,0.39-0.37,0.79c-0.03,0.82,0.1,1.7,1.11,2.35c-0.02,0.02-0.04,0.05-0.05,0.08c-0.02,0.06-0.38,1.41,0.22,2.02
				c-0.12,0.33,0,1.05,0.34,2.14c-0.06,0.27-0.26,1.35,0.57,2.03l0.18,0.15c0.24,0.19,0.43,0.36,0.61,0.49
				c0.85,1.93,1.15,7.12,1.15,7.17c0.01,0.1,0.09,0.18,0.19,0.18c0,0,0.01,0,0.01,0c0.1-0.01,0.18-0.09,0.18-0.2
				c-0.01-0.2-0.26-4.53-0.98-6.77c0.15,0.09,0.3,0.16,0.46,0.22c0.31,0.11,0.65,0.02,0.84-0.22c0.02-0.02,0.03-0.05,0.05-0.08
				l4.87,0.09c0.04,0.16,0.08,0.32,0.13,0.48c0.03,0.1,0.13,0.16,0.23,0.13c0.1-0.03,0.16-0.13,0.13-0.23
				c-1.25-4.39,1.2-5.62,1.7-5.82v0.28c0,0.1,0.08,0.19,0.19,0.19s0.19-0.08,0.19-0.19v-4.53c0-0.03,0-0.32,0.09-0.67
				c0.01-0.02,0.02-0.05,0.02-0.08c0.17-0.54,0.6-1.18,1.63-1.22c0.34-0.02,0.55,0.06,0.66,0.24c0.32,0.54-0.33,1.86-0.61,2.33
				l-0.02,0.07c-0.01,0.06-0.91,6.49-1.39,8.84c-0.48,2.38-0.53,6.92-0.53,6.97c0,0.1,0.08,0.19,0.19,0.19c0,0,0,0,0,0
				c0.1,0,0.19-0.08,0.19-0.19c0-0.05,0.05-4.55,0.52-6.89c0.46-2.27,1.31-8.3,1.39-8.83c0.18-0.3,1.06-1.89,0.59-2.68
				c-0.18-0.3-0.52-0.44-1-0.42c-0.31,0.01-0.57,0.07-0.8,0.16v-2.11v-0.04C32.43,28.93,32.35,28.85,32.24,28.85z M19.56,33.44
				c0.01-0.18,0.04-0.4,0.17-0.47c0.03-0.02,0.08-0.03,0.12-0.03c0.15,0,0.32,0.09,0.39,0.13l1.12,0.57l0.03,2.24
				C19.82,35.34,19.52,34.51,19.56,33.44z M20.61,35.96c0.23,0.12,0.5,0.23,0.8,0.32c0.02,0.03,0.05,0.06,0.09,0.08
				c0.84,0.37,1.36,0.85,1.56,1.43c0.15,0.46,0.06,0.88-0.02,1.14c-0.8-0.72-2.04-1.18-2.24-1.25
				C20.35,37.35,20.51,36.33,20.61,35.96z M20.8,38.08c0.4,0.16,1.55,0.64,2.16,1.3c0.79,0.86,0.54,1.54,0.43,1.76
				c0,0-0.01-0.01-0.01-0.01c-0.84-0.82-2.18-1.32-2.23-1.34c-0.01,0-0.02-0.01-0.03-0.01C20.78,38.68,20.78,38.24,20.8,38.08z
				 M23.72,42.83c-0.09,0.12-0.26,0.16-0.42,0.1c-0.28-0.1-0.53-0.25-0.84-0.49c-0.02-0.02-0.04-0.03-0.06-0.05
				c-0.17-0.13-0.37-0.3-0.6-0.49l-0.18-0.15c-0.58-0.48-0.52-1.26-0.46-1.56c0.35,0.15,1.33,0.59,1.97,1.21
				c0.18,0.17,0.32,0.33,0.42,0.49C23.8,42.28,23.87,42.63,23.72,42.83z M24.17,42.61c0.01-0.23-0.06-0.54-0.32-0.93
				c-0.05-0.08-0.12-0.17-0.19-0.25c0.03-0.05,0.26-0.41,0.23-0.93l4.85,0.03c-0.07,0.61-0.05,1.33,0.11,2.17L24.17,42.61z"/>
			<path fill="#FF4538" d="M25.53,35.05c0.17,0,0.32-0.06,0.44-0.18c0.03-0.03,0.04-0.06,0.04-0.09c0-0.04-0.01-0.07-0.04-0.09
				c-0.03-0.03-0.06-0.04-0.09-0.04c-0.04,0-0.07,0.01-0.09,0.04c-0.07,0.07-0.16,0.11-0.26,0.11s-0.19-0.04-0.26-0.11
				c-0.07-0.07-0.11-0.16-0.11-0.26c0-0.1,0.04-0.19,0.11-0.26c0.07-0.07,0.16-0.11,0.26-0.11s0.19,0.04,0.26,0.11
				c0.03,0.03,0.06,0.04,0.09,0.04c0.04,0,0.07-0.01,0.09-0.04c0.03-0.03,0.04-0.06,0.04-0.09c0-0.04-0.01-0.07-0.04-0.09
				c-0.12-0.12-0.27-0.18-0.44-0.18s-0.32,0.06-0.44,0.18c-0.12,0.12-0.18,0.27-0.18,0.44c0,0.17,0.06,0.32,0.18,0.44
				C25.21,34.98,25.36,35.05,25.53,35.05z"/>
			<path fill="#FF4538" d="M26.33,35.05h0.66c0.04,0,0.07-0.01,0.09-0.04c0.03-0.03,0.04-0.06,0.04-0.09c0-0.04-0.01-0.07-0.04-0.09
				c-0.03-0.03-0.06-0.04-0.09-0.04h-0.53v-0.86c0-0.04-0.01-0.07-0.04-0.09c-0.03-0.03-0.06-0.04-0.09-0.04
				c-0.04,0-0.07,0.01-0.09,0.04c-0.03,0.03-0.04,0.06-0.04,0.09v0.99c0,0.04,0.01,0.07,0.04,0.09
				C26.26,35.03,26.29,35.05,26.33,35.05z"/>
			<path fill="#FF4538" d="M27.42,35.05c0.04,0,0.07-0.01,0.09-0.04c0.03-0.03,0.04-0.06,0.04-0.09v-0.99
				c0-0.04-0.01-0.07-0.04-0.09c-0.03-0.03-0.06-0.04-0.09-0.04c-0.04,0-0.07,0.01-0.09,0.04c-0.03,0.03-0.04,0.06-0.04,0.09v0.99
				c0,0.04,0.01,0.07,0.04,0.09C27.35,35.03,27.38,35.05,27.42,35.05z"/>
			<path fill="#FF4538" d="M28.37,35.05c0.17,0,0.32-0.06,0.44-0.18c0.03-0.03,0.04-0.06,0.04-0.09c0-0.04-0.01-0.07-0.04-0.09
				c-0.03-0.03-0.06-0.04-0.09-0.04c-0.04,0-0.07,0.01-0.09,0.04c-0.07,0.07-0.16,0.11-0.26,0.11s-0.19-0.04-0.26-0.11
				c-0.07-0.07-0.11-0.16-0.11-0.26c0-0.1,0.04-0.19,0.11-0.26c0.07-0.07,0.16-0.11,0.26-0.11s0.19,0.04,0.26,0.11
				c0.03,0.03,0.06,0.04,0.09,0.04c0.04,0,0.07-0.01,0.09-0.04c0.03-0.03,0.04-0.06,0.04-0.09c0-0.04-0.01-0.07-0.04-0.09
				c-0.12-0.12-0.27-0.18-0.44-0.18c-0.17,0-0.32,0.06-0.44,0.18c-0.12,0.12-0.18,0.27-0.18,0.44c0,0.17,0.06,0.32,0.18,0.44
				C28.05,34.98,28.2,35.05,28.37,35.05z"/>
			<path fill="#FF4538" d="M30.71,13.29l0.94,0.02c0,0,0,0,0,0c0.1,0,0.19-0.08,0.19-0.18c0-0.1-0.08-0.19-0.18-0.19l-0.94-0.02
				c0,0,0,0,0,0c-0.1,0-0.19,0.08-0.19,0.18C30.52,13.2,30.6,13.28,30.71,13.29z"/>
			<path fill="#FF4538" d="M22.68,13.13c0.1,0,0.19-0.08,0.19-0.18c0-0.1-0.08-0.19-0.18-0.19l-3.17-0.06c0,0,0,0,0,0
				c-0.1,0-0.19,0.08-0.19,0.18c0,0.1,0.08,0.19,0.18,0.19L22.68,13.13C22.68,13.13,22.68,13.13,22.68,13.13z"/>
			<path fill="#FF4538" d="M26.22,17.38c0.07,0.1,0.18,0.15,0.3,0.15c0,0,0.01,0,0.01,0c0.12,0,0.23-0.06,0.3-0.17l0.7-1.07
				c0.06-0.09,0.03-0.2-0.06-0.26c-0.09-0.06-0.2-0.03-0.26,0.06l-0.52,0.81v-2.5c0-0.1-0.08-0.19-0.19-0.19s-0.19,0.08-0.19,0.19
				v2.46l-0.57-0.78c-0.06-0.08-0.18-0.1-0.26-0.04c-0.08,0.06-0.1,0.18-0.04,0.26L26.22,17.38z"/>
			<path fill="#FF4538" d="M32.74,13.33l1.13,0.02c0.15,0,0.28,0.06,0.38,0.17c0.1,0.11,0.15,0.25,0.14,0.39l-0.2,3.17
				c-0.01,0.1,0.07,0.19,0.18,0.2c0,0,0.01,0,0.01,0c0.1,0,0.18-0.08,0.19-0.18l0.2-3.17c0.02-0.25-0.07-0.49-0.24-0.67
				c-0.17-0.18-0.4-0.29-0.65-0.29l-1.13-0.02c-0.11-0.02-0.19,0.08-0.19,0.18C32.55,13.24,32.64,13.33,32.74,13.33z"/>
			<path fill="#FF4538" d="M24.19,15.97l0.72,3c0.08,0.32,0.36,0.54,0.68,0.54h3.3c0.1,0,0.19-0.08,0.19-0.19
				c0-0.1-0.08-0.19-0.19-0.19h-3.3c-0.15,0-0.28-0.1-0.32-0.25l-0.09-0.37h3.41c0.23,0,0.43-0.15,0.51-0.37l0.53-1.64
				c0.05-0.16,0.03-0.34-0.08-0.48c-0.1-0.14-0.26-0.22-0.43-0.22h-0.78c-0.1,0-0.19,0.08-0.19,0.19s0.08,0.19,0.19,0.19h0.78
				c0.05,0,0.1,0.02,0.12,0.06c0.03,0.04,0.04,0.09,0.02,0.14l-0.53,1.64c-0.02,0.06-0.08,0.11-0.15,0.11h-3.5l-0.54-2.25
				c-0.08-0.32-0.33-0.57-0.65-0.63l-1.41-0.28c-0.1-0.02-0.2,0.05-0.22,0.15c-0.02,0.1,0.05,0.2,0.15,0.22l1.41,0.28
				C24.01,15.66,24.15,15.79,24.19,15.97z"/>
			<path fill="#FF4538" d="M30.47,31.47c0.1,0,0.19-0.08,0.19-0.19v-1.47c0-0.1-0.08-0.19-0.19-0.19s-0.19,0.08-0.19,0.19v1.47
				C30.28,31.39,30.37,31.47,30.47,31.47z"/>
			<path fill="#FF4538" d="M26.78,40.75c-0.45,0-0.81,0.37-0.81,0.82c0,0.45,0.37,0.82,0.81,0.82c0.45,0,0.82-0.37,0.82-0.82
				C27.6,41.11,27.23,40.75,26.78,40.75z M26.78,42c-0.24,0-0.44-0.2-0.44-0.44s0.2-0.44,0.44-0.44c0.24,0,0.44,0.2,0.44,0.44
				S27.02,42,26.78,42z"/>
			<path fill="#FF4538" d="M30.47,32.54c0.1,0,0.19-0.08,0.19-0.19v-0.44c0-0.1-0.08-0.19-0.19-0.19s-0.19,0.08-0.19,0.19v0.44
				C30.28,32.46,30.37,32.54,30.47,32.54z"/>
			<path fill="#FF4538" d="M30.58,48.37C30.58,48.37,30.59,48.37,30.58,48.37c0.11,0,0.19-0.08,0.2-0.18
				c0.06-1.2,0.19-3.43,0.45-4.88c0.02-0.1-0.05-0.2-0.15-0.22c-0.1-0.02-0.2,0.05-0.22,0.15c-0.26,1.47-0.4,3.71-0.45,4.92
				C30.4,48.28,30.48,48.37,30.58,48.37z"/>
			<path fill="#FF4538" d="M26.15,19.61c-0.41,0-0.74,0.33-0.74,0.74c0,0.41,0.33,0.74,0.74,0.74c0.41,0,0.74-0.33,0.74-0.74
				C26.89,19.95,26.56,19.61,26.15,19.61z M26.15,20.72c-0.2,0-0.36-0.16-0.36-0.36c0-0.2,0.16-0.36,0.36-0.36
				c0.2,0,0.36,0.16,0.36,0.36C26.51,20.55,26.35,20.72,26.15,20.72z"/>
			<path fill="#FF4538" d="M23.98,22.53c-0.1,0-0.19,0.08-0.19,0.19v0.19v1.27v0.08c0,0.1,0.08,0.19,0.19,0.19s0.19-0.08,0.19-0.19
				v-0.08v-1.27v-0.19C24.17,22.62,24.09,22.54,23.98,22.53C23.98,22.53,23.98,22.53,23.98,22.53
				C23.98,22.53,23.98,22.53,23.98,22.53z"/>
			<path fill="#FF4538" d="M30.34,49.86c0,0.1,0.08,0.19,0.18,0.19c0,0,0,0,0,0c0.1,0,0.19-0.08,0.19-0.18c0,0,0.01-0.34,0.03-0.87
				c0-0.1-0.08-0.19-0.18-0.2c-0.1,0.01-0.19,0.08-0.2,0.18C30.35,49.52,30.34,49.86,30.34,49.86z"/>
			<path fill="#FF4538" d="M27.8,19.61c-0.41,0-0.74,0.33-0.74,0.74c0,0.41,0.33,0.74,0.74,0.74c0.41,0,0.74-0.33,0.74-0.74
				C28.54,19.95,28.21,19.61,27.8,19.61z M27.8,20.72c-0.2,0-0.36-0.16-0.36-0.36c0-0.2,0.16-0.36,0.36-0.36
				c0.2,0,0.36,0.16,0.36,0.36C28.17,20.55,28,20.72,27.8,20.72z"/>
			<path fill="#FF4538" d="M34.32,18.12c-0.11-0.01-0.19,0.07-0.2,0.18l-0.06,1.02c-0.01,0.1,0.07,0.19,0.18,0.2c0,0,0.01,0,0.01,0
				c0.1,0,0.18-0.08,0.19-0.18l0.06-1.02C34.5,18.22,34.42,18.13,34.32,18.12z"/>
			<path fill="#FF4538" d="M34.2,20c-0.11-0.01-0.19,0.07-0.2,0.18l-0.02,0.26c-0.01,0.1,0.07,0.19,0.18,0.2c0,0,0.01,0,0.01,0
				c0.1,0,0.18-0.08,0.19-0.18l0.02-0.26C34.38,20.09,34.3,20,34.2,20z"/>
			<path fill="#FF4538" d="M29.54,24.29c0,0.1,0.08,0.19,0.19,0.19c0.1,0,0.18-0.08,0.19-0.18c0,0,0,0,0,0v-1.42v-0.15
				c0-0.1-0.08-0.19-0.19-0.19s-0.19,0.08-0.19,0.19v0.15V24.29L29.54,24.29z"/>
			<path fill="#FF4538" d="M23.23,24.53c0.1,0,0.19-0.08,0.19-0.19v-0.15v-1.28v-0.19c0-0.1-0.08-0.18-0.18-0.18
				c0,0-0.01-0.01-0.01-0.01c-0.01,0-0.01,0.01-0.01,0.01c-0.1,0.01-0.17,0.08-0.17,0.18v0.2v1.28v0.14
				C23.05,24.44,23.13,24.53,23.23,24.53z"/>
			<path fill="#FF4538" d="M30.47,22.53c-0.1,0-0.19,0.08-0.19,0.19v0.14v1.45v0.06c0,0.1,0.08,0.19,0.19,0.19s0.19-0.08,0.19-0.19
				v-0.05v-1.46v-0.14C30.66,22.62,30.58,22.53,30.47,22.53z"/>
		</g>
		<rect x="39.82" y="23.11" fill="#FFFFFF" width="5.23" height="3.4"/>
		<rect x="10.55" y="19.58" fill="#FFFFFF" width="5.23" height="3.4"/>
		<rect x="7.81" y="35.91" fill="#FFFFFF" width="5.23" height="3.4"/>
		<rect x="41.2" y="33.95" fill="#FFFFFF" width="5.23" height="3.4"/>
		<rect x="39.82" y="38.3" fill="#FFFFFF" width="4.48" height="6.5"/>
		<g>
			<circle fill="none" cx="18.22" cy="29.92" r="0.69"/>
			<path fill="none" d="M35.78,29.39c-0.38,0-0.69,0.31-0.69,0.69s0.31,0.69,0.69,0.69c0.38,0,0.69-0.31,0.69-0.69
				S36.16,29.39,35.78,29.39z"/>
			<rect x="6.38" y="36.94" fill="none" width="1.38" height="1.38"/>
			<rect x="7.81" y="20.52" fill="none" width="1.38" height="1.38"/>
			<rect x="45.08" y="23.98" fill="none" width="1.38" height="1.38"/>
			<circle fill="none" cx="16.54" cy="32.91" r="0.69"/>
			<path fill="#FF4438" d="M40.87,24.44c-0.95,0-1.57,0.18-1.96,0.58c-0.55,0.56-0.53,1.44-0.5,2.54c0.01,0.24,0.01,0.5,0.01,0.77
				c0,0.63-0.17,1.08-0.49,1.36c-0.33,0.28-0.76,0.32-1.01,0.32c0,0.02,0.01,0.04,0.01,0.06c0,0.14-0.03,0.27-0.08,0.4
				c0.03,0,0.06,0,0.09,0c0.32,0,0.85-0.07,1.28-0.43c0.44-0.37,0.66-0.95,0.66-1.72c0-0.27-0.01-0.53-0.01-0.78
				c-0.02-1-0.04-1.79,0.37-2.21c0.29-0.3,0.82-0.44,1.63-0.44h3.75v-0.46H40.87z"/>
			<path fill="#FF4438" d="M36.92,30.01c-0.04-0.6-0.53-1.09-1.14-1.09c-0.64,0-1.15,0.52-1.15,1.15s0.52,1.15,1.15,1.15
				c0.5,0,0.91-0.32,1.07-0.76c0.05-0.12,0.08-0.26,0.08-0.4C36.93,30.05,36.92,30.04,36.92,30.01z M35.78,30.77
				c-0.38,0-0.69-0.31-0.69-0.69s0.31-0.69,0.69-0.69c0.38,0,0.69,0.31,0.69,0.69S36.16,30.77,35.78,30.77z"/>
			<path fill="#FF4438" d="M44.62,24.44v0.46v0.92h2.3v-2.3h-2.3V24.44z M45.08,23.98h1.38v1.38h-1.38V23.98z"/>
			<path fill="#FF4438" d="M13.06,21.44c0.52,0,0.88,0.12,1.06,0.36c0.23,0.31,0.12,0.74,0.12,0.74l-0.01,5.25
				c0,0.92,0.22,1.59,0.66,1.99c0.37,0.34,0.78,0.37,0.92,0.37c0.03,0,0.05,0,0.05,0h1.25c-0.02-0.08-0.05-0.15-0.05-0.23
				c0-0.08,0.03-0.15,0.05-0.23l-1.27,0c-0.01,0-0.35,0.02-0.65-0.26c-0.33-0.31-0.5-0.87-0.5-1.64v-5.16
				c0.03-0.14,0.13-0.67-0.2-1.11c-0.27-0.36-0.76-0.55-1.43-0.55H9.66v0.46H13.06z"/>
			<path fill="#FF4438" d="M17.12,30.15c0.11,0.52,0.55,0.92,1.11,0.92c0.64,0,1.15-0.52,1.15-1.15c0-0.64-0.52-1.15-1.15-1.15
				c-0.55,0-1,0.4-1.11,0.92c-0.02,0.08-0.05,0.15-0.05,0.23C17.07,30,17.1,30.07,17.12,30.15z M18.22,29.23
				c0.38,0,0.69,0.31,0.69,0.69s-0.31,0.69-0.69,0.69s-0.69-0.31-0.69-0.69S17.84,29.23,18.22,29.23z"/>
			<path fill="#FF4438" d="M7.35,20.06v2.3h2.3v-0.92v-0.46v-0.92H7.35z M9.2,21.9H7.81v-1.38H9.2V21.9z"/>
			<path fill="#FF4438" d="M10.12,37.86c0.56,0,0.96-0.16,1.2-0.46c0.28-0.36,0.22-0.81,0.19-0.93v-2.19c0-0.38,0.1-0.67,0.31-0.86
				c0.33-0.31,0.84-0.28,0.86-0.27h2.75c-0.02-0.08-0.05-0.15-0.05-0.23c0-0.08,0.03-0.15,0.05-0.23l-2.73,0
				c-0.03,0-0.71-0.05-1.19,0.39c-0.3,0.28-0.46,0.69-0.46,1.2v2.22l0.01,0.06c0,0,0.08,0.33-0.11,0.57
				c-0.15,0.19-0.43,0.28-0.84,0.28h-1.9v0.46H10.12z"/>
			<path fill="#FF4438" d="M15.43,33.14c0.11,0.52,0.55,0.92,1.11,0.92c0.64,0,1.15-0.52,1.15-1.15c0-0.64-0.52-1.15-1.15-1.15
				c-0.55,0-1,0.4-1.11,0.92c-0.02,0.08-0.05,0.15-0.05,0.23C15.39,32.99,15.42,33.06,15.43,33.14z M16.54,32.22
				c0.38,0,0.69,0.31,0.69,0.69s-0.31,0.69-0.69,0.69c-0.38,0-0.69-0.31-0.69-0.69S16.16,32.22,16.54,32.22z"/>
			<path fill="#FF4438" d="M5.91,38.78h2.3v-0.92V37.4v-0.92h-2.3V38.78z M6.38,36.94h1.38v1.38H6.38V36.94z"/>
		</g>
		<rect x="37.52" y="35.46" fill="#FF4438" width="8.79" height="0.46"/>
		<g>
			<circle fill="none" cx="36.01" cy="39.83" r="0.69"/>
			<rect x="40.83" y="44.15" fill="none" width="1.38" height="1.38"/>
			<circle fill="none" cx="36.6" cy="35.69" r="0.69"/>
			<rect x="46.54" y="35" fill="none" width="1.38" height="1.38"/>
			<path fill="#FF4438" d="M35.45,35.69c0,0.64,0.52,1.15,1.15,1.15c0.64,0,1.15-0.52,1.15-1.15c0-0.64-0.52-1.15-1.15-1.15
				C35.96,34.54,35.45,35.06,35.45,35.69z M37.29,35.69c0,0.38-0.31,0.69-0.69,0.69s-0.69-0.31-0.69-0.69S36.22,35,36.6,35
				S37.29,35.31,37.29,35.69z"/>
			<path fill="#FF4438" d="M48.38,34.54h-2.3v2.3h2.3V34.54z M46.54,36.38V35h1.38v1.38H46.54z"/>
			<path fill="#FF4438" d="M37.12,40.06l2.48,0c0.25-0.03,0.99-0.04,1.39,0.31c0.21,0.18,0.31,0.43,0.31,0.77v2.55h0.46v-2.55
				c0-0.47-0.16-0.85-0.46-1.11c-0.64-0.56-1.71-0.43-1.73-0.42h-2.45c0.02,0.08,0.05,0.15,0.05,0.23
				C37.16,39.91,37.13,39.99,37.12,40.06z"/>
			<path fill="#FF4438" d="M36.01,40.98c0.55,0,1-0.4,1.11-0.92c0.02-0.08,0.05-0.15,0.05-0.23c0-0.08-0.03-0.15-0.05-0.23
				c-0.11-0.52-0.55-0.92-1.11-0.92c-0.64,0-1.15,0.52-1.15,1.15C34.86,40.47,35.37,40.98,36.01,40.98z M36.01,39.14
				c0.38,0,0.69,0.31,0.69,0.69s-0.31,0.69-0.69,0.69s-0.69-0.31-0.69-0.69S35.63,39.14,36.01,39.14z"/>
			<path fill="#FF4438" d="M40.37,43.69v2.3h2.3v-2.3h-0.92h-0.46H40.37z M42.21,45.53h-1.38v-1.38h1.38V45.53z"/>
		</g>
	</g>
</g>
</svg>
