<?xml version="1.0" encoding="utf-8"?>
<!-- Generator: Adobe Illustrator 25.0.0, SVG Export Plug-In . SVG Version: 6.00 Build 0)  -->
<svg version="1.1" baseProfile="tiny" xmlns="http://www.w3.org/2000/svg" xmlns:xlink="http://www.w3.org/1999/xlink" x="0px"
	 y="0px" viewBox="0 0 55.67 51.76" overflow="visible" xml:space="preserve">
<g id="Calque_1">
</g>
<g id="Calque_2">
	<path fill="#FF3E51" d="M21.9,22.94c-0.71,0-1.48-0.24-2.18-0.74c-0.69-0.49-1.2-1.15-1.43-1.87c-0.24-0.73-0.16-1.43,0.22-1.97
		c0.38-0.54,1.02-0.84,1.79-0.85c0.75-0.01,1.54,0.25,2.23,0.74c0.69,0.49,1.2,1.15,1.43,1.87c0.24,0.73,0.16,1.43-0.22,1.97h0
		C23.34,22.66,22.66,22.94,21.9,22.94z M20.35,17.9c-0.02,0-0.03,0-0.05,0c-0.65,0.01-1.17,0.26-1.48,0.69
		c-0.31,0.43-0.37,1.01-0.17,1.63c0.21,0.63,0.67,1.23,1.29,1.67c1.27,0.9,2.83,0.89,3.48-0.02h0c0.31-0.43,0.37-1.01,0.17-1.63
		c-0.21-0.63-0.67-1.23-1.29-1.67C21.7,18.14,21,17.9,20.35,17.9z"/>
	<path fill="#FF3E51" d="M9.83,20.8c-1.41,0-2.77-0.64-3.67-1.82C5.4,18,5.06,16.77,5.22,15.54c0.16-1.23,0.79-2.33,1.77-3.09
		c2.03-1.57,4.96-1.19,6.53,0.84c0.47,0.6,0.78,1.32,0.9,2.06c0.02,0.1-0.05,0.2-0.16,0.22c-0.11,0.02-0.2-0.05-0.22-0.16
		c-0.12-0.68-0.4-1.34-0.83-1.89c-0.7-0.9-1.7-1.48-2.84-1.63c-1.13-0.15-2.25,0.16-3.15,0.86c-1.86,1.44-2.21,4.13-0.77,5.99
		c1.16,1.5,3.12,2.05,4.89,1.39c0.1-0.04,0.21,0.01,0.25,0.11c0.04,0.1-0.01,0.21-0.11,0.25C10.94,20.7,10.38,20.8,9.83,20.8z"/>
	<path fill="#FF3E51" d="M21.23,29.26L8.89,16.56c-0.11-0.12-0.17-0.26-0.17-0.42c0-0.08,0.02-0.16,0.05-0.24
		c0.1-0.23,0.31-0.37,0.56-0.37h23.81c0.25,0,0.46,0.14,0.56,0.37c0.03,0.08,0.05,0.16,0.05,0.24c0,0.15-0.06,0.3-0.17,0.42
		L21.23,29.26z M9.1,16.14c0,0.05,0.01,0.1,0.06,0.15l12.06,12.42L33.3,16.29c0.05-0.05,0.06-0.11,0.06-0.15
		c0-0.04-0.01-0.07-0.02-0.09c-0.01-0.03-0.07-0.14-0.2-0.14H9.33c-0.14,0-0.19,0.1-0.2,0.14C9.12,16.07,9.1,16.1,9.1,16.14z"/>
	<path fill="#FF3E51" d="M27.43,46.53H15.04c-0.34,0-0.6-0.14-0.63-0.35c0-0.01,0-0.03,0-0.04c0-0.09,0.04-0.25,0.31-0.35l6.52-2.18
		l6.52,2.18c0.27,0.09,0.31,0.26,0.31,0.35c0,0.02,0,0.03,0,0.04C28.02,46.39,27.77,46.53,27.43,46.53z M14.89,46.13
		c0.04,0.01,0.08,0.01,0.14,0.01h12.39c0.06,0,0.1-0.01,0.14-0.01l-6.34-2.12L14.89,46.13z"/>
	<path fill="#FF3E51" d="M22.65,18.77c-0.05,0-0.1-0.02-0.14-0.06c-0.07-0.08-0.07-0.2,0-0.27l6.98-6.9c0.08-0.07,0.2-0.07,0.27,0
		c0.07,0.08,0.07,0.2,0,0.27l-6.98,6.9C22.75,18.76,22.7,18.77,22.65,18.77z"/>
	<path fill="#FF3E51" d="M18.19,23.19c-0.05,0-0.1-0.02-0.14-0.06c-0.07-0.08-0.07-0.2,0-0.27l2.23-2.21c0.08-0.07,0.2-0.07,0.27,0
		c0.07,0.08,0.07,0.2,0,0.27l-2.23,2.21C18.29,23.17,18.24,23.19,18.19,23.19z"/>
	<path fill="#FF3E51" d="M25.48,21.2c-1.12,0-2.36-0.21-3.62-0.79c-4.12-1.91-8.92,0.08-8.96,0.11c-0.1,0.04-0.21,0-0.25-0.1
		c-0.04-0.1,0-0.21,0.1-0.25c0.05-0.02,5-2.08,9.27-0.1c4.1,1.9,7.97-0.38,8.01-0.4c0.09-0.05,0.21-0.03,0.26,0.07
		c0.05,0.09,0.03,0.21-0.07,0.26C30.21,20,28.18,21.2,25.48,21.2z"/>
	<path fill="#FF3E51" d="M21.23,44c-0.11,0-0.19-0.09-0.19-0.19V28.99c0-0.11,0.09-0.19,0.19-0.19s0.19,0.09,0.19,0.19v14.82
		C21.42,43.92,21.34,44,21.23,44z"/>
	<polygon fill="#353435" points="34.2,27.66 34.2,27.66 34.2,27.66 34.2,27.66 	"/>
	<path fill="none" d="M39.03,30.83l0.04,0.82l0.96-0.44c0.06-0.03,0.12-0.02,0.17,0.01l0,0c0.05,0.03,0.08,0.09,0.08,0.15l0.05,1.09
		l0.72-0.33c0,0,0.01,0,0.01-0.01c0.05-0.02,0.09-0.03,0.14-0.03h0l0,0l0.23-1.73l-0.97-0.62L39,30.69l0,0
		C39.01,30.73,39.02,30.78,39.03,30.83C39.03,30.82,39.03,30.83,39.03,30.83z"/>
	<polygon fill="#353435" points="38.64,30.92 38.65,30.92 38.64,30.92 	"/>
	<polygon fill="#353435" points="38.64,30.89 38.64,30.89 38.64,30.89 38.64,30.89 38.64,30.92 38.64,30.92 	"/>
	<polygon fill="#353435" points="32.66,31.72 32.66,31.72 32.66,31.72 32.66,31.72 	"/>
	<polygon fill="#353435" points="32.31,31.06 32.31,31.06 32.31,31.06 32.31,31.06 	"/>
	<polygon fill="#353435" points="31.96,30.4 31.96,30.4 31.96,30.4 31.96,30.4 	"/>
	<polygon fill="#353435" points="35.06,30.24 35.06,30.24 35.06,30.23 35.06,30.24 	"/>
	<path fill="#FF3E51" d="M36.08,28.04c-0.1-0.01-0.19,0.07-0.2,0.18l-0.06,0.7l-0.41-0.04l0.15-1.7c0.01-0.11-0.06-0.21-0.16-0.22
		l-0.17-0.01c0-0.01,0-0.02,0-0.03l0.05-0.5c0.02-0.24-0.14-0.45-0.35-0.47l-0.61-0.05c-0.22-0.02-0.41,0.16-0.43,0.39l-0.05,0.5
		c0,0.01,0,0.02,0,0.03l-0.17-0.01c-0.05,0-0.1,0.01-0.13,0.05c-0.04,0.03-0.06,0.08-0.07,0.14l-0.35,3.92l0,0.02l0.04,0.07
		c0,0,0,0,0,0c0,0,0,0,0,0.01l0.27,0.51l0-0.02l0.38-4.28l0.37,0.03c0,0,0,0,0,0l0.61,0.05c0,0,0,0,0.01,0l0.37,0.03l-0.15,1.7l0,0
		v0l0,0l0,0l-0.42,4.65l0,0.02l0.16,0.29v0c0,0,0,0,0,0l0.05,0.1l0.1,0.19l0,0l0,0l0-0.02l0.02-0.17l0.43-4.84l0.41,0.04l-0.26,2.86
		c-0.01,0.11,0.06,0.21,0.16,0.22c0.1,0.01,0.19-0.07,0.2-0.18l0.27-3.06c0,0,0,0,0,0c0,0,0,0,0,0l0.08-0.9
		C36.26,28.15,36.18,28.05,36.08,28.04z M34.87,26.89c0,0.01-0.01,0.03-0.03,0.03h0l-0.61-0.05c0,0,0,0,0,0
		c-0.01,0-0.02-0.02-0.02-0.03l0.05-0.5c0-0.02,0.01-0.03,0.03-0.03l0.61,0.05c0.01,0,0.03,0.02,0.02,0.03L34.87,26.89z"/>
	<polygon fill="#353435" points="38.61,30.94 38.61,30.94 38.61,30.94 38.63,30.89 38.63,30.89 	"/>
	<polygon fill="#353435" points="38.63,30.89 38.64,30.89 38.64,30.89 	"/>
	<polygon fill="#353435" points="38.64,30.92 38.64,30.92 38.64,30.92 38.64,30.92 	"/>
	<polygon fill="#353435" points="38.65,30.92 38.65,30.92 38.83,30.8 38.65,30.92 	"/>
	<g>
		<path fill="none" d="M31.69,28.04l-1.15-1.11l-0.98,0.38l0,0l-0.1,1.6l0,0l0,0c0.01,0,0.02,0.01,0.03,0.01
			c0.01,0,0.01,0,0.02,0.01c0,0,0.01,0,0.01,0.01c0.01,0,0.01,0.01,0.02,0.01c0.01,0.01,0.02,0.01,0.03,0.02c0,0,0,0,0.01,0
			l0.63,0.42l0,0l0.2-0.95c0,0,0-0.01,0-0.01c0,0,0-0.01,0-0.01c0,0,0-0.01,0-0.01c0,0,0-0.01,0-0.01c0-0.01,0.01-0.01,0.01-0.02
			c0.01-0.01,0.02-0.02,0.02-0.03c0,0,0,0,0.01-0.01c0,0,0,0,0,0c0,0,0,0,0.01-0.01c0,0,0.01,0,0.01-0.01
			c0.01,0,0.01-0.01,0.02-0.01c0,0,0.01,0,0.01,0l0,0c0,0,0,0,0,0c0,0,0.01,0,0.01,0c0,0,0.01,0,0.01,0c0,0,0.01,0,0.01,0
			c0,0,0.01,0,0.01,0c0,0,0.01,0,0.01,0c0,0,0,0,0,0c0,0,0,0,0,0c0,0,0.01,0,0.01,0c0.01,0,0.01,0,0.02,0l0,0c0,0,0.01,0,0.01,0
			c0,0,0.01,0,0.01,0.01c0,0,0,0,0.01,0c0,0,0,0,0.01,0c0,0,0.01,0.01,0.01,0.01l0.83,0.55l0,0l0.15-0.71c0,0,0-0.01,0-0.01
			C31.65,28.12,31.66,28.08,31.69,28.04C31.69,28.04,31.69,28.04,31.69,28.04C31.69,28.04,31.69,28.04,31.69,28.04L31.69,28.04
			L31.69,28.04z"/>
		<polygon fill="none" points="30.23,26.64 29.63,26.06 29.58,26.89 29.58,26.89 		"/>
		<path fill="#FF3E51" d="M32.28,29.07c0.23,0.59,1.42,3.64,1.97,5.04h0.37c-0.62-1.6-2.34-6-2.34-6.01l0,0c0,0,0,0,0,0l0,0
			c-0.01-0.04-0.03-0.07-0.06-0.1l-2.62-2.53c-0.06-0.05-0.13-0.07-0.2-0.05l0,0c-0.07,0.03-0.11,0.09-0.12,0.17l-0.23,3.64
			c0,0.04,0.01,0.08,0.02,0.11c0,0,0,0,0,0c0,0,0,0,0,0c0,0.02,0.01,0.04,0.02,0.06l1.83,4.69h0.37l-1.86-4.77l-0.02-0.04
			c0,0,0,0,0,0c0,0,0,0,0,0s0,0,0,0c0,0,0,0,0,0l0,0l0,0l0,0l0.02,0.02c0,0,0,0,0,0l0,0l0,0l0.75,0.5l1.68,4.31h0.37l-1.68-4.3l0,0
			l-0.05-0.13l0.19-0.89l0.77,0.52l1.87,4.81h0.37l-1.92-4.93l0,0l0.18-0.86l0,0c0,0,0.01-0.03,0.01-0.03
			C31.98,28.29,32.1,28.6,32.28,29.07z M29.63,26.06l0.6,0.58l-0.65,0.25l0,0L29.63,26.06z M31.69,28.04
			C31.69,28.04,31.69,28.04,31.69,28.04c-0.02,0.03-0.04,0.07-0.05,0.12c0,0,0,0.01,0,0.01l-0.15,0.71l0,0l-0.83-0.55
			c0,0-0.01-0.01-0.01-0.01c0,0,0,0-0.01,0c0,0,0,0-0.01,0c0,0-0.01,0-0.01-0.01c0,0-0.01,0-0.01,0l0,0c-0.01,0-0.01,0-0.02,0
			c0,0-0.01,0-0.01,0c0,0,0,0,0,0c0,0,0,0,0,0c0,0-0.01,0-0.01,0c0,0-0.01,0-0.01,0c0,0-0.01,0-0.01,0c0,0-0.01,0-0.01,0
			c-0.01,0-0.01,0-0.01,0c0,0,0,0,0,0l0,0c0,0-0.01,0-0.01,0c-0.01,0-0.01,0.01-0.02,0.01c0,0-0.01,0-0.01,0.01c0,0,0,0-0.01,0.01
			c0,0,0,0,0,0c0,0,0,0-0.01,0.01c-0.01,0.01-0.02,0.02-0.02,0.03c0,0.01-0.01,0.01-0.01,0.02c0,0,0,0.01,0,0.01c0,0,0,0.01,0,0.01
			c0,0,0,0.01,0,0.01c0,0,0,0.01,0,0.01l-0.2,0.95l0,0l-0.63-0.42c0,0,0,0-0.01,0c-0.01-0.01-0.02-0.01-0.03-0.02
			c-0.01,0-0.01-0.01-0.02-0.01c0,0-0.01,0-0.01-0.01c-0.01,0-0.01-0.01-0.02-0.01c-0.01,0-0.02-0.01-0.03-0.01l0,0l0,0l0.1-1.6l0,0
			l0.98-0.38L31.69,28.04L31.69,28.04L31.69,28.04C31.69,28.04,31.69,28.04,31.69,28.04z"/>
	</g>
	<path fill="none" stroke="#FF3E51" stroke-width="0.5" stroke-linecap="round" stroke-miterlimit="10" d="M41.29,34.08
		c-0.04-0.05-0.1-0.08-0.16-0.08H28.24c-0.06,0-0.12,0.03-0.16,0.08c-0.04,0.05-0.06,0.11-0.05,0.18l1.57,13.79
		c0.02,0.1,0.11,0.17,0.21,0.17h9.74c0.1,0,0.19-0.07,0.21-0.17l1.57-13.79C41.35,34.19,41.33,34.13,41.29,34.08z"/>
	<g>
		<polygon fill="#FF3E51" points="41.16,37.98 28.34,37.98 28.23,37.55 41.05,37.55 		"/>
	</g>
	<g>
		<path fill="none" d="M41.26,21.71L41.26,21.71l-1.08,1.19l0,0l0,0c0.01,0.01,0.01,0.02,0.02,0.02c0,0.01,0.01,0.01,0.01,0.02
			c0,0,0.01,0.01,0.01,0.01c0,0.01,0.01,0.01,0.01,0.02c0,0.01,0.01,0.02,0.01,0.03c0,0,0,0,0,0.01l0.23,0.72l0,0l0.75-0.62
			c0,0,0.01,0,0.01-0.01c0,0,0.01,0,0.01-0.01c0,0,0.01,0,0.01,0c0,0,0,0,0.01,0c0.01,0,0.01-0.01,0.02-0.01
			c0.01-0.01,0.03-0.01,0.04-0.01c0,0,0.01,0,0.01,0c0,0,0,0,0,0c0,0,0.01,0,0.01,0c0,0,0.01,0,0.01,0c0.01,0,0.01,0,0.02,0
			c0,0,0.01,0,0.01,0l0,0c0,0,0,0,0,0c0,0,0.01,0,0.01,0.01c0,0,0.01,0,0.01,0.01c0,0,0.01,0,0.01,0.01c0,0,0.01,0,0.01,0.01
			c0,0,0,0,0.01,0.01c0,0,0,0,0,0c0,0,0,0,0,0c0,0,0.01,0.01,0.01,0.01c0,0,0.01,0.01,0.01,0.02l0,0c0,0,0.01,0.01,0.01,0.01
			c0,0,0.01,0.01,0.01,0.01c0,0,0,0,0,0.01c0,0,0,0,0,0.01c0,0,0,0.01,0.01,0.02l0.3,0.95l0,0l0.56-0.46c0,0,0.01-0.01,0.01-0.01
			c0.04-0.03,0.07-0.05,0.11-0.06c0,0,0,0,0,0c0,0,0,0,0,0l0,0l0,0l-0.21-1.59L41.26,21.71z"/>
		<polygon fill="none" points="42.21,21.61 42.1,20.78 41.54,21.4 41.54,21.4 		"/>
		<path fill="#FF3E51" d="M42.3,20.13L42.3,20.13c-0.07-0.02-0.15,0-0.2,0.06l-2.45,2.71c-0.03,0.03-0.05,0.07-0.05,0.1
			c0,0,0,0,0,0.01c0,0,0,0,0-0.01c-0.01,0.02-0.02,0.04-0.02,0.06L36.1,34.01h0.36l3.43-10.8l0.01-0.05c0,0,0,0,0,0c0,0,0,0,0,0
			c0,0,0,0,0,0c0,0,0,0,0,0v0l0,0l0,0l0.01,0.03c0,0,0,0,0,0l0,0l0,0l0.28,0.86l-3.17,9.96h0.36l3.1-9.73l0,0l0.04-0.13l0.7-0.58
			l0.28,0.89l-3.04,9.55h0.36l3.01-9.45l0,0L42.52,24l0,0c0,0,0.02-0.02,0.02-0.02c0,0.01-0.1,0.33-0.25,0.8
			c-0.22,0.7-2.63,8.2-2.9,9.09c-0.02,0.05-0.03,0.09-0.04,0.14h0.36c0.03-0.08,0.05-0.16,0.08-0.25c0.44-1.41,3.1-9.72,3.1-9.74
			l0,0c0,0,0,0,0,0l0,0c0.01-0.04,0.02-0.07,0.01-0.11l-0.47-3.62C42.42,20.21,42.37,20.15,42.3,20.13z M42.1,20.78l0.11,0.83
			l-0.67-0.21l0,0L42.1,20.78z M42.47,23.61L42.47,23.61C42.47,23.61,42.47,23.61,42.47,23.61C42.47,23.61,42.47,23.61,42.47,23.61
			c-0.04,0.01-0.08,0.03-0.11,0.06c0,0-0.01,0-0.01,0.01l-0.56,0.46l0,0l-0.3-0.95c0-0.01,0-0.01-0.01-0.02c0,0,0,0,0-0.01
			c0,0,0,0,0-0.01c0,0,0-0.01-0.01-0.01c0,0-0.01-0.01-0.01-0.01l0,0c0-0.01-0.01-0.01-0.01-0.02c0,0-0.01-0.01-0.01-0.01
			c0,0,0,0,0,0c0,0,0,0,0,0c0,0,0,0-0.01-0.01c0,0-0.01,0-0.01-0.01c0,0-0.01,0-0.01-0.01c0,0-0.01,0-0.01-0.01
			c0,0-0.01,0-0.01-0.01c0,0,0,0,0,0l0,0c0,0-0.01,0-0.01,0c-0.01,0-0.01,0-0.02,0c0,0-0.01,0-0.01,0c0,0-0.01,0-0.01,0c0,0,0,0,0,0
			c0,0-0.01,0-0.01,0c-0.01,0-0.03,0-0.04,0.01c-0.01,0-0.01,0.01-0.02,0.01c0,0,0,0-0.01,0c0,0-0.01,0-0.01,0c0,0-0.01,0-0.01,0.01
			c0,0-0.01,0-0.01,0.01l-0.75,0.62l0,0l-0.23-0.72c0,0,0,0,0-0.01c0-0.01-0.01-0.02-0.01-0.03c0-0.01-0.01-0.01-0.01-0.02
			c0,0,0-0.01-0.01-0.01c0-0.01-0.01-0.01-0.01-0.02c-0.01-0.01-0.01-0.02-0.02-0.02l0,0l0,0l1.08-1.19l0,0l1.01,0.31L42.47,23.61
			L42.47,23.61z"/>
	</g>
	<g>
		<path fill="#221E20" d="M28.73,49.26c-0.53,0.05-1.07,0.08-1.62,0.08c-2.35,0-4.6-0.48-6.65-1.33l-1.64-0.07
			c2.48,1.3,5.3,2.04,8.28,2.04c0.95,0,1.87-0.1,2.78-0.24L28.73,49.26z"/>
		<path fill="#221E20" d="M44.01,26.01l-0.34,0.97c0.49,1.6,0.76,3.29,0.76,5.05c0,2.86-0.71,5.54-1.94,7.92l-0.26,1.73
			c1.79-2.79,2.84-6.1,2.84-9.65C45.07,29.92,44.68,27.9,44.01,26.01z"/>
		<path fill="#221E20" d="M11.38,23.39c-1.41,2.57-2.22,5.51-2.22,8.64c0,4.72,1.84,9.01,4.83,12.22l0.59-0.3
			c-2.96-3.11-4.79-7.3-4.79-11.92c0-2.97,0.75-5.78,2.08-8.22C11.73,23.67,11.56,23.53,11.38,23.39z"/>
		<path fill="#221E20" d="M35.9,17.13c1.2,0.71,2.3,1.55,3.29,2.51l0.45-0.45c-1.01-0.99-2.14-1.85-3.36-2.57L35.9,17.13z"/>
	</g>
	<g>
		<path fill="#FF3E51" d="M35.01,42.55c-0.42,0-0.76,0.34-0.76,0.76s0.34,0.76,0.76,0.76s0.76-0.34,0.76-0.76
			S35.43,42.55,35.01,42.55z M35.01,43.81c-0.28,0-0.51-0.23-0.51-0.51s0.23-0.51,0.51-0.51s0.51,0.23,0.51,0.51
			S35.29,43.81,35.01,43.81z"/>
		<path fill="#FF3E51" d="M35.14,41.92c0-0.07-0.06-0.13-0.13-0.13c-0.84,0-1.52,0.68-1.52,1.52c0,0.07,0.06,0.13,0.13,0.13
			c0.07,0,0.13-0.06,0.13-0.13c0-0.7,0.57-1.26,1.26-1.26C35.08,42.04,35.14,41.99,35.14,41.92z"/>
		<rect x="34.88" y="39.52" fill="#FF3E51" width="0.25" height="0.51"/>
		
			<rect x="33.97" y="39.64" transform="matrix(0.9659 -0.2588 0.2588 0.9659 -9.1624 10.1832)" fill="#FF3E51" width="0.25" height="0.51"/>
		
			<rect x="33.11" y="39.99" transform="matrix(0.866 -0.5 0.5 0.866 -15.6678 22.0113)" fill="#FF3E51" width="0.25" height="0.51"/>
		
			<rect x="32.38" y="40.55" transform="matrix(0.7071 -0.7071 0.7071 0.7071 -19.3321 34.9377)" fill="#FF3E51" width="0.25" height="0.51"/>
		
			<rect x="31.82" y="41.28" transform="matrix(0.5 -0.866 0.866 0.5 -19.9999 48.4333)" fill="#FF3E51" width="0.25" height="0.51"/>
		
			<rect x="31.69" y="44.95" transform="matrix(0.866 -0.5 0.5 0.866 -18.2578 22.0113)" fill="#FF3E51" width="0.51" height="0.25"/>
		
			<rect x="32.25" y="45.68" transform="matrix(0.7071 -0.7071 0.7071 0.7071 -22.87 36.4027)" fill="#FF3E51" width="0.51" height="0.25"/>
		
			<rect x="32.99" y="46.24" transform="matrix(0.5 -0.866 0.866 0.5 -23.5379 51.9715)" fill="#FF3E51" width="0.51" height="0.25"/>
		
			<rect x="33.84" y="46.6" transform="matrix(0.2588 -0.9659 0.9659 0.2588 -19.8626 67.5616)" fill="#FF3E51" width="0.51" height="0.25"/>
		<rect x="34.88" y="46.59" fill="#FF3E51" width="0.25" height="0.51"/>
		
			<rect x="35.8" y="46.47" transform="matrix(0.9659 -0.2588 0.2588 0.9659 -10.869 10.8901)" fill="#FF3E51" width="0.25" height="0.51"/>
		
			<rect x="36.65" y="46.12" transform="matrix(0.866 -0.5 0.5 0.866 -18.2578 24.6013)" fill="#FF3E51" width="0.25" height="0.51"/>
		
			<rect x="37.38" y="45.56" transform="matrix(0.7071 -0.7071 0.7071 0.7071 -21.4045 39.9405)" fill="#FF3E51" width="0.25" height="0.51"/>
		
			<rect x="37.95" y="44.82" transform="matrix(0.5 -0.866 0.866 0.5 -19.9999 55.5094)" fill="#FF3E51" width="0.25" height="0.51"/>
		
			<rect x="37.82" y="41.41" transform="matrix(0.866 -0.5 0.5 0.866 -15.6678 24.6013)" fill="#FF3E51" width="0.51" height="0.25"/>
		
			<rect x="37.26" y="40.68" transform="matrix(0.7071 -0.7071 0.7071 0.7071 -17.8665 38.4752)" fill="#FF3E51" width="0.51" height="0.25"/>
		
			<rect x="36.52" y="40.12" transform="matrix(0.5 -0.866 0.866 0.5 -16.4619 51.9715)" fill="#FF3E51" width="0.51" height="0.25"/>
		
			<rect x="35.67" y="39.76" transform="matrix(0.2588 -0.9659 0.9659 0.2588 -11.9023 64.2665)" fill="#FF3E51" width="0.51" height="0.25"/>
		<path fill="#FF3E51" d="M37.26,44.94c-0.51,0.7-1.33,1.15-2.25,1.15s-1.75-0.45-2.25-1.15c-0.15-0.08-0.31-0.17-0.46-0.27
			c0.5,0.99,1.53,1.67,2.71,1.67s2.21-0.68,2.71-1.67C37.56,44.76,37.41,44.85,37.26,44.94z"/>
		<path fill="#FF3E51" d="M32.76,41.68c0.51-0.7,1.33-1.15,2.25-1.15s1.75,0.45,2.25,1.15c0.15,0.08,0.31,0.17,0.46,0.27
			c-0.5-0.99-1.53-1.67-2.71-1.67s-2.21,0.68-2.71,1.67C32.45,41.85,32.61,41.76,32.76,41.68z"/>
		<path fill="#FF3E51" d="M35.01,41.28c-2.04,0-4.04,2.02-4.04,2.02s2.01,2.02,4.04,2.02s4.04-2.02,4.04-2.02
			S37.05,41.28,35.01,41.28z M31.33,43.31c0.37-0.34,1.26-1.07,2.3-1.48c-0.4,0.37-0.64,0.9-0.64,1.48c0,0.58,0.25,1.11,0.64,1.48
			C32.6,44.38,31.71,43.64,31.33,43.31z M35.01,45.08c-0.98,0-1.77-0.79-1.77-1.77s0.79-1.77,1.77-1.77s1.77,0.79,1.77,1.77
			S35.98,45.08,35.01,45.08z M36.39,44.79c0.4-0.37,0.64-0.9,0.64-1.48c0-0.58-0.25-1.11-0.64-1.48c1.03,0.41,1.92,1.14,2.3,1.48
			C38.31,43.64,37.42,44.38,36.39,44.79z"/>
	</g>
</g>
</svg>
