<svg xmlns="http://www.w3.org/2000/svg" xmlns:xlink="http://www.w3.org/1999/xlink" viewBox="0 0 1190.6 436" xmlns:v="https://vecta.io/nano"><path d="M98.9 28.2S8 147 12 256.6s60.2 118.3 99.7 28.5l8.8-18.7-6.4-26.3s-36.5 88.8-52.5 76.7C39.4 300 10.2 197.9 145.7 22.1c0 0-15.4-2.5-46.8 6.1z"/><path d="M164.5 295.9c-7.7 18-47.2 50.6-60.9 8.2s23.1-115.4 23.1-115.4 23.4-6.6 26.7-1.1c0 0-18.3 33-24.4 73.9-6.2 40.9 8.5 36.1 14.5 25.7s25.5-81.6 34.7-102.1c0 0 21.6-8.4 28.9-3.5 0 0-16.5 38.6-22.7 64.9s-7.2 56.1 11.1 22.1l6.3-11.7 5 22.2c-.1-.2-28 51.8-42.3 16.8zm229.3-38.1s-28.6 47.8-42.3 14.2c-8 16.6-53.6 37.5-60.8 5.1-9-40.5 24.9-107.8 24.9-107.8s23.4-5.2 26.6.1c0 0-18.7 30.3-25.5 68.6s7.9 34.4 14 24.9 26.7-75.8 36.2-94.7c0 0 21.6-7 28.9-2 0 0-17 35.6-23.7 60.1s-8.1 52.6 10.7 21.3c0 0 27.7-50.4 31.6-70.6 0 0-12.5-27.6 1.2-52.9s49.5-7.8 24.9 45.8c0 0 8.8 23.3 16 34.9 0 0 2.6 5.9-3.3 15.1s-28.4 55.8-11.3 46.9 19.7-17.7 19.7-17.7 9.9-.5 12.5 2.9c0 0-31.3 49.4-53.1 31.3s15.5-76.3 15.5-76.3L425 195.3c-.2-.1-19.5 43.3-31.2 62.5z"/><path d="M196.1 275.6s-2.9-40 23.7-75.5 61.2-20.3 66.1-15 23 42.6-62.6 86.1l-7.9 2-3.8-16.8s31-12.9 52.6-36.7-13.3-24.4-31.6 7.1-10.4 57.8 1.5 57.1 36.8-11.6 55.5-49.7l5.8-9.1 3.5 24.7S282 290.2 244 302.9s-47.5-22.7-47.5-22.7l-.4-4.6zm310.4-.3V162h74.6v19.7h-52.5v26.6h44.7V228h-44.7v27.5h52.5v19.7l-74.6.1h0zm152.9 0l-22-39.5-21.8 39.5h-25.3l35.2-58.1-32.9-55.2h25.1l19.7 36.6 19.9-36.6h25l-32.9 55.2 35.3 58.1h-25.3zm82.6-93.5v93.6h-22.1v-93.6h-29.6V162h81.3v19.7H742zm47.5 93.5V162h74.6v19.7h-52.5v26.6h44.7V228h-44.7v27.5h52.5v19.7l-74.6.1h0zm156.4 0l-22.1-45.2h-15.9v45.2h-22.1V162h44.4c23.1 0 36.8 15.8 36.8 34.7 0 15.9-9.7 25.8-20.7 29.8l25.3 48.8h-25.7zm-17.2-93.5h-20.8v29.9h20.8c9.7 0 16.1-6.2 16.1-15 0-8.7-6.3-14.9-16.1-14.9zm128.1 93.5l-44.9-69.5v69.5h-22.1V162h19.7l44.9 69.4V162h22.1v113.3h-19.7zm120.8-17.5l2.2-2.2h-54.7V228h44.7v-19.7h-44.7v-26.6h52.5V162H1103v113.3h52.2c9.7-6.5 17-12.5 22.4-17.5z"/><path d="M1184.7 251c-7.5 8.8-16.5 16-25.8 22.7s-19.2 12.5-29.4 17.9c-20.3 10.6-41.9 18.9-63.9 25.4-44 13-89.9 19.2-135.8 20.7-45.8 1.6-91.6.1-137.3-1.9l-137-7.4-136.9-5.7-68.4-.9c-22.8 0-45.6.5-68.3 1.2-45.5 1.5-91 5.6-135.9 13.1-22.4 3.8-44.7 8.6-66.6 14.7-22 6-43.5 13.7-64.4 22.7l-.4-.9c40.9-20.7 85.3-34.1 130.3-43 22.5-4.6 45.2-7.9 68-10.5s45.7-4.4 68.6-5.6c91.7-4.8 183.3.5 274.5 6.5l136.8 8.9c45.6 2.5 91.2 4.4 136.8 3.3 22.8-.6 45.5-2.2 68.1-5.2s45-7.3 66.9-13.3c21.9-6.1 43.4-13.9 63.8-24.1 10.2-5.1 20.1-10.8 29.5-17.2 9.3-6.5 18.4-13.5 26-22l.8.6z"/><g fill="#ff3e51"><path d="M190.3 405.4c-8.2 0-13.2-5.9-13.2-15.4s5.1-15.4 13.2-15.4c4.1 0 6.7 1.1 9.9 4.6l-2.2 2c-2.6-2.9-4.6-3.8-7.7-3.8-3.4 0-6.2 1.4-8 4-1.5 2.2-2.1 4.5-2.1 8.6 0 4 .6 6.4 2.1 8.6 1.8 2.6 4.6 4 8 4 3.2 0 5.2-.9 7.7-3.8l2.2 2c-3.2 3.6-5.8 4.6-9.9 4.6zm39.6-3.3c-2.1 2.1-5 3.3-8.4 3.3s-6.2-1.2-8.4-3.3c-3.2-3.2-3.7-7.8-3.7-12.1s.6-8.9 3.7-12.1c2.1-2.1 5-3.3 8.4-3.3s6.2 1.2 8.4 3.3c3.2 3.2 3.7 7.8 3.7 12.1s-.5 9-3.7 12.1zm-2.1-22.1c-1.6-1.6-3.8-2.6-6.2-2.6s-4.6.9-6.2 2.6c-2.5 2.5-2.7 6.5-2.7 10s.2 7.5 2.7 10c1.6 1.6 3.8 2.6 6.2 2.6s4.6-.9 6.2-2.6c2.5-2.5 2.7-6.5 2.7-10s-.2-7.5-2.7-10z"/><use xlink:href="#B"/><use xlink:href="#B" x="57.3"/><path d="M380.8 405.1v-3.6c-2.2 2.6-5.2 3.9-8.9 3.9-3.4 0-6-1-8-2.9s-3.1-4.8-3.1-8.4V375h3.2v18.6c0 5.8 2.9 9 8.3 9s8.5-3.3 8.5-9V375h3.2v30.1h-3.2 0z"/><use xlink:href="#C"/><path d="M435.7 364.6v-3.9h3.9v3.9h-3.9zm.3 40.5V375h3.2v30.1H436zm29.4.3c-8.2 0-13.2-5.9-13.2-15.4s5-15.4 13.2-15.4c4.1 0 6.7 1.1 9.9 4.6l-2.2 2c-2.6-2.9-4.5-3.8-7.7-3.8-3.4 0-6.2 1.4-8 4-1.5 2.2-2.1 4.5-2.1 8.6 0 4 .6 6.4 2.1 8.6 1.8 2.6 4.6 4 8 4 3.2 0 5.2-.9 7.7-3.8l2.2 2c-3.3 3.6-5.8 4.6-9.9 4.6zm38.5-.3v-3c-2.6 2.6-4.9 3.4-9.2 3.4-4.4 0-6.9-.8-8.9-2.7-1.4-1.4-2.2-3.6-2.2-5.9 0-5.5 3.9-8.7 10.5-8.7h9.7v-3.4c0-4.8-2.4-7.4-8.5-7.4-4.2 0-6.4 1.1-8.3 3.8l-2.3-2c2.6-3.5 5.7-4.6 10.6-4.6 7.9 0 11.7 3.6 11.7 9.9v20.6h-3.1 0zm0-14.4h-9.4c-5.2 0-7.7 2.1-7.7 6s2.4 5.9 7.9 5.9c2.7 0 5.4-.2 7.5-2.3 1.1-1.1 1.7-2.9 1.7-5.7v-3.9h0zm25.6 14.4c-4.7 0-7.2-3.3-7.2-7.9v-19.8h-4.1V375h4.1v-9.6h3.2v9.6h6.8v2.4h-6.8v19.9c0 3.1 1.4 5 4.6 5h2.2v2.8h-2.8zm14.4-40.5v-3.9h3.9v3.9h-3.9zm.4 40.5V375h3.2v30.1h-3.2zm36.6-3c-2.1 2.1-5 3.3-8.4 3.3s-6.2-1.2-8.4-3.3c-3.2-3.2-3.7-7.8-3.7-12.1s.6-8.9 3.7-12.1c2.1-2.1 5-3.3 8.4-3.3s6.2 1.2 8.4 3.3c3.2 3.2 3.7 7.8 3.7 12.1s-.6 9-3.7 12.1zm-2.2-22.1c-1.6-1.6-3.8-2.6-6.2-2.6s-4.6.9-6.2 2.6c-2.5 2.5-2.7 6.5-2.7 10s.2 7.5 2.7 10c1.6 1.6 3.8 2.6 6.2 2.6s4.6-.9 6.2-2.6c2.5-2.5 2.7-6.5 2.7-10s-.2-7.5-2.7-10z"/><use xlink:href="#C" x="198.9"/><path d="M684.3 405.1l-4.3-5.2c-1.8 1.7-6.3 5.6-13.7 5.6-8.2 0-13.8-5.1-13.8-12.7 0-7 4.9-10.3 10.2-13.8-2.4-2.8-4.9-6-4.9-9.9 0-5 4-8.9 9-8.9s9 3.9 9 8.9c0 3.6-2.3 6.1-5.1 8 0 0-2.2 1.6-3.3 2.2l12.7 15.4c1.9-3 2.6-5.4 2.6-11h3.3c0 5.5-1.1 10.1-3.9 13.5l6.4 7.7-4.2.2h0zm-19.6-23.9c-4.2 2.9-8.7 5.6-8.7 11.4 0 5.9 4.2 9.9 10.3 9.9 3.6 0 7.4-.9 11.8-4.9l-13.4-16.4zm2.2-17.9c-3.2 0-5.7 2.4-5.7 5.7 0 2.2.9 4 4.4 8.2.8-.6 2.6-1.7 2.6-1.7 2.3-1.6 4.5-3.3 4.5-6.2-.1-3.5-2.6-6-5.8-6zm81.9 41.8h-3.2l-8.5-25.1-8.5 25.1h-3.2l-9.6-30.1h3.5l7.7 26.3 8.6-26.3h3.1l8.6 26.3L755 375h3.5l-9.7 30.1zm20.2-14.4c0 7.6 3.4 11.9 9.8 11.9 3.6 0 5.7-1.1 8.3-3.6l2.4 1.9c-3.1 3.1-5.9 4.6-10.8 4.6-8.3 0-12.8-5.4-12.8-15.4 0-9.7 4.5-15.4 12-15.4s12 5.5 12 14.6v1.4H769h0zm16.7-8.2c-1.3-3.1-4.4-5-7.8-5s-6.5 1.9-7.8 5c-.8 1.9-.9 2.8-1.1 5.7h17.7c-.1-2.9-.3-3.8-1-5.7zm36.5 20.3c-1.6 1.6-4.2 2.6-7.4 2.6-3.4 0-6.3-.8-8.9-4.2v3.9h-3.2v-44.4h3.2v18.2c2.6-3.5 5.5-4.2 8.9-4.2 3.1 0 5.8 1.1 7.4 2.6 3.1 3.1 3.9 8 3.9 12.8 0 4.7-.8 9.7-3.9 12.7zm-7.8-25.4c-7.4 0-8.5 6.4-8.5 12.6s1.1 12.6 8.5 12.6 8.5-6.4 8.5-12.6-1.1-12.6-8.5-12.6zm60.7 27.7v-3c-2.6 2.6-4.9 3.4-9.2 3.4-4.4 0-6.9-.8-8.9-2.7-1.4-1.4-2.2-3.6-2.2-5.9 0-5.5 3.9-8.7 10.5-8.7h9.7v-3.4c0-4.8-2.4-7.4-8.5-7.4-4.2 0-6.4 1.1-8.3 3.8l-2.3-2c2.6-3.5 5.7-4.6 10.6-4.6 7.9 0 11.7 3.6 11.7 9.9v20.6h-3.1 0zm0-14.4h-9.3c-5.2 0-7.7 2.1-7.7 6s2.4 5.9 7.9 5.9c2.7 0 5.4-.2 7.5-2.3 1.1-1.1 1.7-2.9 1.7-5.7v-3.9zm26.9 29.1c-4.5 0-6.7-1.2-9.9-4l2.1-2.1c2.4 2.1 4 3.3 7.8 3.3 6.3 0 9.1-4.5 9.1-10.4v-5.4c-2.6 3.5-5.5 4.2-8.9 4.2-3.1 0-5.8-1.1-7.4-2.6-3.1-3.1-3.9-8-3.9-12.8 0-4.7.8-9.7 3.9-12.8 1.6-1.6 4.2-2.6 7.4-2.6 3.4 0 6.3.8 8.9 4.2V375h3.2v31.7c0 7.6-4.5 13.1-12.3 13.1zm.6-42.4c-7.4 0-8.5 6.4-8.5 12.6s1.1 12.6 8.5 12.6 8.5-6.4 8.5-12.6-1.1-12.6-8.5-12.6zm27.8 13.3c0 7.6 3.4 11.9 9.8 11.9 3.6 0 5.7-1.1 8.3-3.6l2.4 1.9c-3.1 3.1-5.9 4.6-10.8 4.6-8.3 0-12.8-5.4-12.8-15.4 0-9.7 4.5-15.4 12-15.4s12 5.5 12 14.6v1.4h-20.9 0zm16.6-8.2c-1.3-3.1-4.4-5-7.8-5s-6.5 1.9-7.8 5c-.8 1.9-.9 2.8-1.1 5.7H948c0-2.9-.2-3.8-1-5.7z"/><use xlink:href="#C" x="565.5"/><path d="M1013 405.4c-8.2 0-13.2-5.9-13.2-15.4s5-15.4 13.2-15.4c4.1 0 6.7 1.1 9.9 4.6l-2.2 2c-2.6-2.9-4.5-3.8-7.7-3.8-3.4 0-6.2 1.4-8 4-1.5 2.2-2.1 4.5-2.1 8.6 0 4 .6 6.4 2.1 8.6 1.8 2.6 4.6 4 8 4 3.2 0 5.2-.9 7.7-3.8l2.2 2c-3.2 3.6-5.7 4.6-9.9 4.6zm27.8 7.8c-.6 1.6-1.2 2.7-2.1 3.5-1.5 1.4-3.7 1.9-5.7 1.9h-1.5v-2.8h1.2c3.4 0 4.4-1.1 5.5-4.1l2.4-6.7-11-30.1h3.5l9 26.3 9-26.3h3.5l-13.8 38.3zM80 350.2s-8.8 13.8-29.9 12.7-33.5-20.3-33.5-20.3-9 7.8-3.1 19.2 47.1 22.6 66.5-11.6z"/></g><defs ><path id="B" d="M286.5 405.1v-18.6c0-5.8-2.9-9-8.3-9-5.2 0-8.5 3.3-8.5 8.4v19.2h-3.2v-18.6c0-5.8-2.9-9-8.3-9s-8.5 3.3-8.5 9v18.6h-3.2V375h3.2v3.5c2.2-2.6 5.3-3.9 8.9-3.9 4.4 0 7.9 1.9 9.7 5.5 2.2-3.6 5.8-5.5 10.2-5.5 3.3 0 6 1.1 7.9 2.9 2 1.9 3.1 4.8 3.1 8.4v19.2h-3 0z"/><path id="C" d="M418.6 405.1v-18.6c0-5.8-2.9-9-8.3-9s-8.5 3.3-8.5 9v18.6h-3.2V375h3.2v3.5c2.2-2.6 5.2-3.9 8.9-3.9 3.4 0 6 1 8 2.9s3.1 4.8 3.1 8.4v19.2h-3.2 0z"/></defs></svg>